<svg width="19" height="20" viewBox="0 0 19 20" fill="none" xmlns="http://www.w3.org/2000/svg">
<path fill-rule="evenodd" clip-rule="evenodd" d="M5.2099 0H13.5909C16.6799 0 18.3999 1.78 18.3999 4.83V15.16C18.3999 18.26 16.6799 20 13.5909 20H5.2099C2.1699 20 0.399902 18.26 0.399902 15.16V4.83C0.399902 1.78 2.1699 0 5.2099 0ZM5.4799 4.66V4.65H8.4689C8.8999 4.65 9.2499 5 9.2499 5.429C9.2499 5.87 8.8999 6.22 8.4689 6.22H5.4799C5.0489 6.22 4.6999 5.87 4.6999 5.44C4.6999 5.01 5.0489 4.66 5.4799 4.66ZM5.4799 10.74H13.3199C13.7499 10.74 14.0999 10.39 14.0999 9.96C14.0999 9.53 13.7499 9.179 13.3199 9.179H5.4799C5.0489 9.179 4.6999 9.53 4.6999 9.96C4.6999 10.39 5.0489 10.74 5.4799 10.74ZM5.4799 15.31H13.3199C13.7189 15.27 14.0199 14.929 14.0199 14.53C14.0199 14.12 13.7189 13.78 13.3199 13.74H5.4799C5.1799 13.71 4.8899 13.85 4.7299 14.11C4.5699 14.36 4.5699 14.69 4.7299 14.95C4.8899 15.2 5.1799 15.35 5.4799 15.31Z" fill="#FEBB1B"/>
</svg>
