<svg width="351" height="311" viewBox="0 0 351 311" fill="none" xmlns="http://www.w3.org/2000/svg">
<path d="M21.6775 201.698C29.1303 218.56 19.6212 237.983 8.44557 252.624C4.69772 257.525 0.577946 262.655 0.0522454 268.824C-0.573588 276.346 4.51176 283.264 10.5484 287.785C21.5523 296.024 36.5866 298.571 49.6827 294.416C61.0013 290.833 70.5176 282.712 81.9328 279.438C101.037 273.961 121.271 283.042 137.618 294.351C149.187 302.354 161.578 312.084 175.525 310.375C185.346 309.172 193.678 302.268 199.328 294.136C202.057 290.196 204.432 285.815 208.408 283.164C210.772 281.587 213.547 280.753 216.326 280.158C241.681 274.731 268.585 287.978 293.604 281.165C310.502 276.561 323.977 263.181 332.352 247.781C340.728 232.38 344.64 214.984 347.898 197.75C350.212 185.502 352.132 172.286 346.825 161.016C341.196 149.094 328.168 141.869 315.076 140.518C301.983 139.168 288.848 142.911 276.785 148.192C261.712 154.794 246.938 164.036 230.484 164.069C219.28 164.09 208.598 159.77 197.884 156.499C179.938 151.007 161.342 148.278 142.771 145.759C125.001 143.348 107.059 141.102 89.1817 142.535C76.5327 143.542 65.3643 148.385 53.0908 150.624C45.0908 152.086 37.0515 150.982 29.2018 153.458C19.5461 156.485 9.58995 163.51 9.0571 174.561C8.55286 185.068 17.7222 192.745 21.6775 201.698Z" fill="#1F222A"/>
<path d="M153.406 0H196.265L200.582 20.1424H149.09L153.406 0Z" fill="black"/>
<path d="M201.974 18.7129H147.699C146.323 18.7129 145.207 19.8303 145.207 21.2087V21.6657C145.207 23.0441 146.323 24.1615 147.699 24.1615H201.974C203.35 24.1615 204.466 23.0441 204.466 21.6657V21.2087C204.466 19.8303 203.35 18.7129 201.974 18.7129Z" fill="black"/>
<path d="M292.313 112.547C291.903 117.046 291.085 120.421 285.715 122.108C283.05 122.861 280.296 123.255 277.527 123.28C276.732 123.28 275.901 123.28 275.012 123.28H71.3375C71.0896 123.279 70.8426 123.251 70.6005 123.198C68.1324 122.741 63.3716 120.104 61.5936 113.121C59.605 105.352 74.3437 57.779 78.9174 46.413C83.7601 34.4025 121.11 27.5595 166.168 27.9579C208.583 28.286 261.9 33.0316 269.351 38.7146C276.802 44.3976 292.909 105.973 292.313 112.547Z" fill="white"/>
<path d="M190.136 33.3247H163.957C162.219 33.3247 160.811 34.7359 160.811 36.4767V39.2655C160.811 41.0063 162.219 42.4175 163.957 42.4175H190.136C191.874 42.4175 193.283 41.0063 193.283 39.2655V36.4767C193.283 34.7359 191.874 33.3247 190.136 33.3247Z" fill="#FEBB1B"/>
<path d="M174.999 29.0127C174.999 29.0127 174.613 34.9652 175.338 35.7385C175.773 36.154 176.351 36.3858 176.953 36.3858C177.554 36.3858 178.132 36.154 178.567 35.7385C179.456 34.7894 179.292 29.0127 179.292 29.0127H174.999Z" fill="black"/>
<path d="M280.557 120.269C278.023 120.969 275.408 121.335 272.779 121.358C272.018 121.358 271.211 121.358 270.369 121.358H76.3327C76.0972 121.355 75.8624 121.331 75.6309 121.288C77.0112 110.074 80.4151 89.9437 87.1294 87.4947C90.1684 86.7605 93.2796 86.3674 96.4054 86.323C108.348 85.5848 128.749 85.7254 146.131 86.323C162.765 86.9089 176.638 87.9166 177.714 88.9594C179.266 90.4951 180.28 92.493 180.603 94.6541C180.603 94.6541 180.603 89.8148 184.007 88.6782C185.458 88.1861 201.179 86.9792 219.099 86.241C237.02 85.5028 257.046 85.2215 267.14 86.6042C270.65 87.0846 272.907 87.776 273.527 88.6782C276.381 92.9199 279.107 109.805 280.557 120.269Z" fill="#D1D3D4"/>
<path d="M41.2983 105.751C41.2983 105.751 19.7049 100.255 13.0725 110.438C6.44009 120.62 12.511 125.612 23.3077 126.749C34.1044 127.885 40.924 128.647 43.0061 126.749C45.0883 124.85 44.7023 108.352 43.0061 107.028L41.2983 105.751Z" fill="black"/>
<path d="M42.5274 123.491L53.5112 125.389L51.7215 130.135L38.2695 126.818L42.5274 123.491Z" fill="black"/>
<path d="M309.029 105.751C309.029 105.751 330.622 100.255 337.243 110.438C343.864 120.62 337.816 125.612 327.019 126.749C316.223 127.885 309.403 128.647 307.321 126.749C305.239 124.85 305.625 108.352 307.321 107.028L309.029 105.751Z" fill="black"/>
<path d="M307.8 123.491L296.816 125.389L298.606 130.135L312.058 126.818L307.8 123.491Z" fill="black"/>
<path d="M32.2109 202.701H67.0574V249.642C67.0482 252.383 65.9546 255.008 64.0164 256.943C62.0782 258.878 59.4533 259.965 56.7169 259.965H42.5397C39.7972 259.965 37.1671 258.873 35.2279 256.931C33.2887 254.988 32.1992 252.354 32.1992 249.606V202.701H32.2109Z" fill="black"/>
<path d="M283.562 202.701H318.409V249.642C318.409 252.389 317.32 255.023 315.38 256.966C313.441 258.909 310.811 260 308.069 260H293.891C291.149 260 288.519 258.909 286.579 256.966C284.64 255.023 283.551 252.389 283.551 249.642V202.701H283.562Z" fill="black"/>
<path d="M102.641 59.4077H141.078C145.343 59.4139 149.431 61.1154 152.444 64.1384C155.458 67.1614 157.15 71.2589 157.15 75.531V130.135H86.5449V75.531C86.5449 71.2549 88.2407 67.1538 91.2592 64.1301C94.2777 61.1064 98.3717 59.4077 102.641 59.4077Z" fill="black"/>
<path d="M215.215 59.4077H253.629C255.745 59.4047 257.84 59.8194 259.796 60.6283C261.751 61.4372 263.528 62.6244 265.025 64.1219C266.522 65.6193 267.71 67.3978 268.521 69.3555C269.331 71.3132 269.748 73.4117 269.748 75.531V130.135H199.119V75.531C199.119 71.2549 200.815 67.1538 203.833 64.1301C206.852 61.1064 210.946 59.4077 215.215 59.4077Z" fill="black"/>
<path d="M86.7551 138.021C85.7603 131.701 85.1509 125.327 84.9303 118.933C79.6781 119.015 90.4397 82.9248 97.8793 77.9214C111.401 68.7701 132.913 64.8213 147.172 81.5421C151.676 86.8267 161.361 101.931 160.168 114.14C159.829 117.562 155.489 118.956 150.588 119.038C149.736 126.274 149.513 133.57 149.921 140.844L86.7551 138.021Z" fill="#FEBB1B"/>
<path d="M128.28 75.6599L124.291 99.88L121.191 110.52L118.115 99.8566L114.723 75.6013C119.123 74.1124 123.893 74.133 128.28 75.6599Z" fill="#231F20"/>
<path d="M121.228 85.7255L117.613 82.9367L121.228 80.1362L124.842 82.9367L121.228 85.7255Z" fill="white"/>
<path d="M124.303 99.8801L121.227 110.531L118.15 99.8567L120.01 84.2021L120.045 83.8857H122.408L122.443 84.2255L124.303 99.8801Z" fill="white"/>
<path d="M136.668 108.68C119.742 95.0642 103.506 74.0664 103.506 74.0664C101.477 74.5723 99.6021 75.5657 98.043 76.9606C101.353 84.7879 116.759 100.126 129.825 110.449C131.988 109.471 134.302 108.872 136.668 108.68Z" fill="black"/>
<path d="M119.951 106.758C114.818 106.757 109.852 108.588 105.944 111.923C102.036 115.258 99.4418 119.878 98.627 124.956H104.815C105.59 121.515 107.51 118.442 110.259 116.239C113.009 114.037 116.425 112.837 119.945 112.837C123.466 112.837 126.882 114.037 129.632 116.239C132.381 118.442 134.301 121.515 135.076 124.956H141.276C140.459 119.879 137.864 115.26 133.957 111.926C130.049 108.591 125.084 106.76 119.951 106.758Z" fill="white"/>
<path d="M111.18 110.426C112.662 111.425 114.014 112.606 115.203 113.941C115.753 114.503 116.373 115.417 115.765 115.98C115.157 116.542 114.513 116.167 113.928 115.851L109.495 113.496C111.2 114.216 112.593 115.52 113.425 117.175C113.562 117.363 113.639 117.587 113.648 117.819C113.62 118.018 113.522 118.201 113.372 118.334C113.222 118.467 113.029 118.542 112.829 118.546C112.421 118.548 112.019 118.447 111.659 118.253C109.717 117.398 108.735 116.765 106.781 115.91C107.799 116.531 108.302 116.507 109.308 117.081C110.314 117.655 112.139 119.425 111.647 120.151C111.451 120.386 111.185 120.551 110.888 120.623C110.591 120.694 110.279 120.669 109.998 120.55C108.565 120.207 107.155 119.777 105.775 119.261C106.984 119.562 108.034 120.312 108.711 121.358C108.827 121.501 108.893 121.678 108.899 121.862C108.899 122.401 108.103 122.46 107.588 122.319C105.05 121.604 102.816 119.882 100.196 119.647C99.5456 119.697 98.898 119.523 98.3592 119.155C96.4876 117.339 100.032 113.297 101.494 112.125C104.641 109.781 107.425 108.153 111.18 110.426Z" fill="white"/>
<path d="M108.114 122.952C107.894 122.951 107.674 122.923 107.459 122.87C106.402 122.539 105.373 122.124 104.383 121.628C103.075 120.919 101.654 120.444 100.184 120.222H99.9379C99.2346 120.246 98.5459 120.017 97.9962 119.577C97.7363 119.329 97.5368 119.025 97.4131 118.688C97.2894 118.351 97.2447 117.989 97.2826 117.632C97.423 115.417 99.9262 112.605 101.178 111.668C104.266 109.324 107.377 107.449 111.472 109.934C112.993 110.928 114.384 112.109 115.612 113.449C116.63 114.492 116.852 115.605 116.186 116.308C115.8 116.706 115.016 117.034 113.659 116.308L113.963 116.788C114.151 117.074 114.256 117.407 114.267 117.749C114.239 118.095 114.085 118.418 113.835 118.657C113.585 118.897 113.256 119.037 112.91 119.05C112.625 119.07 112.339 119.034 112.068 118.944C112.189 119.139 112.276 119.353 112.325 119.577C112.366 119.723 112.374 119.876 112.35 120.026C112.325 120.176 112.269 120.318 112.185 120.444C111.922 120.776 111.561 121.016 111.154 121.132C110.747 121.247 110.314 121.232 109.916 121.089L109.191 120.901C109.214 120.934 109.234 120.969 109.249 121.007C109.435 121.252 109.534 121.553 109.53 121.862C109.52 122.022 109.473 122.179 109.394 122.319C109.315 122.459 109.206 122.579 109.074 122.67C108.79 122.86 108.455 122.958 108.114 122.952ZM107.635 109.98C105.635 109.98 103.857 111.152 101.88 112.64C100.71 113.484 98.5576 116.038 98.4524 117.749C98.4305 117.936 98.4507 118.126 98.5114 118.304C98.5721 118.483 98.6718 118.645 98.8033 118.78C99.1521 119.002 99.5601 119.113 99.973 119.097H100.23C101.844 119.322 103.405 119.834 104.839 120.608C105.771 121.072 106.737 121.464 107.728 121.78C107.909 121.827 108.098 121.827 108.278 121.78L108.325 121.698C107.89 121.036 107.283 120.506 106.57 120.163L105.67 119.835C105.531 119.78 105.417 119.675 105.35 119.541C105.283 119.407 105.268 119.253 105.307 119.108C105.353 118.966 105.451 118.846 105.581 118.772C105.71 118.699 105.863 118.676 106.009 118.71C106.354 118.801 106.691 118.923 107.015 119.073C108.068 119.436 109.144 119.741 110.232 119.999C110.758 120.128 111.062 120.14 111.261 119.835C110.739 118.928 109.999 118.167 109.109 117.62H109.038L108.173 117.175L107.916 117.081C107.446 116.9 106.992 116.681 106.559 116.425C106.421 116.354 106.317 116.23 106.269 116.082C106.222 115.933 106.236 115.772 106.307 115.634C106.379 115.496 106.502 115.392 106.65 115.344C106.798 115.297 106.959 115.311 107.097 115.382C107.682 115.64 108.185 115.886 108.652 116.109C109.007 116.257 109.351 116.429 109.682 116.624C110.372 116.976 111.062 117.327 112.021 117.726C112.297 117.873 112.599 117.96 112.91 117.983C113.074 117.983 113.191 117.855 113.191 117.808C113.191 117.761 113.097 117.573 113.051 117.491C112.493 116.489 111.76 115.596 110.887 114.855L109.354 114.023C109.218 113.958 109.111 113.843 109.057 113.702C109.003 113.561 109.006 113.404 109.065 113.264C109.124 113.125 109.234 113.014 109.373 112.954C109.512 112.895 109.669 112.891 109.811 112.945C110.431 113.156 111.012 113.469 111.53 113.871L114.314 115.37C114.864 115.663 115.308 115.757 115.484 115.605C115.659 115.453 115.343 114.82 114.922 114.433C113.764 113.148 112.452 112.011 111.015 111.047C110.018 110.366 108.842 109.995 107.635 109.98Z" fill="#231F20"/>
<path d="M130.176 109.641C128.689 110.633 127.336 111.815 126.153 113.156C125.603 113.719 124.983 114.632 125.579 115.195C126.176 115.757 126.831 115.382 127.416 115.066L131.826 112.723C130.122 113.44 128.732 114.745 127.907 116.402C127.767 116.588 127.685 116.813 127.673 117.046C127.701 117.247 127.801 117.431 127.953 117.565C128.106 117.698 128.301 117.772 128.504 117.773C128.912 117.775 129.314 117.674 129.673 117.48C131.627 116.624 132.61 115.992 134.551 115.136C133.545 115.757 133.042 115.734 132.025 116.308C131.007 116.882 129.206 118.652 129.685 119.378C129.881 119.613 130.147 119.778 130.444 119.849C130.741 119.921 131.053 119.896 131.335 119.776C132.768 119.436 134.178 119.005 135.557 118.488C134.349 118.789 133.299 119.538 132.621 120.585C132.513 120.731 132.452 120.907 132.446 121.089C132.446 121.628 133.241 121.686 133.756 121.546C136.283 120.831 138.528 119.109 141.149 118.874C141.795 118.923 142.439 118.749 142.973 118.382C144.845 116.566 141.301 112.453 139.839 111.352C136.715 108.985 133.931 107.368 130.176 109.641Z" fill="white"/>
<path d="M133.229 122.167C132.894 122.178 132.564 122.088 132.281 121.909C132.149 121.819 132.04 121.699 131.962 121.558C131.885 121.418 131.842 121.261 131.837 121.101C131.829 120.793 131.924 120.492 132.106 120.245L132.176 120.14L131.451 120.315C131.054 120.466 130.621 120.486 130.212 120.372C129.804 120.258 129.443 120.017 129.181 119.683C129.098 119.556 129.041 119.414 129.015 119.265C128.989 119.116 128.994 118.963 129.029 118.816C129.086 118.594 129.173 118.381 129.287 118.183C129.019 118.272 128.737 118.308 128.456 118.288C128.105 118.285 127.768 118.153 127.507 117.918C127.246 117.683 127.081 117.36 127.041 117.011C127.05 116.667 127.16 116.333 127.357 116.05C127.45 115.898 127.544 115.734 127.661 115.57C126.269 116.32 125.52 115.992 125.122 115.57C124.456 114.867 124.678 113.742 125.695 112.711C126.92 111.367 128.312 110.186 129.836 109.196C133.942 106.711 137.054 108.598 140.13 110.918C141.382 111.867 143.897 114.679 144.025 116.894C144.059 117.25 144.013 117.609 143.892 117.945C143.77 118.281 143.576 118.587 143.323 118.839C142.772 119.276 142.085 119.505 141.382 119.484H141.136C139.662 119.706 138.238 120.182 136.925 120.89C135.934 121.385 134.905 121.8 133.849 122.132C133.644 122.167 133.436 122.179 133.229 122.167ZM134.831 119.331C134.123 119.682 133.522 120.216 133.088 120.878C133.018 120.995 133.006 121.042 132.995 121.042C132.983 121.042 133.287 121.042 133.568 120.948C134.564 120.635 135.534 120.243 136.469 119.776C137.901 119.006 139.457 118.49 141.066 118.253H141.335C141.748 118.273 142.157 118.162 142.505 117.937C142.642 117.806 142.746 117.644 142.807 117.465C142.868 117.285 142.885 117.093 142.856 116.906C142.75 115.195 140.516 112.64 139.428 111.797C136.469 109.57 133.93 108.024 130.445 110.145C129.015 111.09 127.714 112.216 126.573 113.496C126.152 113.929 125.812 114.515 126 114.668C126.187 114.82 126.596 114.726 127.169 114.433L129.965 112.922C130.482 112.521 131.064 112.212 131.685 112.008C131.823 111.964 131.973 111.973 132.104 112.034C132.236 112.095 132.341 112.202 132.398 112.336C132.457 112.47 132.463 112.622 132.415 112.761C132.368 112.9 132.27 113.016 132.141 113.086L130.597 113.918C129.727 114.66 128.998 115.553 128.444 116.554C128.373 116.648 128.321 116.756 128.292 116.871C128.292 116.871 128.421 117.023 128.585 117.035C128.892 117.021 129.192 116.937 129.462 116.788C130.374 116.39 131.076 116.039 131.802 115.687C132.13 115.487 132.474 115.315 132.831 115.171C133.287 114.937 133.79 114.703 134.375 114.445C134.512 114.386 134.667 114.382 134.807 114.432C134.948 114.481 135.065 114.582 135.135 114.714C135.204 114.847 135.219 115.002 135.178 115.145C135.136 115.289 135.042 115.412 134.913 115.488C134.485 115.742 134.034 115.958 133.568 116.132L133.31 116.238L132.433 116.683H132.363C131.392 117.281 130.234 118.593 130.246 119.027C130.421 119.237 130.714 119.237 131.24 119.109C132.328 118.851 133.404 118.534 134.469 118.183C134.786 118.027 135.12 117.906 135.463 117.82C135.608 117.786 135.761 117.808 135.891 117.882C136.021 117.956 136.119 118.076 136.165 118.218C136.21 118.361 136.199 118.516 136.134 118.651C136.069 118.787 135.954 118.892 135.814 118.944C135.439 119.12 135.135 119.237 134.831 119.355V119.331Z" fill="#231F20"/>
<path d="M96.0885 110.18C95.9946 110.18 95.9021 110.157 95.8188 110.114C95.7355 110.07 95.6639 110.007 95.61 109.93C95.5561 109.853 95.5214 109.765 95.509 109.671C95.4966 109.578 95.5068 109.483 95.5388 109.395C95.5388 109.395 100.218 96.2008 102.768 88.6547C102.828 88.5211 102.936 88.415 103.071 88.3573C103.205 88.2996 103.356 88.2946 103.494 88.3431C103.633 88.3917 103.747 88.4904 103.816 88.6196C103.885 88.7489 103.904 88.8994 103.867 89.0414C101.668 95.4274 98.0186 105.856 96.9424 108.961L106.3 108.012C106.377 108.004 106.455 108.011 106.529 108.033C106.603 108.056 106.672 108.092 106.732 108.141C106.792 108.19 106.841 108.251 106.878 108.319C106.914 108.387 106.936 108.462 106.944 108.539C106.952 108.616 106.944 108.693 106.922 108.766C106.9 108.84 106.863 108.908 106.814 108.967C106.765 109.026 106.705 109.075 106.636 109.11C106.568 109.145 106.494 109.166 106.417 109.172L96.147 110.227L96.0885 110.18Z" fill="#231F20"/>
<path d="M137.277 109.266C136.289 109.29 135.302 109.262 134.317 109.184C134.162 109.156 134.024 109.067 133.934 108.938C133.844 108.808 133.81 108.648 133.838 108.493C133.865 108.337 133.954 108.199 134.083 108.109C134.213 108.019 134.373 107.984 134.528 108.012C135.077 108.118 138.832 108.118 144.038 108.012C143.535 105.012 141.429 92.6505 140.704 86.9206C140.687 86.7674 140.73 86.6135 140.824 86.4913C140.917 86.369 141.055 86.2877 141.207 86.2645C141.284 86.2546 141.362 86.2603 141.437 86.2809C141.511 86.3016 141.581 86.337 141.642 86.385C141.703 86.4329 141.754 86.4926 141.792 86.5604C141.829 86.6282 141.853 86.7029 141.862 86.78C142.681 93.1895 145.289 108.27 145.371 108.422C145.383 108.505 145.378 108.589 145.355 108.67C145.333 108.751 145.295 108.826 145.242 108.891C145.192 108.958 145.126 109.013 145.051 109.052C144.976 109.09 144.894 109.111 144.81 109.114C141.827 109.219 139.183 109.266 137.277 109.266Z" fill="#231F20"/>
<path d="M135.031 56.6657C135.031 56.6657 139.359 48.0065 137.721 45.745C136.083 43.4835 134.96 44.292 134.949 44.3037C136.703 43.05 134.621 40.4369 133.498 39.5581C132.608 38.9109 131.621 38.4087 130.574 38.07C128.02 37.0615 125.306 36.5179 122.561 36.4647C119.799 36.4325 117.106 37.3276 114.911 39.0074C111.554 41.7259 110.478 45.1708 110.84 49.3774C111.098 52.3888 112.01 55.3885 112.186 58.3413C115.625 58.6811 119.099 59.1147 122.585 59.1967C125.357 59.267 133.428 59.8763 135.031 56.6657Z" fill="white"/>
<path d="M126.268 59.8881C125.239 59.8881 124.268 59.8881 123.449 59.8881H122.572C119.729 59.8178 116.863 59.5131 114.091 59.2319L112.126 59.021C111.984 59.0072 111.852 58.9428 111.753 58.8396C111.654 58.7364 111.596 58.6012 111.588 58.4585C111.453 56.9114 111.227 55.3736 110.909 53.8535C110.64 52.4357 110.36 50.971 110.231 49.5181C109.833 44.8311 111.202 41.3158 114.524 38.6208C116.825 36.8476 119.657 35.9061 122.56 35.9492C125.366 35.9997 128.139 36.5553 130.748 37.5896C131.852 37.9511 132.893 38.4807 133.836 39.1598C134.76 39.8863 136.176 41.6205 136.176 43.1554C136.174 43.3543 136.143 43.5518 136.082 43.7413C136.94 44.0821 137.666 44.6901 138.153 45.4755C140.036 48.0534 135.72 56.6189 135.521 57.0173C134.292 59.4779 129.894 59.8881 126.268 59.8881ZM112.746 57.7906L114.22 57.9429C116.957 58.2359 119.799 58.5288 122.595 58.5991H123.496C126.397 58.7046 133.205 58.9389 134.491 56.3728C135.848 53.6543 138.316 47.5729 137.229 46.0731C136.141 44.5733 135.532 44.6436 135.287 44.7842C135.156 44.8698 134.998 44.9029 134.844 44.8768C134.69 44.8508 134.552 44.7675 134.456 44.6436C134.363 44.5141 134.324 44.3532 134.349 44.1954C134.373 44.0376 134.457 43.8956 134.585 43.7999C134.714 43.7162 134.82 43.6016 134.893 43.4666C134.967 43.3316 135.005 43.1804 135.006 43.0266C134.771 41.8215 134.095 40.7477 133.111 40.0152C132.272 39.4137 131.345 38.9472 130.362 38.6325C127.879 37.6356 125.235 37.1034 122.56 37.0623C119.941 37.0054 117.379 37.8307 115.284 39.4058C112.29 41.8314 111.061 44.9717 111.424 49.2603C111.553 50.6547 111.822 52.0959 112.079 53.4786C112.38 54.9026 112.602 56.3421 112.746 57.7906Z" fill="#231F20"/>
<path d="M131.146 57.8729C132.024 54.1468 138.34 53.6781 137.697 58.0956C137.54 59.637 136.844 61.0732 135.732 62.1498C135.167 62.6699 134.462 63.0109 133.704 63.1297C132.946 63.2486 132.17 63.14 131.474 62.8177" fill="white"/>
<path d="M133.018 63.8018C132.379 63.8033 131.749 63.6505 131.181 63.3565C131.041 63.2796 130.937 63.1504 130.891 62.9969C130.845 62.8434 130.861 62.6779 130.936 62.5363C131.013 62.3956 131.142 62.2909 131.295 62.2448C131.448 62.1988 131.613 62.2151 131.755 62.2902C132.344 62.5536 132.998 62.6373 133.634 62.531C134.271 62.4248 134.862 62.1332 135.334 61.6926C136.336 60.7119 136.961 59.4094 137.1 58.0133C137.358 56.1971 136.27 55.6698 135.603 55.5878C134.771 55.4444 133.916 55.6123 133.2 56.0595C132.484 56.5068 131.957 57.2021 131.72 58.0133C131.682 58.1687 131.585 58.3029 131.449 58.3864C131.313 58.4699 131.149 58.4959 130.994 58.4586C130.839 58.4213 130.705 58.3238 130.622 58.1875C130.539 58.0513 130.513 57.8875 130.55 57.7321C130.853 56.6187 131.562 55.6595 132.536 55.0436C133.511 54.4276 134.68 54.1995 135.814 54.4043C136.234 54.4706 136.635 54.6244 136.992 54.8558C137.35 55.0871 137.654 55.391 137.887 55.7476C138.119 56.1043 138.275 56.5059 138.343 56.9264C138.411 57.3469 138.39 57.7771 138.282 58.1891C138.1 59.8703 137.334 61.434 136.118 62.6066C135.259 63.3603 134.16 63.7839 133.018 63.8018Z" fill="#231F20"/>
<path d="M115.589 56.7362C115.261 52.9163 109.085 51.5336 109.073 55.998C109.002 57.5437 109.483 59.0643 110.43 60.2866C110.912 60.8864 111.56 61.3292 112.293 61.5587C113.026 61.7882 113.811 61.7941 114.548 61.5755" fill="white"/>
<path d="M113.483 62.3605C112.812 62.348 112.151 62.1909 111.545 61.8997C110.94 61.6086 110.404 61.1902 109.974 60.6732C108.938 59.3363 108.404 57.6774 108.465 55.9861C108.414 55.56 108.453 55.1279 108.58 54.7179C108.707 54.308 108.918 53.9293 109.201 53.6066C109.483 53.2839 109.83 53.0243 110.219 52.8448C110.609 52.6653 111.031 52.5698 111.46 52.5646C112.6 52.5546 113.705 52.9622 114.567 53.711C115.428 54.4598 115.987 55.498 116.138 56.6306C116.148 56.7104 116.141 56.7913 116.119 56.8683C116.096 56.9453 116.057 57.0168 116.006 57.0784C115.954 57.1399 115.891 57.1902 115.819 57.226C115.747 57.2619 115.669 57.2826 115.589 57.2868C115.431 57.2966 115.276 57.2447 115.156 57.1419C115.036 57.0391 114.96 56.8936 114.945 56.7361C114.833 55.8935 114.411 55.1233 113.762 54.5752C113.113 54.0272 112.284 53.7407 111.436 53.7715C110.746 53.7715 109.6 54.1231 109.588 55.951C109.517 57.3478 109.931 58.7261 110.758 59.8529C111.162 60.3546 111.705 60.727 112.317 60.9247C112.93 61.1225 113.587 61.1368 114.208 60.9661C114.283 60.9383 114.362 60.9256 114.441 60.9288C114.521 60.9321 114.599 60.9512 114.671 60.985C114.743 61.0189 114.807 61.0668 114.86 61.1259C114.913 61.185 114.954 61.2542 114.98 61.3293C115.033 61.4801 115.025 61.6457 114.957 61.7904C114.889 61.935 114.767 62.0472 114.618 62.1027C114.255 62.2463 113.872 62.3332 113.483 62.3605Z" fill="#231F20"/>
<path d="M114.758 75.6015C115.322 76.822 116.215 77.8598 117.338 78.5971C118.461 79.3344 119.767 79.7418 121.109 79.773C122.48 79.9109 123.863 79.691 125.124 79.1345C126.385 78.578 127.48 77.704 128.303 76.5975V73.9376L128.21 67.7977V62.0443L116.957 61.2124L116.243 65.8994L116.021 67.411L114.758 75.6015Z" fill="white"/>
<path d="M121.812 80.394C121.567 80.394 121.321 80.394 121.064 80.394C119.6 80.3621 118.175 79.9145 116.956 79.1035C115.736 78.2924 114.771 77.1512 114.174 75.8125C114.145 75.713 114.145 75.6074 114.174 75.5078L116.373 61.107C116.399 60.958 116.479 60.824 116.598 60.7309C116.717 60.6377 116.866 60.5922 117.016 60.6032L128.269 61.4234C128.421 61.4324 128.564 61.4993 128.668 61.6104C128.773 61.7215 128.831 61.8684 128.831 62.021L128.913 76.5859C128.916 76.706 128.884 76.8244 128.819 76.9257C128.015 78.025 126.958 78.9142 125.739 79.5179C124.519 80.1217 123.172 80.4222 121.812 80.394ZM115.344 75.5196C115.889 76.6077 116.723 77.5239 117.755 78.1669C118.787 78.8099 119.977 79.1549 121.192 79.1637C122.428 79.2935 123.677 79.108 124.822 78.6245C125.968 78.141 126.972 77.3752 127.743 76.3984L127.661 62.5951L117.519 61.8452L115.344 75.5196Z" fill="#231F20"/>
<path d="M116.021 67.3641C116.876 68.8141 118.083 70.0236 119.531 70.8794C121.87 72.4026 125.379 74.172 128.327 73.9376L128.21 67.7977C126.041 67.906 123.866 67.7605 121.73 67.3641C119.823 67.1557 117.96 66.6497 116.209 65.8643L116.021 67.3641Z" fill="#231F20"/>
<path d="M127.742 74.5469C124.514 74.5469 121.016 72.5901 119.156 71.3714C117.646 70.4521 116.391 69.1666 115.507 67.6335C115.467 67.5198 115.467 67.3957 115.507 67.282L115.729 65.7705C115.74 65.6787 115.774 65.5912 115.827 65.5156C115.88 65.4399 115.951 65.3786 116.033 65.3369C116.117 65.2964 116.209 65.2754 116.302 65.2754C116.395 65.2754 116.487 65.2964 116.571 65.3369C118.266 66.0856 120.064 66.5715 121.905 66.7782C124.002 67.171 126.138 67.3126 128.269 67.2C128.347 67.1949 128.426 67.2057 128.5 67.2319C128.575 67.2581 128.643 67.299 128.701 67.3523C128.76 67.4085 128.806 67.4757 128.839 67.5502C128.871 67.6246 128.888 67.7048 128.888 67.7859V73.9376C128.889 74.0852 128.834 74.2275 128.734 74.3361C128.634 74.4447 128.497 74.5116 128.35 74.5234L127.742 74.5469ZM116.63 67.2586C117.424 68.5382 118.511 69.6105 119.8 70.3872C121.203 71.3128 124.666 73.3634 127.695 73.3751V68.3952C125.68 68.445 123.666 68.288 121.683 67.9265C119.995 67.7251 118.335 67.332 116.735 66.7547L116.63 67.2586Z" fill="#231F20"/>
<path d="M121.73 68.7583L122.736 68.8286C125.022 68.9964 127.281 68.2474 129.017 66.7466C130.752 65.2457 131.821 63.1159 131.988 60.8256L132.994 47.1629L122.888 48.8971L114.7 45.8154L113.705 59.4898C113.621 60.6269 113.762 61.7695 114.12 62.8519C114.478 63.9342 115.047 64.9349 115.793 65.7964C116.538 66.6578 117.447 67.363 118.466 67.8713C119.485 68.3797 120.594 68.6811 121.73 68.7583Z" fill="white"/>
<path d="M123.39 69.4613H122.7L121.694 69.3793C119.248 69.1994 116.974 68.0542 115.371 66.1955C113.767 64.3367 112.966 61.9164 113.143 59.4663L114.173 45.7685C114.179 45.6756 114.208 45.5855 114.255 45.5055C114.303 45.4255 114.369 45.3577 114.447 45.3076C114.525 45.2575 114.614 45.2265 114.707 45.217C114.799 45.2075 114.893 45.2198 114.98 45.2529L122.969 48.2643L132.912 46.5653C133.003 46.5497 133.096 46.5542 133.185 46.5785C133.274 46.6028 133.356 46.6463 133.427 46.7059C133.493 46.7687 133.544 46.8455 133.576 46.9306C133.608 47.0158 133.621 47.1072 133.614 47.198L132.619 60.8724C132.448 63.2028 131.405 65.3826 129.698 66.9752C127.991 68.5678 125.746 69.4558 123.414 69.4613H123.39ZM121.776 68.1489L122.782 68.231C123.837 68.3076 124.896 68.1752 125.9 67.8415C126.903 67.5078 127.831 66.9793 128.631 66.2861C129.43 65.5929 130.086 64.7487 130.559 63.8017C131.033 62.8547 131.316 61.8234 131.391 60.7669L132.339 47.8776L122.981 49.4829C122.877 49.5058 122.769 49.5058 122.665 49.4829L115.342 46.7059L114.395 59.5952C114.317 60.6495 114.447 61.7089 114.778 62.7127C115.11 63.7165 115.635 64.645 116.325 65.445C117.015 66.245 117.856 66.9008 118.799 67.3748C119.743 67.8489 120.77 68.1318 121.823 68.2075L121.776 68.1489Z" fill="#231F20"/>
<path d="M123.462 62.1378C122.728 62.1351 121.997 62.0685 121.275 61.9386C121.119 61.9048 120.982 61.8109 120.895 61.6772C120.807 61.5434 120.775 61.3806 120.807 61.2238C120.822 61.1457 120.853 61.0714 120.897 61.0053C120.941 60.9392 120.998 60.8827 121.065 60.839C121.131 60.7954 121.206 60.7654 121.284 60.751C121.362 60.7366 121.443 60.738 121.52 60.7551C122.239 60.8785 122.967 60.9373 123.696 60.9309C123.649 58.9647 123.29 57.0186 122.631 55.1659C122.585 55.0105 122.602 54.8429 122.679 54.7001C122.755 54.5573 122.886 54.4508 123.041 54.4042C123.196 54.3576 123.363 54.3746 123.506 54.4515C123.648 54.5284 123.755 54.6589 123.801 54.8143C124.316 56.5251 125.427 60.6731 124.655 61.7277C124.577 61.8464 124.471 61.9445 124.347 62.0138C124.223 62.0831 124.084 62.1216 123.942 62.1261L123.462 62.1378Z" fill="#231F20"/>
<path d="M127.574 53.5936C127.633 52.7868 127.415 52.1132 127.086 52.0891C126.758 52.0649 126.444 52.6993 126.384 53.506C126.325 54.3128 126.544 54.9864 126.872 55.0106C127.201 55.0347 127.515 54.4003 127.574 53.5936Z" fill="#231F20"/>
<path d="M119.928 52.6614C119.987 51.8547 119.769 51.1811 119.44 51.1569C119.111 51.1328 118.797 51.7672 118.738 52.5739C118.679 53.3807 118.897 54.0543 119.226 54.0784C119.554 54.1026 119.869 53.4682 119.928 52.6614Z" fill="#231F20"/>
<path d="M122.947 65.0205H122.655C121.451 64.8925 120.285 64.52 119.229 63.9256C118.173 63.3313 117.249 62.5277 116.514 61.5638C116.466 61.5002 116.432 61.4278 116.412 61.3507C116.393 61.2736 116.389 61.1935 116.401 61.1149C116.413 61.0364 116.441 60.961 116.482 60.8932C116.524 60.8254 116.578 60.7666 116.643 60.7202C116.77 60.6256 116.93 60.5849 117.088 60.6068C117.245 60.6287 117.388 60.7115 117.485 60.8373C118.121 61.6587 118.914 62.345 119.818 62.856C120.722 63.367 121.718 63.6925 122.749 63.8136C124.924 63.8839 127.112 62.7004 129.264 60.2983C129.374 60.1949 129.518 60.1362 129.669 60.1334C129.82 60.1306 129.966 60.1841 130.08 60.2833C130.194 60.3826 130.267 60.5206 130.284 60.6706C130.302 60.8206 130.264 60.9719 130.176 61.0951C127.825 63.6847 125.404 65.0205 122.947 65.0205Z" fill="#231F20"/>
<path d="M330.025 145.871C328.037 132.501 301.951 126.807 301.951 126.807C301.951 126.807 293.763 88.7483 289.026 72.4141C282.756 50.514 279.598 29.5162 246.272 24.5949C212.946 19.6735 130.737 21.1734 107.634 24.5949C84.5321 28.0164 83.3857 24.5949 71.2672 46.6004C59.1487 68.6059 49.2528 126.807 49.2528 126.807C49.2528 126.807 31.1218 137.06 26.0568 147.582C20.9919 158.104 30.0222 204.506 33.7186 216.457C37.415 228.409 41.0997 232.675 51.9081 232.675C62.7164 232.675 288.839 235.522 309.005 229.546C329.171 223.57 332.014 159.253 330.025 145.871ZM286.85 111.152C286.452 115.429 285.68 118.651 280.569 120.257C278.027 120.963 275.404 121.329 272.766 121.346C272.018 121.346 271.222 121.346 270.368 121.346H76.3439C76.1038 121.345 75.8646 121.317 75.6304 121.264C73.2909 120.843 68.7523 118.323 67.0562 111.668C65.1612 104.262 79.2098 56.033 83.5612 45.206C88.17 33.7345 123.753 29.4108 166.671 29.7506C207.074 30.0669 257.911 32.3987 264.929 37.8122C271.948 43.2257 287.412 104.895 286.85 111.152Z" fill="#FEBB1B"/>
<path d="M118.666 198.811C118.666 198.811 109.577 168.65 109.858 165.51C110.139 162.369 112.408 158.397 114.256 157.835C116.104 157.272 234.002 156.405 236.845 158.397C239.687 160.389 241.395 163.518 241.114 165.803C240.834 168.088 235.71 195.401 234.295 198.811C232.879 202.221 123.532 204.787 118.666 198.811Z" fill="black"/>
<path d="M246.986 190.363C246.986 190.363 247.735 168.556 266.486 161.338C285.237 154.12 311.942 154.132 314.784 158.69C317.627 163.248 318.387 178.985 300.748 186.004C283.108 193.023 257.151 192.378 246.986 190.363Z" fill="white"/>
<path d="M264.614 192.308C258.67 192.384 252.732 191.929 246.869 190.949C246.733 190.921 246.611 190.846 246.525 190.736C246.439 190.627 246.395 190.49 246.401 190.351C246.401 190.129 247.383 168.088 266.286 160.8C284.78 153.687 312.105 153.265 315.287 158.374C316.936 161.011 317.685 166.576 315.907 171.943C314.421 176.489 310.619 182.711 300.993 186.555C290.102 190.89 276.136 192.308 264.614 192.308ZM247.594 189.894C257.888 191.781 283.201 192.378 300.548 185.465C309.766 181.786 313.415 175.88 314.784 171.58C316.644 165.908 315.509 160.94 314.292 158.995C311.661 154.789 285.049 154.835 266.696 161.889C250.097 168.275 247.863 186.625 247.594 189.894Z" fill="#231F20"/>
<path d="M105.506 191.886C105.506 191.886 101.529 163.623 82.9655 160.249C64.4017 156.874 41.6737 153.218 37.3457 160.249C33.0176 167.279 35.0764 179.606 47.0077 184.539C58.939 189.472 96.2186 193.972 105.506 191.886Z" fill="white"/>
<path d="M98.4633 192.999C83.865 192.999 56.5282 189.074 46.7609 185.031C44.1374 184.028 41.7669 182.458 39.818 180.432C37.869 178.407 36.3895 175.977 35.4846 173.314C34.737 171.109 34.4702 168.77 34.7023 166.453C34.9343 164.137 35.6598 161.897 36.8298 159.885C41.3333 152.621 63.0553 155.937 83.0696 159.616C90.86 161.046 97.3053 167.092 101.785 177.075C103.831 181.784 105.293 186.727 106.137 191.792C106.158 191.938 106.125 192.086 106.042 192.207C105.96 192.329 105.835 192.415 105.692 192.448C103.308 192.878 100.885 193.062 98.4633 192.999ZM50.9135 156.745C44.5735 156.745 39.5553 157.718 37.8124 160.507C36.7404 162.378 36.0813 164.459 35.8796 166.607C35.6778 168.756 35.938 170.923 36.6426 172.962C37.491 175.462 38.8811 177.743 40.7134 179.641C42.5457 181.54 44.7747 183.008 47.2405 183.942C58.4115 188.558 94.7553 193.234 104.874 191.417C104.195 187.504 99.4108 163.823 82.8941 160.776C74.1796 159.194 60.9147 156.745 50.9135 156.745Z" fill="#231F20"/>
<path d="M222.655 215.321H128.877C124.193 215.321 120.396 219.125 120.396 223.816V235.85C120.396 240.542 124.193 244.346 128.877 244.346H222.655C227.339 244.346 231.136 240.542 231.136 235.85V223.816C231.136 219.125 227.339 215.321 222.655 215.321Z" fill="white"/>
<path d="M222.656 244.931H128.878C126.475 244.928 124.171 243.971 122.471 242.268C120.772 240.566 119.816 238.258 119.812 235.85V223.816C119.816 221.409 120.772 219.101 122.471 217.399C124.171 215.696 126.475 214.738 128.878 214.735H222.656C225.059 214.738 227.363 215.696 229.063 217.399C230.762 219.101 231.718 221.409 231.721 223.816V235.85C231.718 238.258 230.762 240.566 229.063 242.268C227.363 243.971 225.059 244.928 222.656 244.931ZM128.878 215.907C126.784 215.907 124.776 216.74 123.295 218.224C121.814 219.707 120.982 221.719 120.982 223.816V235.85C120.985 237.947 121.818 239.957 123.298 241.44C124.778 242.922 126.785 243.757 128.878 243.76H222.656C224.749 243.757 226.756 242.922 228.236 241.44C229.716 239.957 230.549 237.947 230.552 235.85V223.816C230.552 221.719 229.72 219.707 228.239 218.224C226.758 216.74 224.75 215.907 222.656 215.907H128.878Z" fill="#231F20"/>
<path d="M44.8089 220.442C44.8089 220.442 45.0896 208.49 49.6282 205.924C54.1668 203.357 87.9839 204.752 91.7388 205.924C95.4937 207.095 100.828 219.012 100.254 220.442C99.6813 221.871 96.2774 223.851 95.4352 223.57C94.5929 223.289 44.4228 224.695 44.8089 220.442Z" fill="white"/>
<path d="M95.5285 224.179C95.4128 224.18 95.298 224.16 95.1892 224.121C94.9436 224.121 92.3702 224.121 89.3405 224.121C67.5132 224.25 46.9843 224.004 44.5045 221.309C44.3857 221.19 44.294 221.046 44.2354 220.889C44.1769 220.731 44.153 220.562 44.1652 220.395C44.1652 219.703 44.5512 208.068 49.2887 205.408C54.0261 202.748 88.3346 204.236 91.797 205.408C94.7213 206.31 97.8679 212.509 98.8154 214.384C99.3769 215.555 101.155 219.539 100.734 220.699C100.139 221.596 99.3729 222.365 98.4794 222.962C97.5858 223.559 96.5828 223.973 95.5285 224.179ZM93.4931 222.937C94.1802 222.885 94.8711 222.913 95.5519 223.019C96.1367 223.09 99.1663 221.437 99.6576 220.219C99.9618 218.918 94.8968 207.529 91.4695 206.486C87.7965 205.314 54.2484 203.978 49.8853 206.486C45.5221 208.993 45.3584 220.383 45.3584 220.547C46.0719 222.363 60.8808 223.195 89.3639 223.031L93.4931 222.937Z" fill="#231F20"/>
<path d="M311.275 220.442C311.275 220.442 310.994 208.49 306.456 205.924C301.917 203.357 268.1 204.752 264.404 205.924C260.707 207.095 255.315 219.012 255.888 220.442C256.461 221.871 259.865 223.851 260.707 223.57C261.549 223.289 311.661 224.695 311.275 220.442Z" fill="white"/>
<path d="M260.52 224.191C258.397 223.753 256.533 222.489 255.338 220.676C254.882 219.504 256.695 215.544 257.257 214.36C258.158 212.486 261.304 206.287 264.275 205.385C267.785 204.319 301.929 202.702 306.784 205.385C311.638 208.068 311.895 219.68 311.907 220.372C311.919 220.539 311.895 220.708 311.837 220.866C311.778 221.023 311.687 221.167 311.568 221.286C309.088 223.981 288.559 224.227 266.732 224.098C263.761 224.098 261.187 224.098 260.883 224.098C260.767 224.147 260.645 224.178 260.52 224.191ZM290.15 205.068C279.306 205.068 266.755 205.818 264.579 206.486C261.187 207.529 256.122 218.919 256.391 220.243C256.66 221.567 259.9 223.102 260.497 223.008C262.546 222.891 264.601 222.891 266.65 223.008C295.18 223.184 309.989 222.34 310.655 220.512C310.655 220.395 310.328 208.865 306.129 206.451C304.374 205.432 297.683 205.068 290.15 205.068Z" fill="#231F20"/>
<path d="M226.912 167.584H123.426C122.767 167.584 122.232 168.116 122.232 168.773C122.232 169.43 122.767 169.963 123.426 169.963H226.912C227.571 169.963 228.105 169.43 228.105 168.773C228.105 168.116 227.571 167.584 226.912 167.584Z" fill="white"/>
<path d="M226.912 176.583H123.426C122.767 176.583 122.232 177.115 122.232 177.772C122.232 178.429 122.767 178.962 123.426 178.962H226.912C227.571 178.962 228.105 178.429 228.105 177.772C228.105 177.115 227.571 176.583 226.912 176.583Z" fill="white"/>
<path d="M226.912 185.582H123.426C122.767 185.582 122.232 186.115 122.232 186.771C122.232 187.428 122.767 187.961 123.426 187.961H226.912C227.571 187.961 228.105 187.428 228.105 186.771C228.105 186.115 227.571 185.582 226.912 185.582Z" fill="white"/>
<path d="M32.2099 149.41C32.0548 149.41 31.906 149.348 31.7963 149.239C31.6866 149.129 31.625 148.98 31.625 148.824C31.625 148.669 31.6866 148.52 31.7963 148.41C31.906 148.3 32.0548 148.238 32.2099 148.238C33.4849 148.238 161.606 148.238 322.948 145.368C323.1 145.373 323.244 145.435 323.352 145.541C323.46 145.648 323.525 145.79 323.533 145.942C323.535 146.019 323.521 146.095 323.493 146.167C323.465 146.239 323.424 146.304 323.37 146.36C323.317 146.415 323.253 146.46 323.183 146.49C323.113 146.521 323.037 146.538 322.96 146.539C161.618 149.375 33.4615 149.41 32.2099 149.41Z" fill="#231F20"/>
<path d="M277.538 121.909H75.6298C75.4747 121.909 75.3259 121.847 75.2162 121.737C75.1065 121.628 75.0449 121.479 75.0449 121.323C75.0479 121.169 75.1105 121.021 75.2195 120.912C75.3286 120.803 75.4756 120.74 75.6298 120.737H277.538C277.693 120.737 277.842 120.799 277.952 120.909C278.062 121.019 278.123 121.168 278.123 121.323C278.123 121.479 278.062 121.628 277.952 121.737C277.842 121.847 277.693 121.909 277.538 121.909Z" fill="#231F20"/>
<path d="M291.973 112.547C291.564 117.046 290.745 120.421 285.387 122.108C282.722 122.859 279.968 123.253 277.199 123.28C276.415 123.28 275.573 123.28 274.684 123.28H71.0094C70.7615 123.279 70.5145 123.251 70.2724 123.198C67.8043 122.741 63.0434 120.104 61.2654 113.121C59.2769 105.352 74.0156 57.779 78.601 46.413C83.432 34.4025 120.793 27.5595 165.84 27.9579C208.255 28.286 261.572 33.0316 269.023 38.7146C276.474 44.3976 292.593 105.973 291.973 112.547Z" fill="#35383F"/>
<path d="M189.81 33.3247H163.631C161.893 33.3247 160.484 34.7359 160.484 36.4767V39.2655C160.484 41.0063 161.893 42.4175 163.631 42.4175H189.81C191.548 42.4175 192.956 41.0063 192.956 39.2655V36.4767C192.956 34.7359 191.548 33.3247 189.81 33.3247Z" fill="#FEBB1B"/>
<path d="M174.614 29.0127C174.614 29.0127 174.228 34.9652 174.954 35.7385C175.389 36.154 175.967 36.3858 176.568 36.3858C177.169 36.3858 177.747 36.154 178.182 35.7385C179.071 34.7894 178.907 29.0127 178.907 29.0127H174.614Z" fill="black"/>
<path d="M280.276 120.269C277.741 120.969 275.126 121.335 272.497 121.358C271.737 121.358 270.93 121.358 270.088 121.358H76.0046C75.7691 121.355 75.5343 121.331 75.3027 121.288C76.683 110.074 80.087 89.9437 86.8013 87.4947C89.8403 86.7605 92.9515 86.3674 96.0773 86.323C108.02 85.5848 128.421 85.7254 145.803 86.323C162.437 86.9089 176.31 87.9166 177.386 88.9594C178.938 90.4951 179.952 92.493 180.275 94.6541C180.275 94.6541 180.275 89.8148 183.679 88.6782C185.13 88.1861 200.851 86.9792 218.771 86.241C236.692 85.5028 256.717 85.2215 266.812 86.6042C270.322 87.0846 272.579 87.776 273.199 88.6782C276.053 92.9199 278.767 109.805 280.276 120.269Z" fill="#1F222A"/>
<path d="M40.9713 105.751C40.9713 105.751 19.3779 100.255 12.7572 110.438C6.13651 120.62 12.1841 125.612 22.9807 126.749C33.7774 127.885 40.597 128.647 42.6791 126.749C44.7613 124.85 44.3753 108.352 42.6791 107.028L40.9713 105.751Z" fill="black"/>
<path d="M42.1993 123.491L53.1831 125.389L51.3934 130.135L37.9414 126.818L42.1993 123.491Z" fill="black"/>
<path d="M308.701 105.751C308.701 105.751 330.294 100.255 336.926 110.438C343.559 120.62 337.488 125.612 326.691 126.749C315.894 127.885 309.075 128.647 306.993 126.749C304.911 124.85 305.297 108.352 306.993 107.028L308.701 105.751Z" fill="black"/>
<path d="M307.472 123.491L296.488 125.389L298.278 130.135L311.73 126.818L307.472 123.491Z" fill="black"/>
<path d="M31.8828 202.701H66.7293V249.642C66.72 252.383 65.6265 255.008 63.6883 256.943C61.7501 258.878 59.1252 259.965 56.3888 259.965H42.2116C39.4691 259.965 36.839 258.873 34.8998 256.931C32.9605 254.988 31.8711 252.354 31.8711 249.606V202.701H31.8828Z" fill="black"/>
<path d="M283.236 202.701H318.083V249.642C318.083 252.389 316.993 255.023 315.054 256.966C313.115 258.909 310.485 260 307.742 260H293.577C290.834 260 288.204 258.909 286.265 256.966C284.326 255.023 283.236 252.389 283.236 249.642V202.701Z" fill="black"/>
<path d="M102.312 59.4077H140.727C144.995 59.4077 149.089 61.1064 152.108 64.1301C155.126 67.1538 156.822 71.2549 156.822 75.531V130.135H86.2168V75.531C86.2168 73.4137 86.6331 71.3171 87.442 69.3609C88.2509 67.4047 89.4365 65.6273 90.9311 64.1301C92.4257 62.6329 94.2001 61.4453 96.1529 60.635C98.1057 59.8248 100.199 59.4077 102.312 59.4077Z" fill="black"/>
<path d="M214.889 59.4077H253.303C257.572 59.4077 261.666 61.1064 264.684 64.1301C267.703 67.1538 269.398 71.2549 269.398 75.531V130.135H198.793V75.531C198.793 71.2549 200.489 67.1538 203.507 64.1301C206.526 61.1064 210.62 59.4077 214.889 59.4077Z" fill="black"/>
<path d="M86.4269 138.021C85.4282 131.701 84.8149 125.327 84.5904 118.933C79.3383 119.015 90.0999 82.9248 97.5394 77.9214C111.062 68.7701 132.573 64.8213 146.832 81.5421C151.336 86.8267 161.021 101.931 159.828 114.14C159.489 117.562 155.149 118.956 150.248 119.038C149.403 126.274 149.18 133.57 149.581 140.844L86.4269 138.021Z" fill="#FEBB1B"/>
<path d="M127.954 75.6603L123.965 99.8804L120.9 110.52L117.824 99.8569L114.432 75.6017C118.821 74.1208 123.577 74.1414 127.954 75.6603Z" fill="#231F20"/>
<path d="M120.9 85.7255L117.285 82.9367L120.9 80.1362L124.514 82.9367L120.9 85.7255Z" fill="#F75555"/>
<path d="M123.975 99.8801L120.899 110.531L117.822 99.8567L119.682 84.2021L119.729 83.8857H122.08L122.115 84.2255L123.975 99.8801Z" fill="#F75555"/>
<path d="M136.398 108.68C119.472 95.0642 103.224 74.0664 103.224 74.0664C101.196 74.5723 99.3209 75.5657 97.7617 76.9606C101.072 84.7879 116.478 100.126 129.544 110.449C131.71 109.469 134.029 108.871 136.398 108.68Z" fill="black"/>
<path d="M119.625 106.758C114.491 106.757 109.525 108.588 105.617 111.923C101.71 115.258 99.1156 119.878 98.3008 124.956H104.5C105.275 121.515 107.195 118.442 109.945 116.239C112.695 114.037 116.11 112.837 119.631 112.837C123.152 112.837 126.567 114.037 129.317 116.239C132.067 118.442 133.987 121.515 134.762 124.956H140.961C140.144 119.877 137.547 115.257 133.638 111.922C129.728 108.587 124.76 106.757 119.625 106.758Z" fill="#7A5548"/>
<path d="M110.851 110.426C112.334 111.425 113.686 112.606 114.875 113.941C115.425 114.503 116.045 115.417 115.437 115.98C114.829 116.542 114.185 116.167 113.6 115.851L109.19 113.507C110.895 114.228 112.288 115.532 113.121 117.187C113.255 117.377 113.336 117.599 113.355 117.831C113.324 118.031 113.224 118.214 113.072 118.347C112.92 118.48 112.726 118.555 112.524 118.558C112.115 118.564 111.712 118.463 111.354 118.265C109.401 117.409 108.418 116.777 106.465 115.921C107.483 116.542 107.986 116.519 109.003 117.093C110.021 117.667 111.822 119.437 111.343 120.163C111.145 120.396 110.879 120.56 110.583 120.632C110.286 120.703 109.975 120.679 109.693 120.561C108.256 120.221 106.842 119.79 105.459 119.272C106.671 119.573 107.724 120.323 108.407 121.37C108.515 121.516 108.576 121.692 108.582 121.874C108.582 122.413 107.787 122.471 107.272 122.331C104.745 121.616 102.499 119.894 99.8793 119.659C99.2291 119.708 98.5816 119.535 98.0428 119.167C96.1712 117.351 99.7155 113.308 101.178 112.137C104.313 109.781 107.155 108.153 110.851 110.426Z" fill="white"/>
<path d="M107.786 122.952C107.573 122.949 107.361 122.921 107.155 122.87C106.098 122.539 105.069 122.124 104.078 121.628C102.77 120.919 101.349 120.444 99.8789 120.222H99.6332C98.9299 120.246 98.2412 120.017 97.6915 119.577C97.4316 119.329 97.2321 119.025 97.1084 118.688C96.9847 118.351 96.94 117.989 96.9779 117.632C97.1183 115.417 99.6215 112.605 100.873 111.668C103.961 109.324 107.073 107.449 111.179 109.934C112.698 110.93 114.089 112.111 115.319 113.449C116.325 114.492 116.489 115.605 115.881 116.308C115.495 116.706 114.711 117.034 113.354 116.308L113.658 116.788C113.845 117.076 113.954 117.407 113.974 117.749C113.941 118.095 113.784 118.417 113.532 118.656C113.281 118.894 112.952 119.034 112.606 119.05C112.321 119.07 112.035 119.034 111.763 118.944C111.885 119.139 111.972 119.353 112.021 119.577C112.061 119.723 112.069 119.876 112.045 120.026C112.021 120.176 111.965 120.318 111.88 120.444C111.617 120.776 111.256 121.016 110.849 121.132C110.442 121.247 110.009 121.232 109.611 121.089L108.886 120.901L108.956 121.007C109.135 121.26 109.229 121.563 109.225 121.874C109.213 122.032 109.166 122.186 109.087 122.324C109.008 122.462 108.899 122.58 108.769 122.67C108.479 122.865 108.135 122.963 107.786 122.952ZM107.307 109.98C105.306 109.98 103.528 111.152 101.552 112.64C100.452 113.484 98.2295 116.038 98.1243 117.749C98.1024 117.936 98.1226 118.126 98.1833 118.304C98.244 118.483 98.3437 118.645 98.4752 118.78C98.824 119.002 99.232 119.113 99.6449 119.097H99.9023C101.516 119.322 103.077 119.834 104.511 120.608C105.446 121.074 106.416 121.466 107.412 121.78C107.588 121.827 107.774 121.827 107.95 121.78L107.892 121.686C107.456 121.025 106.85 120.494 106.137 120.151L105.236 119.823C105.097 119.768 104.983 119.663 104.917 119.529C104.85 119.395 104.834 119.241 104.874 119.097C104.92 118.954 105.017 118.834 105.147 118.761C105.277 118.687 105.43 118.665 105.576 118.698C105.921 118.789 106.257 118.911 106.581 119.061C107.634 119.425 108.722 119.729 109.798 119.987C110.325 120.116 110.629 120.128 110.828 119.823C110.306 118.917 109.566 118.155 108.675 117.609H108.605L107.74 117.163L107.482 117.07C107.013 116.888 106.559 116.669 106.125 116.413C105.987 116.342 105.883 116.218 105.836 116.07C105.789 115.922 105.802 115.761 105.874 115.622C105.945 115.484 106.068 115.38 106.216 115.333C106.365 115.285 106.525 115.299 106.663 115.37C107.248 115.628 107.751 115.874 108.219 116.097C108.574 116.245 108.918 116.417 109.248 116.613C109.939 116.964 110.629 117.316 111.588 117.714C111.858 117.862 112.158 117.95 112.465 117.972C112.524 117.967 112.581 117.948 112.632 117.918C112.683 117.888 112.726 117.846 112.758 117.796C112.723 117.683 112.672 117.577 112.606 117.48C112.051 116.476 111.318 115.582 110.442 114.843L108.909 114.011C108.772 113.947 108.666 113.832 108.612 113.69C108.558 113.549 108.561 113.392 108.62 113.252C108.679 113.113 108.789 113.002 108.928 112.942C109.067 112.883 109.224 112.88 109.365 112.933C109.986 113.143 110.568 113.456 111.085 113.859L113.869 115.359C114.419 115.652 114.863 115.745 115.039 115.593C115.214 115.441 114.898 114.808 114.477 114.421C113.322 113.133 112.009 111.995 110.57 111.035C109.604 110.38 108.472 110.014 107.307 109.98Z" fill="#231F20"/>
<path d="M129.848 109.641C128.361 110.633 127.008 111.815 125.824 113.156C125.275 113.719 124.655 114.632 125.251 115.195C125.848 115.757 126.515 115.382 127.088 115.066L131.498 112.723C129.794 113.44 128.404 114.745 127.579 116.402C127.445 116.592 127.364 116.814 127.345 117.046C127.373 117.247 127.473 117.431 127.625 117.565C127.778 117.698 127.973 117.772 128.176 117.773C128.584 117.775 128.986 117.674 129.345 117.48C131.299 116.624 132.281 115.992 134.223 115.136C133.217 115.757 132.714 115.734 131.697 116.308C130.679 116.882 128.877 118.652 129.357 119.378C129.553 119.613 129.819 119.778 130.116 119.849C130.413 119.921 130.725 119.896 131.006 119.776C132.44 119.436 133.85 119.005 135.229 118.488C134.02 118.789 132.971 119.538 132.293 120.585C132.185 120.731 132.124 120.907 132.118 121.089C132.118 121.628 132.913 121.686 133.428 121.546C135.954 120.831 138.2 119.109 140.82 118.874C141.467 118.923 142.11 118.749 142.645 118.382C144.517 116.566 140.973 112.453 139.51 111.352C136.399 108.985 133.603 107.368 129.848 109.641Z" fill="#FFE4A4"/>
<path d="M132.889 122.167C132.551 122.179 132.216 122.09 131.93 121.909C131.799 121.817 131.691 121.696 131.614 121.556C131.537 121.416 131.493 121.26 131.485 121.101C131.477 120.793 131.572 120.492 131.754 120.245L131.824 120.14L131.099 120.315C130.703 120.466 130.269 120.486 129.861 120.372C129.453 120.258 129.091 120.017 128.83 119.683C128.746 119.556 128.69 119.414 128.664 119.265C128.637 119.116 128.642 118.963 128.678 118.816C128.735 118.594 128.822 118.381 128.935 118.183C128.668 118.272 128.386 118.308 128.105 118.288C127.758 118.273 127.429 118.133 127.178 117.894C126.926 117.655 126.769 117.333 126.736 116.988C126.751 116.644 126.86 116.312 127.052 116.027L127.356 115.546C125.964 116.296 125.215 115.968 124.818 115.546C124.151 114.843 124.373 113.718 125.391 112.687C126.616 111.344 128.007 110.162 129.532 109.172C133.637 106.688 136.749 108.574 139.825 110.895C141.077 111.844 143.592 114.656 143.721 116.871C143.754 117.227 143.708 117.585 143.587 117.922C143.466 118.258 143.272 118.563 143.019 118.816C142.469 119.255 141.78 119.483 141.077 119.46H140.831C139.357 119.683 137.933 120.158 136.62 120.866C135.629 121.361 134.601 121.777 133.544 122.108C133.329 122.155 133.109 122.174 132.889 122.167ZM134.48 119.331C133.774 119.686 133.173 120.219 132.737 120.878C132.667 120.995 132.655 121.042 132.643 121.042C132.631 121.042 132.936 121.042 133.216 120.948C134.213 120.637 135.184 120.245 136.117 119.776C137.55 119.006 139.106 118.49 140.714 118.253H140.983C141.397 118.273 141.806 118.162 142.153 117.937C142.291 117.806 142.394 117.644 142.456 117.465C142.517 117.285 142.533 117.093 142.504 116.906C142.41 115.195 140.165 112.64 139.077 111.797C136.117 109.57 133.579 108.024 130.093 110.145C128.652 111.102 127.339 112.24 126.186 113.531C125.765 113.965 125.426 114.55 125.613 114.703C125.8 114.855 126.21 114.761 126.783 114.468L129.567 112.957C130.084 112.557 130.665 112.248 131.286 112.043C131.425 111.999 131.574 112.009 131.706 112.069C131.838 112.13 131.943 112.237 132 112.371C132.059 112.506 132.065 112.657 132.017 112.796C131.969 112.935 131.871 113.051 131.742 113.121L130.198 113.953C129.329 114.695 128.6 115.588 128.046 116.589C127.977 116.685 127.925 116.792 127.894 116.906C127.894 116.906 128.023 117.058 128.186 117.07C128.495 117.062 128.796 116.978 129.064 116.824C129.976 116.425 130.678 116.074 131.403 115.722C131.732 115.522 132.076 115.35 132.433 115.207C132.889 114.972 133.392 114.738 133.977 114.48C134.114 114.422 134.268 114.417 134.409 114.467C134.55 114.517 134.667 114.618 134.737 114.75C134.806 114.883 134.821 115.037 134.779 115.181C134.738 115.324 134.643 115.447 134.515 115.523C134.086 115.777 133.636 115.993 133.17 116.167L132.912 116.273L132.035 116.718H131.965C130.994 117.316 129.836 118.628 129.847 119.062C129.859 119.495 130.327 119.273 130.842 119.144C131.93 118.886 133.006 118.57 134.07 118.218C134.391 118.061 134.729 117.939 135.076 117.855C135.231 117.81 135.398 117.828 135.539 117.906C135.681 117.984 135.786 118.115 135.831 118.271C135.876 118.426 135.857 118.593 135.779 118.735C135.701 118.877 135.571 118.981 135.415 119.027C135.111 119.12 134.807 119.237 134.503 119.355L134.48 119.331Z" fill="#231F20"/>
<path d="M95.7624 110.18C95.6685 110.18 95.576 110.157 95.4927 110.114C95.4094 110.07 95.3377 110.007 95.2838 109.93C95.2299 109.853 95.1953 109.765 95.1829 109.671C95.1705 109.578 95.1806 109.483 95.2126 109.395C95.2126 109.395 99.8915 96.2008 102.442 88.6547C102.502 88.5211 102.61 88.415 102.744 88.3573C102.879 88.2996 103.03 88.2946 103.168 88.3431C103.306 88.3917 103.421 88.4904 103.49 88.6196C103.559 88.7489 103.577 88.8994 103.541 89.0414C101.342 95.4274 97.6924 105.856 96.6163 108.961L105.974 108.012C106.051 108.004 106.129 108.011 106.203 108.033C106.277 108.056 106.346 108.092 106.406 108.141C106.465 108.19 106.515 108.251 106.551 108.319C106.588 108.387 106.61 108.462 106.618 108.539C106.626 108.616 106.618 108.693 106.596 108.766C106.574 108.84 106.537 108.908 106.488 108.967C106.439 109.026 106.378 109.075 106.31 109.11C106.242 109.145 106.168 109.166 106.091 109.172L95.8208 110.227L95.7624 110.18Z" fill="#231F20"/>
<path d="M136.948 109.266C135.961 109.29 134.973 109.262 133.989 109.184C133.834 109.156 133.696 109.067 133.606 108.938C133.516 108.808 133.481 108.648 133.509 108.493C133.537 108.337 133.626 108.199 133.755 108.109C133.885 108.019 134.044 107.984 134.2 108.012C134.749 108.118 138.504 108.118 143.721 108.012C143.207 105.012 141.101 92.6505 140.376 86.9206C140.359 86.7674 140.402 86.6135 140.496 86.4913C140.589 86.369 140.727 86.2877 140.879 86.2645C140.956 86.2546 141.034 86.2603 141.108 86.2809C141.183 86.3016 141.253 86.337 141.314 86.385C141.375 86.4329 141.426 86.4926 141.463 86.5604C141.501 86.6282 141.525 86.7029 141.534 86.78C142.364 93.1895 144.961 108.27 145.043 108.422C145.055 108.505 145.05 108.589 145.027 108.67C145.005 108.751 144.967 108.826 144.914 108.891C144.864 108.958 144.798 109.013 144.723 109.052C144.648 109.09 144.566 109.111 144.482 109.114C141.499 109.219 138.855 109.266 136.948 109.266Z" fill="#231F20"/>
<path d="M134.702 56.6657C134.702 56.6657 139.03 48.0065 137.393 45.745C135.755 43.4835 134.632 44.292 134.621 44.3037C136.375 43.05 134.293 40.4369 133.17 39.5581C132.28 38.9109 131.293 38.4087 130.246 38.07C127.692 37.0603 124.978 36.5166 122.233 36.4647C119.471 36.4325 116.778 37.3276 114.583 39.0074C111.226 41.7259 110.15 45.1708 110.512 49.3774C110.77 52.3888 111.682 55.3885 111.857 58.3413C115.296 58.6811 118.771 59.1147 122.256 59.1967C125.029 59.267 133.1 59.8763 134.702 56.6657Z" fill="#1F222A"/>
<path d="M125.942 59.8884C124.912 59.8884 123.941 59.8884 123.123 59.8884H122.245C119.403 59.8181 116.537 59.5134 113.765 59.2322L111.835 58.9393C111.693 58.9255 111.56 58.8611 111.461 58.7579C111.363 58.6547 111.304 58.5195 111.296 58.3768C111.168 56.829 110.941 55.2909 110.618 53.7718C110.319 52.3396 110.096 50.8924 109.951 49.4363C109.542 44.7493 110.91 41.2341 114.244 38.5391C116.542 36.7684 119.37 35.827 122.269 35.8675C125.074 35.918 127.848 36.4736 130.457 37.5079C131.561 37.8694 132.602 38.399 133.545 39.0781C134.469 39.8046 135.884 41.5387 135.884 43.0737C135.881 43.2716 135.853 43.4684 135.803 43.6596C136.657 44.0067 137.381 44.6132 137.873 45.3938C139.745 47.9717 135.428 56.5372 135.229 56.9356C133.966 59.4783 129.568 59.8884 125.942 59.8884ZM112.419 57.7909L113.893 57.9433C116.63 58.2362 119.473 58.5291 122.269 58.5994H123.169C126.07 58.7049 132.878 58.9393 134.165 56.3731C135.533 53.6547 137.99 47.5733 136.902 46.0734C135.814 44.5736 135.206 44.6439 134.96 44.7845C134.83 44.8556 134.678 44.8764 134.533 44.8431C134.388 44.8097 134.261 44.7245 134.175 44.6034C134.088 44.4824 134.049 44.3339 134.065 44.1859C134.08 44.038 134.149 43.9008 134.258 43.8002C134.39 43.719 134.497 43.6049 134.571 43.4694C134.645 43.3338 134.682 43.1813 134.68 43.0269C134.444 41.8218 133.768 40.748 132.785 40.0155C131.947 39.4117 131.019 38.945 130.036 38.6328C127.552 37.637 124.908 37.1048 122.234 37.0627C119.615 37.0057 117.053 37.831 114.958 39.4062C111.963 41.8317 110.735 44.972 111.098 49.2606C111.226 50.655 111.495 52.0962 111.753 53.4789C112.053 54.903 112.276 56.3425 112.419 57.7909Z" fill="#231F20"/>
<path d="M130.818 57.8729C131.696 54.1468 138.012 53.6781 137.369 58.0956C137.212 59.637 136.516 61.0732 135.404 62.1498C134.839 62.6699 134.134 63.0109 133.376 63.1297C132.618 63.2486 131.842 63.14 131.146 62.8177" fill="#FFE4A4"/>
<path d="M132.69 63.8018C132.051 63.8033 131.421 63.6505 130.853 63.3565C130.713 63.2796 130.608 63.1504 130.562 62.9969C130.516 62.8434 130.533 62.6779 130.608 62.5363C130.684 62.3956 130.813 62.2909 130.967 62.2448C131.12 62.1988 131.285 62.2151 131.427 62.2902C132.016 62.5551 132.67 62.6397 133.306 62.5333C133.943 62.427 134.535 62.1345 135.006 61.6926C136.008 60.7119 136.633 59.4094 136.772 58.0133C137.041 56.1971 135.942 55.6698 135.275 55.5878C134.445 55.4475 133.593 55.6169 132.879 56.0639C132.166 56.5109 131.64 57.2045 131.403 58.0133C131.366 58.1687 131.269 58.3029 131.133 58.3864C130.997 58.4699 130.833 58.4959 130.678 58.4586C130.523 58.4213 130.389 58.3238 130.305 58.1875C130.222 58.0513 130.196 57.8875 130.233 57.7321C130.537 56.6187 131.245 55.6595 132.22 55.0436C133.194 54.4276 134.363 54.1995 135.497 54.4043C135.917 54.4706 136.319 54.6244 136.676 54.8558C137.033 55.0871 137.338 55.391 137.57 55.7476C137.803 56.1043 137.958 56.5059 138.026 56.9264C138.094 57.3469 138.074 57.7771 137.965 58.1891C137.784 59.8703 137.018 61.434 135.801 62.6066C134.939 63.3629 133.836 63.7867 132.69 63.8018Z" fill="#231F20"/>
<path d="M115.261 56.7362C114.933 52.9163 108.757 51.5336 108.745 55.998C108.674 57.5437 109.155 59.0643 110.102 60.2866C110.583 60.8864 111.232 61.3292 111.965 61.5587C112.698 61.7882 113.483 61.7941 114.22 61.5755" fill="#FFE4A4"/>
<path d="M113.155 62.3605C112.483 62.348 111.822 62.1909 111.217 61.8997C110.611 61.6086 110.076 61.1902 109.646 60.6732C108.61 59.3363 108.076 57.6774 108.137 55.9861C108.086 55.559 108.125 55.1259 108.253 54.7152C108.38 54.3044 108.593 53.9252 108.876 53.6022C109.16 53.2793 109.509 53.02 109.899 52.8412C110.29 52.6624 110.714 52.5682 111.143 52.5646C112.284 52.5546 113.389 52.9622 114.25 53.711C115.112 54.4598 115.671 55.498 115.822 56.6306C115.835 56.7905 115.785 56.949 115.682 57.0718C115.579 57.1947 115.432 57.2719 115.272 57.2868C115.113 57.2998 114.954 57.2493 114.832 57.1462C114.709 57.0431 114.632 56.8957 114.617 56.7361C114.504 55.8935 114.083 55.1233 113.434 54.5752C112.785 54.0272 111.956 53.7407 111.108 53.7715C110.418 53.7715 109.272 54.1231 109.272 55.951C109.195 57.3485 109.609 58.7288 110.441 59.8529C110.851 60.3656 111.402 60.745 112.027 60.9432C112.652 61.1413 113.321 61.1493 113.95 60.9661C114.025 60.9383 114.104 60.9256 114.184 60.9288C114.263 60.9321 114.341 60.9512 114.413 60.985C114.485 61.0189 114.549 61.0668 114.602 61.1259C114.655 61.185 114.696 61.2542 114.722 61.3293C114.775 61.4801 114.767 61.6457 114.699 61.7904C114.631 61.935 114.509 62.0472 114.36 62.1027C113.975 62.2535 113.568 62.3405 113.155 62.3605Z" fill="#231F20"/>
<path d="M114.432 75.6015C114.995 76.822 115.889 77.8597 117.012 78.5971C118.135 79.3344 119.441 79.7418 120.783 79.7729C122.154 79.9109 123.537 79.691 124.798 79.1345C126.059 78.578 127.154 77.704 127.977 76.5975V73.9376V67.7859V62.0326L116.736 61.2007L116.011 65.8877L115.789 67.3993L114.432 75.6015Z" fill="#FFE4A4"/>
<path d="M121.484 80.394C121.238 80.394 120.993 80.394 120.735 80.394C119.278 80.3597 117.86 79.9136 116.646 79.1071C115.431 78.3006 114.468 77.1666 113.869 75.8358C113.846 75.7356 113.846 75.6314 113.869 75.5312L116.08 61.1304C116.103 60.9823 116.18 60.8484 116.297 60.7551C116.414 60.6618 116.562 60.6159 116.711 60.6265L127.964 61.4467C128.116 61.4557 128.259 61.5226 128.363 61.6337C128.468 61.7448 128.526 61.8917 128.526 62.0443L128.608 76.6092C128.611 76.7293 128.579 76.8477 128.514 76.949C127.705 78.0473 126.644 78.934 125.42 79.5337C124.196 80.1335 122.846 80.4286 121.484 80.394ZM115.05 75.5195C115.59 76.5946 116.412 77.5019 117.428 78.144C118.444 78.7861 119.616 79.1386 120.817 79.1636C122.053 79.2934 123.302 79.1079 124.447 78.6244C125.592 78.1409 126.597 77.3751 127.368 76.3983L127.286 62.595L117.144 61.8451L115.05 75.5195Z" fill="#231F20"/>
<path d="M115.693 67.3641C116.551 68.8116 117.758 70.0204 119.203 70.8794C121.542 72.4026 125.051 74.172 127.999 73.9376V67.7859C125.829 67.8943 123.655 67.7488 121.519 67.3524C119.611 67.144 117.748 66.6379 115.997 65.8525L115.693 67.3641Z" fill="#231F20"/>
<path d="M127.416 74.5469C124.187 74.5469 120.69 72.5901 118.83 71.3714C117.319 70.4521 116.064 69.1666 115.18 67.6335C115.121 67.5267 115.1 67.4024 115.122 67.282L115.344 65.7705C115.355 65.6787 115.389 65.5912 115.442 65.5156C115.495 65.4399 115.566 65.3786 115.648 65.3369C115.732 65.2964 115.824 65.2754 115.917 65.2754C116.01 65.2754 116.102 65.2964 116.186 65.3369C117.885 66.087 119.687 66.5731 121.532 66.7782C123.625 67.1718 125.757 67.3135 127.884 67.2C127.962 67.1949 128.041 67.2057 128.116 67.2319C128.19 67.2581 128.258 67.299 128.316 67.3523C128.375 67.4085 128.421 67.4757 128.454 67.5502C128.486 67.6246 128.503 67.7048 128.504 67.7859V73.9376C128.504 74.0852 128.449 74.2275 128.349 74.3361C128.249 74.4447 128.112 74.5116 127.965 74.5234L127.416 74.5469ZM116.303 67.2586C117.098 68.5382 118.184 69.6105 119.473 70.3872C120.877 71.3128 124.339 73.3634 127.369 73.3751V68.3952C125.354 68.445 123.339 68.288 121.356 67.9265C119.668 67.7238 118.008 67.3307 116.408 66.7547L116.303 67.2586Z" fill="#231F20"/>
<path d="M121.415 68.7583L122.409 68.8286C123.546 68.9214 124.69 68.7874 125.776 68.4344C126.861 68.0815 127.865 67.5166 128.731 66.7724C129.597 66.0282 130.307 65.1195 130.82 64.0987C131.333 63.078 131.639 61.9655 131.72 60.8256L132.726 47.1629L122.62 48.8971L114.432 45.8154L113.437 59.4898C113.27 61.7782 114.016 64.0397 115.512 65.7776C117.007 67.5154 119.131 68.5875 121.415 68.7583Z" fill="#FFE4A4"/>
<path d="M123.064 69.4616H122.374L121.368 69.3795C118.922 69.1996 116.648 68.0545 115.045 66.1957C113.441 64.337 112.64 61.9166 112.817 59.4665L113.823 45.7922C113.829 45.6989 113.858 45.6085 113.907 45.5288C113.956 45.4492 114.023 45.3827 114.104 45.3352C114.187 45.2921 114.279 45.2695 114.373 45.2695C114.467 45.2695 114.559 45.2921 114.642 45.3352L122.62 48.3466L132.562 46.6476C132.653 46.632 132.746 46.6365 132.835 46.6608C132.924 46.6851 133.007 46.7285 133.077 46.7882C133.143 46.851 133.194 46.9278 133.226 47.0129C133.259 47.0981 133.272 47.1895 133.264 47.2803L132.27 60.9547C132.099 63.2851 131.055 65.4649 129.348 67.0575C127.641 68.6501 125.397 69.5381 123.064 69.5436V69.4616ZM121.45 68.1492L122.456 68.2312C123.51 68.3078 124.57 68.1755 125.573 67.8418C126.577 67.5081 127.505 66.9795 128.305 66.2863C129.104 65.5932 129.759 64.7489 130.233 63.8019C130.707 62.8549 130.989 61.8237 131.065 60.7672L132.013 47.8779L122.655 49.4832C122.551 49.5061 122.443 49.5061 122.339 49.4832L114.969 46.7061L114.022 59.5954C113.944 60.6497 114.074 61.7091 114.405 62.7129C114.737 63.7167 115.262 64.6452 115.952 65.4452C116.642 66.2452 117.483 66.901 118.426 67.3751C119.37 67.8491 120.397 68.1321 121.45 68.2078V68.1492Z" fill="#231F20"/>
<path d="M123.133 62.1378C122.404 62.1355 121.676 62.0689 120.958 61.9386C120.8 61.9074 120.66 61.8146 120.57 61.6806C120.48 61.5466 120.447 61.3823 120.478 61.2238C120.495 61.1467 120.526 61.0737 120.571 61.0089C120.616 60.9442 120.674 60.889 120.74 60.8465C120.806 60.804 120.88 60.7751 120.958 60.7614C121.035 60.7477 121.115 60.7496 121.192 60.7668C121.91 60.8894 122.638 60.9482 123.367 60.9426C123.321 58.9764 122.962 57.0303 122.303 55.1776C122.256 55.0222 122.273 54.8546 122.35 54.7118C122.427 54.569 122.557 54.4625 122.712 54.4159C122.867 54.3693 123.035 54.3863 123.177 54.4633C123.32 54.5402 123.426 54.6707 123.473 54.826C123.987 56.5368 125.099 60.6848 124.327 61.7394C124.248 61.8581 124.142 61.9562 124.018 62.0255C123.894 62.0949 123.755 62.1333 123.613 62.1378H123.133Z" fill="#231F20"/>
<path d="M127.246 53.5926C127.305 52.7858 127.087 52.1122 126.758 52.0881C126.43 52.0639 126.115 52.6983 126.056 53.5051C125.997 54.3118 126.216 54.9854 126.544 55.0096C126.873 55.0338 127.187 54.3994 127.246 53.5926Z" fill="#231F20"/>
<path d="M119.6 52.6605C119.659 51.8537 119.44 51.1801 119.112 51.1559C118.783 51.1318 118.469 51.7662 118.41 52.5729C118.351 53.3797 118.569 54.0533 118.898 54.0775C119.226 54.1016 119.541 53.4672 119.6 52.6605Z" fill="#231F20"/>
<path d="M122.619 65.0206H122.362C121.152 64.8972 119.979 64.5269 118.917 63.9324C117.855 63.3379 116.925 62.5319 116.186 61.5639C116.138 61.5004 116.104 61.4279 116.084 61.3508C116.065 61.2738 116.061 61.1936 116.073 61.115C116.085 61.0365 116.113 60.9611 116.154 60.8933C116.196 60.8255 116.25 60.7667 116.314 60.7203C116.442 60.6257 116.602 60.5851 116.759 60.607C116.917 60.6289 117.059 60.7116 117.157 60.8374C117.786 61.6523 118.57 62.3347 119.463 62.8454C120.356 63.3561 121.342 63.6852 122.362 63.8137C124.538 63.884 126.725 62.7005 128.889 60.2984C128.944 60.2417 129.009 60.1966 129.081 60.1658C129.154 60.135 129.232 60.1191 129.31 60.1191C129.389 60.1191 129.467 60.135 129.539 60.1658C129.611 60.1966 129.677 60.2417 129.731 60.2984C129.792 60.3501 129.842 60.4135 129.878 60.4848C129.914 60.5561 129.936 60.634 129.941 60.7137C129.947 60.7935 129.936 60.8735 129.91 60.9491C129.884 61.0247 129.843 61.0943 129.79 61.1538C127.497 63.6848 125.076 65.0206 122.619 65.0206Z" fill="#231F20"/>
<path d="M329.698 145.871C327.71 132.501 301.624 126.807 301.624 126.807C301.624 126.807 293.436 88.7483 288.757 72.4141C282.487 50.514 279.329 29.5162 246.003 24.5949C212.677 19.6735 130.48 21.1734 107.366 24.5949C84.2518 28.0164 83.1288 24.5949 70.9986 46.6004C58.8684 68.6059 49.0309 126.807 49.0309 126.807C49.0309 126.807 30.9468 137.06 25.835 147.582C20.7233 158.104 29.8004 204.506 33.4968 216.457C37.1932 228.409 40.8779 232.675 51.6862 232.675C62.4946 232.675 288.465 235.522 308.678 229.499C328.891 223.476 331.745 159.253 329.698 145.871ZM286.523 111.152C286.125 115.429 285.353 118.651 280.242 120.257C277.7 120.963 275.077 121.329 272.439 121.346C271.691 121.346 270.895 121.346 270.041 121.346H76.0168C75.7767 121.345 75.5375 121.317 75.3033 121.264C72.9638 120.843 68.4252 118.323 66.7291 111.668C64.8341 104.262 78.8827 56.033 83.2341 45.206C87.8429 33.7345 123.426 29.4108 166.344 29.7506C206.747 30.0669 257.584 32.3987 264.602 37.8122C271.621 43.2257 287.085 104.895 286.523 111.152Z" fill="#FEBB1B"/>
<path d="M118.338 198.811C118.338 198.811 109.249 168.65 109.53 165.51C109.811 162.369 112.08 158.397 113.928 157.835C115.776 157.272 233.686 156.405 236.517 158.397C239.347 160.389 241.067 163.518 240.786 165.803C240.505 168.088 235.382 195.401 233.967 198.811C232.551 202.221 123.169 204.787 118.338 198.811Z" fill="black"/>
<path d="M246.658 190.363C246.658 190.363 247.407 168.556 266.158 161.338C284.909 154.12 311.614 154.132 314.456 158.69C317.299 163.248 318.059 178.985 300.419 186.004C282.78 193.023 256.882 192.378 246.658 190.363Z" fill="#35383F"/>
<path d="M264.286 192.308C258.342 192.383 252.404 191.929 246.541 190.949C246.404 190.921 246.283 190.846 246.197 190.736C246.111 190.627 246.067 190.49 246.073 190.351C246.073 190.129 247.055 168.088 265.958 160.8C284.464 153.687 311.777 153.265 314.959 158.374C316.608 161.011 317.357 166.576 315.579 171.943C314.093 176.489 310.291 182.711 300.664 186.555C289.774 190.89 275.807 192.308 264.286 192.308ZM247.278 189.894C257.548 191.769 282.873 192.378 300.22 185.465C309.437 181.786 313.087 175.88 314.456 171.58C316.316 165.908 315.181 160.94 313.964 158.995C311.332 154.789 284.721 154.835 266.368 161.889C249.769 168.275 247.523 186.625 247.278 189.894Z" fill="#231F20"/>
<path d="M105.178 191.886C105.178 191.886 101.201 163.623 82.6373 160.249C64.0736 156.874 41.3456 153.218 37.0175 160.249C32.6895 167.279 34.7482 179.606 46.6796 184.539C58.6109 189.472 95.8905 193.972 105.178 191.886Z" fill="#35383F"/>
<path d="M98.1355 192.999C83.5372 192.999 56.2004 189.074 46.4331 185.031C43.8097 184.03 41.4397 182.46 39.4923 180.435C37.545 178.409 36.0685 175.978 35.1685 173.314C34.4179 171.112 34.1485 168.775 34.3785 166.46C34.6086 164.145 35.3328 161.907 36.502 159.897C41.0055 152.632 62.7276 155.948 82.7418 159.628C90.5323 161.057 96.9775 167.103 101.458 177.087C103.504 181.796 104.965 186.738 105.809 191.804C105.831 191.949 105.797 192.097 105.714 192.219C105.632 192.34 105.507 192.427 105.365 192.46C102.979 192.886 100.557 193.066 98.1355 192.999ZM50.5857 156.745C44.2457 156.745 39.2275 157.718 37.4963 160.507C36.4243 162.378 35.7653 164.459 35.5635 166.607C35.3617 168.756 35.6219 170.923 36.3266 172.962C37.177 175.461 38.568 177.741 40.4 179.639C42.232 181.537 44.4599 183.006 46.9244 183.942C58.0954 188.558 94.4509 193.234 104.557 191.417C103.879 187.504 99.1064 163.823 82.578 160.776C73.8518 159.194 60.5869 156.745 50.5857 156.745Z" fill="#231F20"/>
<path d="M222.327 215.321H128.549C123.865 215.321 120.068 219.125 120.068 223.816V235.85C120.068 240.542 123.865 244.346 128.549 244.346H222.327C227.011 244.346 230.808 240.542 230.808 235.85V223.816C230.808 219.125 227.011 215.321 222.327 215.321Z" fill="#35383F"/>
<path d="M222.328 244.931H128.55C126.146 244.928 123.842 243.971 122.143 242.268C120.444 240.566 119.487 238.258 119.484 235.85V223.816C119.487 221.409 120.444 219.101 122.143 217.399C123.842 215.696 126.146 214.738 128.55 214.735H222.328C224.732 214.735 227.038 215.692 228.738 217.395C230.438 219.098 231.393 221.408 231.393 223.816V235.85C231.39 238.258 230.434 240.566 228.735 242.268C227.035 243.971 224.731 244.928 222.328 244.931ZM128.55 215.907C126.456 215.907 124.447 216.74 122.967 218.224C121.486 219.707 120.654 221.719 120.654 223.816V235.85C120.657 237.947 121.49 239.957 122.97 241.44C124.45 242.922 126.457 243.757 128.55 243.76H222.328C224.421 243.757 226.427 242.922 227.908 241.44C229.388 239.957 230.22 237.947 230.224 235.85V223.816C230.224 221.719 229.392 219.707 227.911 218.224C226.43 216.74 224.422 215.907 222.328 215.907H128.55Z" fill="#231F20"/>
<path d="M44.4807 220.442C44.4807 220.442 44.7615 208.49 49.3001 205.924C53.8386 203.357 87.6558 204.752 91.4106 205.924C95.1655 207.095 100.5 219.012 99.9381 220.442C99.3766 221.871 95.9492 223.851 95.107 223.57C94.2648 223.289 44.0947 224.695 44.4807 220.442Z" fill="#35383F"/>
<path d="M95.2003 224.179C95.0847 224.18 94.9699 224.16 94.8611 224.121C94.6155 224.121 92.042 224.121 89.0124 224.121C67.1968 224.25 46.6562 224.004 44.1763 221.309C44.0576 221.19 43.9658 221.046 43.9073 220.889C43.8488 220.731 43.8248 220.562 43.8371 220.395C43.8371 219.703 44.2231 208.068 48.9606 205.408C53.698 202.748 88.0064 204.236 91.4689 205.408C94.3932 206.31 97.5398 212.509 98.4873 214.384C99.0488 215.555 100.827 219.539 100.406 220.699C99.8125 221.597 99.0467 222.367 98.1529 222.964C97.2591 223.562 96.2553 223.975 95.2003 224.179ZM93.1182 222.937C93.8053 222.885 94.4961 222.913 95.1769 223.019C95.7735 223.101 98.7914 221.437 99.2827 220.219C99.5869 218.918 94.5336 207.529 91.0946 206.486C87.4216 205.314 53.8735 203.978 49.5103 206.486C45.1472 208.993 44.9835 220.383 44.9835 220.547C45.6853 222.363 60.4942 223.195 88.9773 223.031L93.1182 222.937Z" fill="#231F20"/>
<path d="M310.959 220.442C310.959 220.442 310.666 208.49 306.128 205.924C301.589 203.357 267.772 204.752 264.017 205.924C260.262 207.095 254.928 219.012 255.502 220.442C256.075 221.871 259.479 223.851 260.321 223.57C261.163 223.289 311.333 224.695 310.959 220.442Z" fill="#35383F"/>
<path d="M260.192 224.191C258.068 223.753 256.205 222.489 255.01 220.676C254.554 219.504 256.367 215.544 256.929 214.36C257.829 212.486 260.976 206.287 263.947 205.385C267.456 204.319 301.613 202.702 306.455 205.385C311.298 208.068 311.567 219.68 311.591 220.372C311.601 220.54 311.576 220.709 311.515 220.867C311.454 221.025 311.361 221.168 311.24 221.286C308.76 223.981 288.231 224.227 266.404 224.098C263.432 224.098 260.859 224.098 260.555 224.098C260.439 224.147 260.317 224.178 260.192 224.191ZM289.822 205.068C278.978 205.068 266.427 205.818 264.251 206.486C260.859 207.529 255.806 218.919 256.063 220.243C256.543 221.414 259.572 223.102 260.169 223.008C262.218 222.891 264.272 222.891 266.322 223.008C294.852 223.184 309.661 222.34 310.327 220.512C310.327 220.395 310 208.865 305.789 206.451C304.046 205.432 297.355 205.068 289.822 205.068Z" fill="#231F20"/>
<path d="M226.586 167.584H123.099C122.44 167.584 121.906 168.116 121.906 168.773C121.906 169.43 122.44 169.963 123.099 169.963H226.586C227.245 169.963 227.779 169.43 227.779 168.773C227.779 168.116 227.245 167.584 226.586 167.584Z" fill="#35383F"/>
<path d="M226.586 176.583H123.099C122.44 176.583 121.906 177.115 121.906 177.772C121.906 178.429 122.44 178.962 123.099 178.962H226.586C227.245 178.962 227.779 178.429 227.779 177.772C227.779 177.115 227.245 176.583 226.586 176.583Z" fill="#35383F"/>
<path d="M226.586 185.582H123.099C122.44 185.582 121.906 186.115 121.906 186.771C121.906 187.428 122.44 187.961 123.099 187.961H226.586C227.245 187.961 227.779 187.428 227.779 186.771C227.779 186.115 227.245 185.582 226.586 185.582Z" fill="#35383F"/>
<path d="M31.8817 149.41C31.7266 149.41 31.5779 149.348 31.4682 149.239C31.3585 149.129 31.2969 148.98 31.2969 148.824C31.2969 148.669 31.3585 148.52 31.4682 148.41C31.5779 148.3 31.7266 148.238 31.8817 148.238C33.1568 148.238 161.278 148.238 322.62 145.368C322.773 145.373 322.918 145.435 323.028 145.54C323.138 145.646 323.205 145.789 323.217 145.942C323.214 146.097 323.152 146.246 323.043 146.357C322.934 146.468 322.787 146.533 322.632 146.539C161.29 149.375 33.1568 149.41 31.8817 149.41Z" fill="#231F20"/>
<path d="M161.103 6.28058H157.453V4.58154H166.811V6.28058H163.173V15.4906H161.056L161.103 6.28058Z" fill="white"/>
<path d="M170.953 4.58154H172.778L177.89 15.4906H175.469L174.369 12.9947H169.222L168.146 15.4906H165.807L170.953 4.58154ZM173.632 11.3308L171.807 6.86646L169.948 11.2957L173.632 11.3308Z" fill="white"/>
<path d="M181.924 9.66695L178.24 4.58154H180.848L183.188 8.30771L185.597 4.58154H188.03L184.416 9.71382L188.674 15.4906H186.007L183.188 11.2137L180.404 15.4906H177.854L181.924 9.66695Z" fill="white"/>
<path d="M190.09 4.58154H192.207V15.4906H190.09V4.58154Z" fill="white"/>
</svg>
