<svg width="249" height="300" viewBox="0 0 249 300" fill="none" xmlns="http://www.w3.org/2000/svg">
<g clip-path="url(#clip0_1248_41665)">
<path d="M42.929 260.582C47.0168 260.582 50.3306 257.268 50.3306 253.18C50.3306 249.093 47.0168 245.779 42.929 245.779C38.8412 245.779 35.5273 249.093 35.5273 253.18C35.5273 257.268 38.8412 260.582 42.929 260.582Z" fill="#1F222A"/>
<path d="M110.499 229.772C99.3595 245.364 99.758 271.45 102.866 300H155.533L157.823 294.657L160.876 300H210.491C210.491 300 206.674 227.482 199.804 225.192C192.935 222.902 110.499 229.772 110.499 229.772Z" fill="#2F2E41"/>
<path d="M1.78077 143.486C2.69568 145.014 3.93448 146.323 5.40992 147.32C6.88535 148.318 8.56154 148.979 10.3204 149.259C12.0793 149.539 13.878 149.429 15.5899 148.938C17.3019 148.447 18.8854 147.587 20.2289 146.418L57.7817 167.957L56.3821 145.503L20.9359 128.491C18.8224 126.364 16.0021 125.087 13.0095 124.9C10.0169 124.714 7.05988 125.632 4.69875 127.48C2.33763 129.328 0.736458 131.978 0.198656 134.928C-0.339146 137.878 0.223782 140.923 1.78077 143.486Z" fill="#FFB8B8"/>
<path d="M174.842 73.7998L180.067 83.8138L216.201 99.9232L206.703 191.85L202.705 201.369L204.865 209.636L199.658 215.737C204.885 220.467 205.549 225.418 202.705 230.54L186.065 234.352C186.065 234.352 93.5418 242.58 101.339 228.245C109.859 212.583 112.029 166.326 93.2204 141.608C77.2525 120.623 89.5117 93.3923 89.5117 93.3923L127.388 82.0722L141.32 73.7998L174.842 73.7998Z" fill="#3F3D56"/>
<path d="M217.742 285.649C219.026 284.414 220.024 282.914 220.665 281.252C221.306 279.59 221.575 277.808 221.453 276.031C221.331 274.255 220.821 272.526 219.959 270.968C219.097 269.409 217.904 268.059 216.463 267.012L229.033 225.583L207.466 231.982L198.836 270.342C197.237 272.879 196.624 275.914 197.113 278.872C197.603 281.831 199.16 284.507 201.491 286.394C203.821 288.28 206.763 289.247 209.758 289.109C212.753 288.972 215.594 287.741 217.742 285.649Z" fill="#FFB8B8"/>
<path d="M206.239 97.6055L216.202 99.9231C216.202 99.9231 257.38 180.047 247.457 195.314C237.534 210.581 225.378 261.126 225.378 261.126C225.378 261.126 207.399 257.551 200.529 248.391L213.109 188.444L200.133 138.063L206.239 97.6055Z" fill="#3F3D56"/>
<path d="M122.142 84.6582C117.24 106.423 104.666 157.242 91.9104 167.87C91.1014 168.634 90.1314 169.207 89.0718 169.546C44.2341 180.47 29.8672 152.605 29.8672 152.605C29.8672 152.605 41.8831 146.749 42.1879 135.303L66.42 142.822L87.5437 95.2817L90.6522 92.382L90.6696 92.3646L122.142 84.6582Z" fill="#3F3D56"/>
<path d="M17.2305 216.587L17.5882 87.5424C17.5984 84.9306 18.6442 82.4294 20.496 80.5877C22.3479 78.7459 24.8546 77.714 27.4663 77.7183L124.917 77.9885C127.529 77.9987 130.03 79.0445 131.871 80.8965C133.713 82.7484 134.745 85.2554 134.74 87.8672L134.383 216.912C134.372 219.524 133.327 222.025 131.475 223.867C129.623 225.708 127.116 226.74 124.505 226.736L27.0539 226.466C24.4423 226.455 21.9413 225.41 20.0997 223.558C18.258 221.706 17.2262 219.199 17.2305 216.587Z" fill="#35383F"/>
<path d="M24.8145 177.631L25.0445 94.6693C25.054 92.2233 26.0333 89.8808 27.7677 88.156C29.502 86.4311 31.8497 85.4647 34.2956 85.4688L118.046 85.701C120.492 85.7104 122.835 86.6898 124.559 88.4243C126.284 90.1587 127.251 92.5066 127.247 94.9527L126.928 209.785C126.919 212.231 125.939 214.573 124.205 216.298C122.471 218.023 120.123 218.989 117.677 218.985L65.795 218.842C54.9 218.799 44.4666 214.436 36.7839 206.711C29.1013 198.985 24.7967 188.527 24.8145 177.631Z" fill="#1F222A"/>
<path d="M103.165 205.658C111.775 205.658 118.756 198.677 118.756 190.066C118.756 181.455 111.775 174.475 103.165 174.475C94.5544 174.475 87.5742 181.455 87.5742 190.066C87.5742 198.677 94.5544 205.658 103.165 205.658Z" fill="#FEBB1B"/>
<path d="M101.04 198.181C100.77 198.181 100.505 198.118 100.264 197.997C100.023 197.877 99.8137 197.702 99.6522 197.487L95.3989 191.815C95.2619 191.633 95.1622 191.426 95.1054 191.205C95.0486 190.984 95.036 190.754 95.0681 190.529C95.1002 190.303 95.1764 190.086 95.2925 189.89C95.4086 189.693 95.5622 189.522 95.7445 189.385C95.9268 189.249 96.1343 189.149 96.3552 189.093C96.576 189.036 96.8058 189.024 97.0314 189.056C97.257 189.088 97.474 189.165 97.67 189.281C97.866 189.398 98.0371 189.551 98.1737 189.734L100.956 193.444L108.103 182.723C108.229 182.533 108.392 182.369 108.581 182.242C108.77 182.114 108.983 182.026 109.207 181.981C109.43 181.935 109.661 181.935 109.885 181.979C110.109 182.023 110.322 182.111 110.511 182.238C110.701 182.364 110.864 182.527 110.991 182.717C111.118 182.906 111.206 183.119 111.251 183.343C111.295 183.567 111.295 183.797 111.25 184.021C111.205 184.245 111.117 184.458 110.989 184.647L102.483 197.408C102.329 197.639 102.122 197.83 101.879 197.964C101.636 198.098 101.365 198.172 101.088 198.18C101.072 198.18 101.056 198.181 101.04 198.181Z" fill="#1F222A"/>
<path d="M108.451 158.047H43.1468C42.1076 158.047 41.111 157.635 40.3761 156.9C39.6413 156.165 39.2285 155.168 39.2285 154.129C39.2285 153.09 39.6413 152.093 40.3761 151.358C41.111 150.623 42.1076 150.21 43.1468 150.21H108.451C109.49 150.21 110.487 150.623 111.221 151.358C111.956 152.093 112.369 153.09 112.369 154.129C112.369 155.168 111.956 156.165 111.221 156.9C110.487 157.635 109.49 158.047 108.451 158.047Z" fill="#FEBB1B"/>
<path d="M108.451 139.979H43.1468C42.1076 139.979 41.111 139.566 40.3761 138.831C39.6413 138.097 39.2285 137.1 39.2285 136.061C39.2285 135.021 39.6413 134.025 40.3761 133.29C41.111 132.555 42.1076 132.142 43.1468 132.142H108.451C109.49 132.142 110.487 132.555 111.221 133.29C111.956 134.025 112.369 135.021 112.369 136.061C112.369 137.1 111.956 138.097 111.221 138.831C110.487 139.566 109.49 139.979 108.451 139.979Z" fill="#FEBB1B"/>
<path d="M108.451 121.91H43.1468C42.1076 121.91 41.111 121.497 40.3761 120.763C39.6413 120.028 39.2285 119.031 39.2285 117.992C39.2285 116.952 39.6413 115.956 40.3761 115.221C41.111 114.486 42.1076 114.073 43.1468 114.073H108.451C109.49 114.073 110.487 114.486 111.221 115.221C111.956 115.956 112.369 116.952 112.369 117.992C112.369 119.031 111.956 120.028 111.221 120.763C110.487 121.497 109.49 121.91 108.451 121.91Z" fill="#FEBB1B"/>
<path d="M57.5136 103.842H43.1468C42.1076 103.842 41.111 103.429 40.3761 102.694C39.6413 101.959 39.2285 100.963 39.2285 99.9234C39.2285 98.8841 39.6413 97.8875 40.3761 97.1526C41.111 96.4177 42.1076 96.0049 43.1468 96.0049H57.5136C58.5528 96.0049 59.5494 96.4177 60.2843 97.1526C61.0191 97.8875 61.4319 98.8841 61.4319 99.9234C61.4319 100.963 61.0191 101.959 60.2843 102.694C59.5494 103.429 58.5528 103.842 57.5136 103.842Z" fill="#FEBB1B"/>
<path d="M213.154 76.4121C217.241 76.4121 220.555 73.0983 220.555 69.0105C220.555 64.9227 217.241 61.6089 213.154 61.6089C209.066 61.6089 205.752 64.9227 205.752 69.0105C205.752 73.0983 209.066 76.4121 213.154 76.4121Z" fill="#1F222A"/>
<path d="M69.9212 47.6763C74.009 47.6763 77.3228 44.3625 77.3228 40.2747C77.3228 36.1869 74.009 32.873 69.9212 32.873C65.8334 32.873 62.5195 36.1869 62.5195 40.2747C62.5195 44.3625 65.8334 47.6763 69.9212 47.6763Z" fill="#1F222A"/>
<path d="M155.534 66.8679C170.288 66.8679 182.249 54.9062 182.249 40.1507C182.249 25.3953 170.288 13.4336 155.534 13.4336C140.779 13.4336 128.818 25.3953 128.818 40.1507C128.818 54.9062 140.779 66.8679 155.534 66.8679Z" fill="#FFB8B8"/>
<path d="M167.395 1.01451C167.52 0.748873 167.722 0.526824 167.975 0.376881C168.228 0.226938 168.519 0.155945 168.813 0.173024C156.582 -0.558635 143.699 0.866993 133.467 7.60743C130.988 9.24043 128.651 11.1882 125.953 12.3728C125.826 12.43 125.715 12.5192 125.633 12.6317C125.55 12.7441 125.498 12.8761 125.481 13.0147C125.465 13.1532 125.484 13.2938 125.538 13.4226C125.592 13.5515 125.678 13.6642 125.788 13.7499L126.084 13.9823C126.201 14.074 126.291 14.196 126.343 14.335C126.395 14.474 126.409 14.6247 126.381 14.7707C126.354 14.9168 126.287 15.0525 126.188 15.1633C126.089 15.274 125.962 15.3555 125.82 15.3988C125.672 15.4439 125.539 15.5305 125.439 15.6482C125.338 15.766 125.273 15.91 125.252 16.0634C125.231 16.2168 125.253 16.3731 125.318 16.5139C125.382 16.6547 125.486 16.7742 125.616 16.8583L127.886 18.3259C128 18.3985 128.095 18.4986 128.16 18.6172C128.226 18.7357 128.261 18.8688 128.261 19.0043C128.262 19.1398 128.229 19.2732 128.165 19.3925C128.1 19.5117 128.007 19.6129 127.894 19.6868C127.701 19.8056 127.499 19.908 127.29 19.9929C127.159 20.0419 127.044 20.1236 126.954 20.2302C126.865 20.3368 126.804 20.4647 126.778 20.6015C126.752 20.7384 126.762 20.8795 126.807 21.0114C126.852 21.1434 126.929 21.2615 127.033 21.3546C128.016 22.23 128.77 23.3326 129.23 24.5663C129.986 26.5342 130.122 28.6773 130.25 30.7818C131.032 27.7453 134.346 25.9578 137.476 25.7762C140.606 25.5946 143.659 26.6275 146.706 27.3699C153.34 28.9824 160.231 29.2475 166.971 28.1496C164.682 32.7424 166.613 38.2206 168.555 42.9701L174.843 40.2748C183.479 35.3998 177.463 56.0219 174.235 58.8529C180.827 61.1385 198.081 35.7713 192.53 26.1489C189.643 21.1435 191.692 14.6877 186.016 9.94047C183.234 7.01154 177.679 8.31335 174.843 5.87906C173.727 4.92096 175.428 2.35771 173.894 1.79909C173.385 1.61355 167.479 0.827512 167.395 1.01451Z" fill="#2F2E41"/>
</g>
<defs>
<clipPath id="clip0_1248_41665">
<rect width="249" height="300" fill="white"/>
</clipPath>
</defs>
</svg>
