<svg width="32" height="32" viewBox="0 0 32 32" fill="none" xmlns="http://www.w3.org/2000/svg">
<path d="M15.9998 2.6665C8.64784 2.6665 2.6665 8.64784 2.6665 15.9998C2.6665 23.3518 8.64784 29.3332 15.9998 29.3332C23.3518 29.3332 29.3332 23.3518 29.3332 15.9998C29.3332 8.64784 23.3518 2.6665 15.9998 2.6665ZM17.3332 22.5532V23.9998H14.6665V22.5598C11.5478 22.0705 10.6665 19.8905 10.6665 18.6665H13.3332C13.3478 18.8572 13.5452 19.9998 15.9998 19.9998C17.8398 19.9998 18.6665 19.2198 18.6665 18.6665C18.6665 18.2345 18.6665 17.3332 15.9998 17.3332C11.3598 17.3332 10.6665 14.8265 10.6665 13.3332C10.6665 11.6158 12.0385 9.88784 14.6665 9.4465V8.01584H17.3332V9.4945C19.6452 10.0412 20.5332 11.9652 20.5332 13.3332H19.1998L17.8665 13.3572C17.8478 12.8505 17.5798 11.9998 15.9998 11.9998C14.2678 11.9998 13.3332 12.6878 13.3332 13.3332C13.3332 13.8318 13.3332 14.6665 15.9998 14.6665C20.6398 14.6665 21.3332 17.1732 21.3332 18.6665C21.3332 20.3838 19.9612 22.1118 17.3332 22.5532Z" fill="#FEBB1B"/>
</svg>
