<svg width="380" height="221" viewBox="0 0 380 221" fill="none" xmlns="http://www.w3.org/2000/svg">
<path d="M37.88 37H40.69L45.78 51H43.19L42.29 48.52H36.29L35.39 51H32.8L37.88 37ZM37.18 46.08H41.39L39.28 40.31L37.18 46.08ZM57.3103 45.83V51H54.8703V45.87C54.8703 45.3567 54.7636 44.89 54.5503 44.47C54.337 44.0433 54.0403 43.7033 53.6603 43.45C53.287 43.1967 52.8536 43.07 52.3603 43.07C51.8803 43.07 51.4636 43.1967 51.1103 43.45C50.757 43.7033 50.4836 44.0433 50.2903 44.47C50.1036 44.89 50.0103 45.3567 50.0103 45.87V51H47.5703V41H50.0103V42.18C50.3436 41.7333 50.7403 41.38 51.2003 41.12C51.667 40.8533 52.1936 40.72 52.7803 40.72C53.7003 40.72 54.497 40.9533 55.1703 41.42C55.8503 41.88 56.3736 42.4967 56.7403 43.27C57.1136 44.0433 57.3036 44.8967 57.3103 45.83ZM66.717 36H69.157V51H66.717V49.75C66.397 50.1967 65.9937 50.56 65.507 50.84C65.0204 51.12 64.457 51.26 63.817 51.26C63.0904 51.26 62.4104 51.1233 61.777 50.85C61.1437 50.5767 60.5837 50.2 60.097 49.72C59.617 49.2333 59.2404 48.6733 58.967 48.04C58.6937 47.4067 58.557 46.7267 58.557 46C58.557 45.2733 58.6937 44.5933 58.967 43.96C59.2404 43.3267 59.617 42.77 60.097 42.29C60.5837 41.8033 61.1437 41.4233 61.777 41.15C62.4104 40.8767 63.0904 40.74 63.817 40.74C64.457 40.74 65.0204 40.88 65.507 41.16C65.9937 41.4333 66.397 41.7967 66.717 42.25V36ZM63.847 48.91C64.367 48.91 64.827 48.78 65.227 48.52C65.627 48.26 65.9404 47.91 66.167 47.47C66.3937 47.0233 66.507 46.5333 66.507 46C66.507 45.46 66.3937 44.97 66.167 44.53C65.9404 44.0833 65.6237 43.73 65.217 43.47C64.817 43.21 64.3604 43.08 63.847 43.08C63.3337 43.08 62.867 43.2133 62.447 43.48C62.027 43.74 61.6904 44.09 61.437 44.53C61.1837 44.97 61.057 45.46 61.057 46C61.057 46.54 61.1837 47.03 61.437 47.47C61.6904 47.91 62.027 48.26 62.447 48.52C62.8737 48.78 63.3404 48.91 63.847 48.91ZM77.5613 43.48C77.3813 43.36 77.1846 43.2633 76.9713 43.19C76.7646 43.1167 76.5346 43.08 76.2813 43.08C75.7946 43.08 75.3746 43.2067 75.0213 43.46C74.6746 43.7133 74.4079 44.0533 74.2213 44.48C74.0346 44.9 73.9413 45.3667 73.9413 45.88V51H71.4813V41H73.9213V42.18C74.2546 41.74 74.6513 41.39 75.1113 41.13C75.5779 40.87 76.1046 40.74 76.6913 40.74C76.9179 40.74 77.1346 40.7467 77.3413 40.76C77.5546 40.7733 77.7579 40.81 77.9513 40.87L77.5613 43.48ZM83.2055 51.26C82.2855 51.26 81.4455 51.0233 80.6855 50.55C79.9321 50.0767 79.3288 49.44 78.8755 48.64C78.4288 47.84 78.2055 46.9567 78.2055 45.99C78.2055 45.2633 78.3355 44.5833 78.5955 43.95C78.8555 43.31 79.2121 42.75 79.6655 42.27C80.1255 41.7833 80.6588 41.4033 81.2655 41.13C81.8721 40.8567 82.5188 40.72 83.2055 40.72C83.9855 40.72 84.6988 40.8867 85.3455 41.22C85.9988 41.5467 86.5521 41.9967 87.0055 42.57C87.4588 43.1433 87.7888 43.7967 87.9955 44.53C88.2021 45.2633 88.2488 46.03 88.1355 46.83H80.8255C80.9188 47.2033 81.0721 47.54 81.2855 47.84C81.4988 48.1333 81.7688 48.37 82.0955 48.55C82.4221 48.7233 82.7921 48.8133 83.2055 48.82C83.6321 48.8267 84.0188 48.7267 84.3655 48.52C84.7188 48.3067 85.0121 48.02 85.2455 47.66L87.7355 48.24C87.3288 49.1267 86.7221 49.8533 85.9155 50.42C85.1088 50.98 84.2055 51.26 83.2055 51.26ZM80.7455 45H85.6655C85.5921 44.6 85.4355 44.24 85.1955 43.92C84.9621 43.5933 84.6721 43.3333 84.3255 43.14C83.9788 42.9467 83.6055 42.85 83.2055 42.85C82.8055 42.85 82.4355 42.9467 82.0955 43.14C81.7555 43.3267 81.4655 43.5833 81.2255 43.91C80.9921 44.23 80.8321 44.5933 80.7455 45ZM94.61 51H92.19L88.85 41H91.24L93.41 47.47L95.57 41H97.98L100.14 47.47L102.31 41H104.7L101.36 51H98.94L96.77 44.5L94.61 51ZM115.985 37H118.795L123.885 51H121.295L120.395 48.52H114.395L113.495 51H110.905L115.985 37ZM115.285 46.08H119.495L117.385 40.31L115.285 46.08ZM125.329 41H127.769V51H125.329V41ZM126.559 39.51C126.206 39.51 125.906 39.3933 125.659 39.16C125.412 38.92 125.289 38.62 125.289 38.26C125.289 37.9067 125.412 37.61 125.659 37.37C125.906 37.13 126.206 37.01 126.559 37.01C126.912 37.01 127.209 37.13 127.449 37.37C127.696 37.61 127.819 37.9067 127.819 38.26C127.819 38.62 127.696 38.92 127.449 39.16C127.209 39.3933 126.912 39.51 126.559 39.51ZM140.572 45.83V51H138.132V45.87C138.132 45.3567 138.025 44.89 137.812 44.47C137.599 44.0433 137.302 43.7033 136.922 43.45C136.549 43.1967 136.115 43.07 135.622 43.07C135.142 43.07 134.725 43.1967 134.372 43.45C134.019 43.7033 133.745 44.0433 133.552 44.47C133.365 44.89 133.272 45.3567 133.272 45.87V51H130.832V41H133.272V42.18C133.605 41.7333 134.002 41.38 134.462 41.12C134.929 40.8533 135.455 40.72 136.042 40.72C136.962 40.72 137.759 40.9533 138.432 41.42C139.112 41.88 139.635 42.4967 140.002 43.27C140.375 44.0433 140.565 44.8967 140.572 45.83ZM145.82 51.18C145.3 51.1467 144.797 51.0433 144.31 50.87C143.83 50.69 143.404 50.4467 143.03 50.14C142.657 49.8333 142.37 49.4667 142.17 49.04L144.23 48.16C144.31 48.2933 144.44 48.4367 144.62 48.59C144.8 48.7367 145.014 48.86 145.26 48.96C145.514 49.06 145.79 49.11 146.09 49.11C146.344 49.11 146.584 49.0767 146.81 49.01C147.044 48.9367 147.23 48.8267 147.37 48.68C147.517 48.5333 147.59 48.3433 147.59 48.11C147.59 47.8633 147.504 47.6733 147.33 47.54C147.164 47.4 146.95 47.2967 146.69 47.23C146.437 47.1567 146.19 47.09 145.95 47.03C145.317 46.9033 144.727 46.7067 144.18 46.44C143.64 46.1733 143.204 45.83 142.87 45.41C142.544 44.9833 142.38 44.47 142.38 43.87C142.38 43.21 142.554 42.64 142.9 42.16C143.247 41.68 143.704 41.31 144.27 41.05C144.837 40.79 145.447 40.66 146.1 40.66C146.894 40.66 147.62 40.8267 148.28 41.16C148.947 41.4867 149.474 41.95 149.86 42.55L147.93 43.69C147.837 43.53 147.707 43.3833 147.54 43.25C147.374 43.11 147.184 42.9967 146.97 42.91C146.757 42.8167 146.534 42.7633 146.3 42.75C146 42.7367 145.727 42.7633 145.48 42.83C145.234 42.8967 145.034 43.01 144.88 43.17C144.734 43.33 144.66 43.5433 144.66 43.81C144.66 44.0633 144.76 44.2533 144.96 44.38C145.16 44.5 145.4 44.5933 145.68 44.66C145.967 44.7267 146.24 44.8 146.5 44.88C147.087 45.0733 147.637 45.31 148.15 45.59C148.67 45.87 149.087 46.2133 149.4 46.62C149.714 47.0267 149.864 47.5133 149.85 48.08C149.85 48.7267 149.657 49.2933 149.27 49.78C148.884 50.26 148.384 50.6267 147.77 50.88C147.164 51.1333 146.514 51.2333 145.82 51.18ZM151.727 51V36H154.167V51H151.727ZM161.038 51.26C160.118 51.26 159.278 51.0233 158.518 50.55C157.764 50.0767 157.161 49.44 156.708 48.64C156.261 47.84 156.038 46.9567 156.038 45.99C156.038 45.2633 156.168 44.5833 156.428 43.95C156.688 43.31 157.044 42.75 157.498 42.27C157.958 41.7833 158.491 41.4033 159.098 41.13C159.704 40.8567 160.351 40.72 161.038 40.72C161.818 40.72 162.531 40.8867 163.178 41.22C163.831 41.5467 164.384 41.9967 164.838 42.57C165.291 43.1433 165.621 43.7967 165.828 44.53C166.034 45.2633 166.081 46.03 165.968 46.83H158.658C158.751 47.2033 158.904 47.54 159.118 47.84C159.331 48.1333 159.601 48.37 159.928 48.55C160.254 48.7233 160.624 48.8133 161.038 48.82C161.464 48.8267 161.851 48.7267 162.198 48.52C162.551 48.3067 162.844 48.02 163.078 47.66L165.568 48.24C165.161 49.1267 164.554 49.8533 163.748 50.42C162.941 50.98 162.038 51.26 161.038 51.26ZM158.578 45H163.498C163.424 44.6 163.268 44.24 163.028 43.92C162.794 43.5933 162.504 43.3333 162.158 43.14C161.811 42.9467 161.438 42.85 161.038 42.85C160.638 42.85 160.268 42.9467 159.928 43.14C159.588 43.3267 159.298 43.5833 159.058 43.91C158.824 44.23 158.664 44.5933 158.578 45ZM173.83 41H176.42L170.95 56H168.36L170.17 51L166.57 41H169.24L171.39 47.66L173.83 41Z" fill="white"/>
<path d="M36.2246 72.041C36.7214 72.041 37.2158 72.1755 37.708 72.4443C38.2048 72.7087 38.583 73.0892 38.8428 73.5859C39.1071 74.0781 39.2393 74.5658 39.2393 75.0488C39.2393 75.8828 38.9453 76.5938 38.3574 77.1816C37.7695 77.7695 37.0586 78.0635 36.2246 78.0635C35.3952 78.0635 34.6865 77.7695 34.0986 77.1816C33.5107 76.5938 33.2168 75.8828 33.2168 75.0488C33.2168 74.5566 33.3421 74.069 33.5928 73.5859C33.848 73.0983 34.2194 72.7201 34.707 72.4512C35.1992 72.1777 35.7051 72.041 36.2246 72.041ZM44.8875 72.041C45.3842 72.041 45.8787 72.1755 46.3709 72.4443C46.8676 72.7087 47.2459 73.0892 47.5057 73.5859C47.77 74.0781 47.9021 74.5658 47.9021 75.0488C47.9021 75.8828 47.6082 76.5938 47.0203 77.1816C46.4324 77.7695 45.7215 78.0635 44.8875 78.0635C44.0581 78.0635 43.3494 77.7695 42.7615 77.1816C42.1736 76.5938 41.8797 75.8828 41.8797 75.0488C41.8797 74.5566 42.005 74.069 42.2557 73.5859C42.5109 73.0983 42.8823 72.7201 43.3699 72.4512C43.8621 72.1777 44.368 72.041 44.8875 72.041ZM53.5504 72.041C54.0471 72.041 54.5416 72.1755 55.0338 72.4443C55.5305 72.7087 55.9088 73.0892 56.1686 73.5859C56.4329 74.0781 56.565 74.5658 56.565 75.0488C56.565 75.8828 56.2711 76.5938 55.6832 77.1816C55.0953 77.7695 54.3844 78.0635 53.5504 78.0635C52.721 78.0635 52.0123 77.7695 51.4244 77.1816C50.8365 76.5938 50.5426 75.8828 50.5426 75.0488C50.5426 74.5566 50.6679 74.069 50.9186 73.5859C51.1738 73.0983 51.5452 72.7201 52.0328 72.4512C52.525 72.1777 53.0309 72.041 53.5504 72.041ZM62.2133 72.041C62.71 72.041 63.2045 72.1755 63.6967 72.4443C64.1934 72.7087 64.5717 73.0892 64.8314 73.5859C65.0958 74.0781 65.2279 74.5658 65.2279 75.0488C65.2279 75.8828 64.934 76.5938 64.3461 77.1816C63.7582 77.7695 63.0473 78.0635 62.2133 78.0635C61.3839 78.0635 60.6752 77.7695 60.0873 77.1816C59.4994 76.5938 59.2055 75.8828 59.2055 75.0488C59.2055 74.5566 59.3308 74.069 59.5814 73.5859C59.8367 73.0983 60.2081 72.7201 60.6957 72.4512C61.1879 72.1777 61.6938 72.041 62.2133 72.041ZM74.4395 72.041C74.9362 72.041 75.4307 72.1755 75.9229 72.4443C76.4196 72.7087 76.7979 73.0892 77.0576 73.5859C77.3219 74.0781 77.4541 74.5658 77.4541 75.0488C77.4541 75.8828 77.1602 76.5938 76.5723 77.1816C75.9844 77.7695 75.2734 78.0635 74.4395 78.0635C73.61 78.0635 72.9014 77.7695 72.3135 77.1816C71.7256 76.5938 71.4316 75.8828 71.4316 75.0488C71.4316 74.5566 71.557 74.069 71.8076 73.5859C72.0628 73.0983 72.4342 72.7201 72.9219 72.4512C73.4141 72.1777 73.9199 72.041 74.4395 72.041ZM83.1023 72.041C83.5991 72.041 84.0936 72.1755 84.5857 72.4443C85.0825 72.7087 85.4607 73.0892 85.7205 73.5859C85.9848 74.0781 86.117 74.5658 86.117 75.0488C86.117 75.8828 85.823 76.5938 85.2352 77.1816C84.6473 77.7695 83.9363 78.0635 83.1023 78.0635C82.2729 78.0635 81.5643 77.7695 80.9764 77.1816C80.3885 76.5938 80.0945 75.8828 80.0945 75.0488C80.0945 74.5566 80.2199 74.069 80.4705 73.5859C80.7257 73.0983 81.0971 72.7201 81.5848 72.4512C82.077 72.1777 82.5828 72.041 83.1023 72.041ZM91.7652 72.041C92.262 72.041 92.7564 72.1755 93.2486 72.4443C93.7454 72.7087 94.1236 73.0892 94.3834 73.5859C94.6477 74.0781 94.7799 74.5658 94.7799 75.0488C94.7799 75.8828 94.4859 76.5938 93.898 77.1816C93.3102 77.7695 92.5992 78.0635 91.7652 78.0635C90.9358 78.0635 90.2271 77.7695 89.6393 77.1816C89.0514 76.5938 88.7574 75.8828 88.7574 75.0488C88.7574 74.5566 88.8827 74.069 89.1334 73.5859C89.3886 73.0983 89.76 72.7201 90.2477 72.4512C90.7398 72.1777 91.2457 72.041 91.7652 72.041ZM100.428 72.041C100.925 72.041 101.419 72.1755 101.912 72.4443C102.408 72.7087 102.787 73.0892 103.046 73.5859C103.311 74.0781 103.443 74.5658 103.443 75.0488C103.443 75.8828 103.149 76.5938 102.561 77.1816C101.973 77.7695 101.262 78.0635 100.428 78.0635C99.5987 78.0635 98.89 77.7695 98.3021 77.1816C97.7143 76.5938 97.4203 75.8828 97.4203 75.0488C97.4203 74.5566 97.5456 74.069 97.7963 73.5859C98.0515 73.0983 98.4229 72.7201 98.9105 72.4512C99.4027 72.1777 99.9086 72.041 100.428 72.041ZM112.654 72.041C113.151 72.041 113.646 72.1755 114.138 72.4443C114.634 72.7087 115.013 73.0892 115.272 73.5859C115.537 74.0781 115.669 74.5658 115.669 75.0488C115.669 75.8828 115.375 76.5938 114.787 77.1816C114.199 77.7695 113.488 78.0635 112.654 78.0635C111.825 78.0635 111.116 77.7695 110.528 77.1816C109.94 76.5938 109.646 75.8828 109.646 75.0488C109.646 74.5566 109.772 74.069 110.022 73.5859C110.278 73.0983 110.649 72.7201 111.137 72.4512C111.629 72.1777 112.135 72.041 112.654 72.041ZM121.317 72.041C121.814 72.041 122.308 72.1755 122.801 72.4443C123.297 72.7087 123.676 73.0892 123.935 73.5859C124.2 74.0781 124.332 74.5658 124.332 75.0488C124.332 75.8828 124.038 76.5938 123.45 77.1816C122.862 77.7695 122.151 78.0635 121.317 78.0635C120.488 78.0635 119.779 77.7695 119.191 77.1816C118.603 76.5938 118.309 75.8828 118.309 75.0488C118.309 74.5566 118.435 74.069 118.685 73.5859C118.941 73.0983 119.312 72.7201 119.8 72.4512C120.292 72.1777 120.798 72.041 121.317 72.041ZM129.98 72.041C130.477 72.041 130.971 72.1755 131.463 72.4443C131.96 72.7087 132.338 73.0892 132.598 73.5859C132.863 74.0781 132.995 74.5658 132.995 75.0488C132.995 75.8828 132.701 76.5938 132.113 77.1816C131.525 77.7695 130.814 78.0635 129.98 78.0635C129.151 78.0635 128.442 77.7695 127.854 77.1816C127.266 76.5938 126.972 75.8828 126.972 75.0488C126.972 74.5566 127.098 74.069 127.348 73.5859C127.603 73.0983 127.975 72.7201 128.463 72.4512C128.955 72.1777 129.461 72.041 129.98 72.041ZM138.643 72.041C139.14 72.041 139.634 72.1755 140.126 72.4443C140.623 72.7087 141.001 73.0892 141.261 73.5859C141.525 74.0781 141.658 74.5658 141.658 75.0488C141.658 75.8828 141.364 76.5938 140.776 77.1816C140.188 77.7695 139.477 78.0635 138.643 78.0635C137.814 78.0635 137.105 77.7695 136.517 77.1816C135.929 76.5938 135.635 75.8828 135.635 75.0488C135.635 74.5566 135.76 74.069 136.011 73.5859C136.266 73.0983 136.638 72.7201 137.125 72.4512C137.618 72.1777 138.123 72.041 138.643 72.041ZM150.173 79.182C149.58 79.182 149.048 79.0443 148.577 78.769C148.11 78.4937 147.741 78.125 147.471 77.663C147.2 77.201 147.065 76.6877 147.065 76.123H148.521C148.521 76.417 148.591 76.6853 148.731 76.928C148.871 77.1707 149.064 77.3643 149.312 77.509C149.559 77.6537 149.846 77.726 150.173 77.726C150.467 77.726 150.74 77.6537 150.992 77.509C151.244 77.3643 151.447 77.1707 151.601 76.928C151.755 76.6853 151.832 76.417 151.832 76.123C151.832 75.7497 151.734 75.437 151.538 75.185C151.342 74.933 151.069 74.7463 150.719 74.625C150.373 74.499 149.974 74.436 149.522 74.436V73.288C150.138 73.288 150.63 73.1667 150.999 72.924C151.367 72.6813 151.552 72.3197 151.552 71.839C151.552 71.587 151.484 71.3583 151.349 71.153C151.218 70.943 151.043 70.7773 150.824 70.656C150.609 70.53 150.378 70.467 150.131 70.467C149.874 70.467 149.627 70.53 149.389 70.656C149.155 70.7773 148.964 70.943 148.815 71.153C148.665 71.3583 148.591 71.587 148.591 71.839H147.135C147.135 71.4517 147.214 71.0877 147.373 70.747C147.536 70.4017 147.755 70.1007 148.031 69.844C148.311 69.5827 148.628 69.3797 148.983 69.235C149.342 69.0857 149.718 69.011 150.11 69.011C150.623 69.011 151.099 69.1393 151.538 69.396C151.981 69.648 152.336 69.9887 152.602 70.418C152.872 70.8427 153.008 71.3163 153.008 71.839C153.008 72.2543 152.905 72.6487 152.7 73.022C152.499 73.3907 152.219 73.652 151.86 73.806C152.172 73.918 152.434 74.0953 152.644 74.338C152.858 74.576 153.019 74.8513 153.127 75.164C153.234 75.472 153.288 75.7917 153.288 76.123C153.288 76.683 153.145 77.1963 152.861 77.663C152.576 78.125 152.196 78.4937 151.72 78.769C151.248 79.0443 150.733 79.182 150.173 79.182ZM157.686 79.182C157.061 79.182 156.489 79.028 155.971 78.72C155.453 78.4073 155.038 77.992 154.725 77.474C154.417 76.9513 154.263 76.375 154.263 75.745C154.263 75.409 154.303 75.1057 154.382 74.835C154.461 74.5643 154.583 74.2797 154.746 73.981L157.504 69.2H159.198L157.287 72.504C157.674 72.4293 158.052 72.427 158.421 72.497C158.794 72.5623 159.144 72.6907 159.471 72.882C159.798 73.0687 160.085 73.3067 160.332 73.596C160.584 73.8807 160.78 74.205 160.92 74.569C161.06 74.933 161.13 75.325 161.13 75.745C161.13 76.2163 161.039 76.6597 160.857 77.075C160.68 77.4903 160.432 77.8567 160.115 78.174C159.802 78.4867 159.436 78.734 159.016 78.916C158.601 79.0933 158.157 79.182 157.686 79.182ZM157.686 77.726C158.069 77.726 158.409 77.6327 158.708 77.446C159.007 77.2593 159.242 77.0143 159.415 76.711C159.588 76.4077 159.674 76.0857 159.674 75.745C159.674 75.3857 159.585 75.0567 159.408 74.758C159.235 74.4593 159 74.2213 158.701 74.044C158.402 73.862 158.069 73.771 157.7 73.771C157.317 73.771 156.977 73.8643 156.678 74.051C156.379 74.2377 156.144 74.4803 155.971 74.779C155.803 75.0777 155.719 75.3997 155.719 75.745C155.719 76.123 155.81 76.4613 155.992 76.76C156.179 77.0587 156.421 77.2943 156.72 77.467C157.019 77.6397 157.341 77.726 157.686 77.726ZM162.315 79V77.705C162.647 77.4297 163.027 77.11 163.456 76.746C163.886 76.3773 164.322 75.9877 164.765 75.577C165.209 75.1617 165.617 74.7487 165.99 74.338C166.364 73.9227 166.665 73.5307 166.893 73.162C167.127 72.7887 167.243 72.4643 167.243 72.189C167.243 71.8763 167.166 71.5917 167.012 71.335C166.863 71.0737 166.66 70.866 166.403 70.712C166.147 70.5533 165.862 70.474 165.549 70.474C165.237 70.474 164.95 70.5533 164.688 70.712C164.432 70.866 164.224 71.0737 164.065 71.335C163.911 71.5917 163.834 71.8763 163.834 72.189H162.378C162.378 71.5963 162.523 71.062 162.812 70.586C163.106 70.1053 163.491 69.725 163.967 69.445C164.448 69.1603 164.975 69.018 165.549 69.018C166.128 69.018 166.655 69.1603 167.131 69.445C167.607 69.7297 167.988 70.1123 168.272 70.593C168.557 71.069 168.699 71.601 168.699 72.189C168.699 72.5157 168.632 72.8517 168.496 73.197C168.361 73.5423 168.172 73.8947 167.929 74.254C167.691 74.6133 167.414 74.9773 167.096 75.346C166.779 75.7147 166.438 76.0833 166.074 76.452C165.71 76.8207 165.339 77.1847 164.961 77.544H168.783V79H162.315ZM171.994 79L173.975 75.57C173.503 75.6587 173.044 75.64 172.596 75.514C172.152 75.3833 171.753 75.171 171.399 74.877C171.044 74.5783 170.762 74.2167 170.552 73.792C170.342 73.3673 170.237 72.9007 170.237 72.392C170.237 71.93 170.323 71.496 170.496 71.09C170.673 70.6793 170.916 70.32 171.224 70.012C171.532 69.6993 171.889 69.4567 172.295 69.284C172.705 69.1067 173.144 69.018 173.611 69.018C174.222 69.018 174.782 69.1697 175.291 69.473C175.799 69.7763 176.205 70.1847 176.509 70.698C176.812 71.2067 176.964 71.7713 176.964 72.392C176.964 72.714 176.924 73.008 176.845 73.274C176.77 73.54 176.651 73.82 176.488 74.114L173.681 79H171.994ZM173.597 74.303C173.97 74.303 174.301 74.2143 174.591 74.037C174.88 73.855 175.106 73.6193 175.27 73.33C175.438 73.036 175.522 72.721 175.522 72.385C175.522 72.021 175.433 71.6943 175.256 71.405C175.078 71.1157 174.843 70.887 174.549 70.719C174.259 70.551 173.947 70.467 173.611 70.467C173.237 70.467 172.906 70.558 172.617 70.74C172.327 70.922 172.099 71.16 171.931 71.454C171.763 71.7433 171.679 72.0537 171.679 72.385C171.679 72.735 171.763 73.057 171.931 73.351C172.103 73.6403 172.334 73.8713 172.624 74.044C172.913 74.2167 173.237 74.303 173.597 74.303Z" fill="white"/>
<path fill-rule="evenodd" clip-rule="evenodd" d="M278.278 38.8243C277.3 38.4325 275.747 38 273.828 38C268.928 38 265.478 40.6362 265.457 44.4051C265.416 47.1859 267.927 48.7304 269.805 49.6575C271.725 50.605 272.377 51.2234 272.377 52.0679C272.358 53.3649 270.826 53.9628 269.398 53.9628C267.417 53.9628 266.355 53.6545 264.742 52.9329L264.089 52.6236L263.395 56.9696C264.558 57.5045 266.702 57.9792 268.928 58C274.134 58 277.524 55.4046 277.564 51.3882C277.584 49.1842 276.258 47.4955 273.399 46.1155C271.664 45.2297 270.601 44.6324 270.601 43.726C270.621 42.902 271.5 42.058 273.459 42.058C275.072 42.0167 276.257 42.4079 277.155 42.7993L277.603 43.0049L278.278 38.8243ZM260.292 57.7111H255.33L258.433 38.3506H263.395L260.292 57.7111ZM290.996 38.3516H287.159C285.975 38.3516 285.076 38.7014 284.565 39.9579L277.195 57.7118H282.401C282.401 57.7118 283.259 55.3223 283.443 54.8076H289.813C289.956 55.4873 290.405 57.7118 290.405 57.7118H294.999L290.996 38.3516ZM284.872 50.8535C285.281 49.7412 286.853 45.4366 286.853 45.4366C286.845 45.4532 286.909 45.2727 287.005 45.0041L287.006 45.002L287.006 45.0015C287.149 44.6032 287.36 44.0126 287.506 43.583L287.853 45.2512C287.853 45.2512 288.792 49.8855 288.996 50.8535H284.872ZM251.185 38.3506L246.326 51.5526L245.795 48.8754C245.796 48.8756 245.796 48.8757 245.796 48.8759L244.06 39.978C243.775 38.7415 242.897 38.3914 241.815 38.3506H233.832L233.75 38.7418C235.697 39.2441 237.438 39.9679 238.964 40.8678L243.386 57.6906H248.633L256.432 38.3506H251.185Z" fill="white"/>
<g clip-path="url(#clip0_1248_39552)">
<path d="M314.454 63.8406V61.7226C314.454 60.9106 313.961 60.3812 313.117 60.3812C312.696 60.3812 312.238 60.5224 311.922 60.9813C311.676 60.593 311.324 60.3812 310.797 60.3812C310.445 60.3812 310.094 60.487 309.813 60.8753V60.4518H309.074V63.8406H309.813V61.9696C309.813 61.3696 310.129 61.0871 310.621 61.0871C311.113 61.0871 311.36 61.4049 311.36 61.9696V63.8406H312.098V61.9696C312.098 61.3696 312.449 61.0871 312.906 61.0871C313.399 61.0871 313.645 61.4049 313.645 61.9696V63.8406H314.454ZM325.388 60.4518H324.192V59.4281H323.454V60.4518H322.786V61.1223H323.454V62.6757C323.454 63.4524 323.77 63.9112 324.614 63.9112C324.931 63.9112 325.282 63.8053 325.528 63.6642L325.317 63.0287C325.106 63.1698 324.86 63.2052 324.684 63.2052C324.333 63.2052 324.192 62.9934 324.192 62.6403V61.1223H325.388V60.4518ZM331.646 60.381C331.224 60.381 330.943 60.593 330.767 60.8753V60.4518H330.029V63.8406H330.767V61.9344C330.767 61.3696 331.013 61.0519 331.47 61.0519C331.611 61.0519 331.786 61.0873 331.927 61.1225L332.138 60.4166C331.997 60.3812 331.786 60.3812 331.646 60.3812V60.381ZM322.188 60.7341C321.837 60.487 321.344 60.3812 320.817 60.3812C319.973 60.3812 319.411 60.8047 319.411 61.4755C319.411 62.0404 319.833 62.3579 320.571 62.4639L320.923 62.4993C321.309 62.5697 321.52 62.6757 321.52 62.8523C321.52 63.0993 321.239 63.2758 320.747 63.2758C320.255 63.2758 319.868 63.0993 319.622 62.9229L319.27 63.4876C319.657 63.77 320.184 63.9112 320.711 63.9112C321.696 63.9112 322.259 63.4524 322.259 62.8169C322.259 62.2168 321.802 61.899 321.098 61.7932L320.747 61.7578C320.43 61.7225 320.184 61.652 320.184 61.4402C320.184 61.1931 320.43 61.0519 320.817 61.0519C321.239 61.0519 321.661 61.2283 321.872 61.3343L322.188 60.7341ZM341.807 60.3812C341.385 60.3812 341.103 60.593 340.928 60.8753V60.4518H340.189V63.8406H340.928V61.9344C340.928 61.3696 341.174 61.0519 341.631 61.0519C341.771 61.0519 341.947 61.0873 342.088 61.1225L342.299 60.4166C342.158 60.3812 341.947 60.3812 341.807 60.3812ZM332.384 62.1462C332.384 63.1698 333.087 63.9112 334.177 63.9112C334.669 63.9112 335.021 63.8053 335.373 63.523L335.021 62.9229C334.74 63.1346 334.459 63.2404 334.142 63.2404C333.544 63.2404 333.122 62.8169 333.122 62.1462C333.122 61.5108 333.544 61.0871 334.142 61.0519C334.459 61.0519 334.74 61.1577 335.021 61.3696L335.373 60.7695C335.021 60.487 334.669 60.3812 334.177 60.3812C333.087 60.3812 332.384 61.1225 332.384 62.1462ZM339.205 62.1462V60.4518H338.467V60.8753C338.22 60.5577 337.869 60.3812 337.412 60.3812C336.463 60.3812 335.724 61.1225 335.724 62.1462C335.724 63.1698 336.463 63.9112 337.412 63.9112C337.904 63.9112 338.256 63.7348 338.467 63.417V63.8406H339.205V62.1462ZM336.498 62.1462C336.498 61.546 336.884 61.0519 337.517 61.0519C338.115 61.0519 338.537 61.5108 338.537 62.1462C338.537 62.7463 338.115 63.2404 337.517 63.2404C336.884 63.2051 336.498 62.7463 336.498 62.1462ZM327.673 60.3812C326.689 60.3812 325.985 61.0871 325.985 62.1462C325.985 63.2052 326.688 63.9112 327.708 63.9112C328.2 63.9112 328.693 63.77 329.079 63.4524L328.728 62.9229C328.446 63.1346 328.095 63.2758 327.743 63.2758C327.286 63.2758 326.829 63.064 326.724 62.4638H329.22V62.1815C329.255 61.0871 328.622 60.3812 327.673 60.3812H327.673ZM327.673 61.0165C328.13 61.0165 328.447 61.2991 328.517 61.8286H326.759C326.829 61.3696 327.146 61.0165 327.673 61.0165ZM345.99 62.1462V59.1104H345.252V60.8753C345.006 60.5577 344.654 60.3812 344.197 60.3812C343.248 60.3812 342.51 61.1225 342.51 62.1462C342.51 63.1698 343.248 63.9112 344.197 63.9112C344.69 63.9112 345.041 63.7348 345.252 63.417V63.8406H345.99V62.1462ZM343.283 62.1462C343.283 61.546 343.67 61.0519 344.303 61.0519C344.901 61.0519 345.322 61.5108 345.322 62.1462C345.322 62.7463 344.901 63.2404 344.303 63.2404C343.67 63.2051 343.283 62.7463 343.283 62.1462ZM318.602 62.1462V60.4518H317.864V60.8753C317.618 60.5577 317.266 60.3812 316.809 60.3812C315.86 60.3812 315.121 61.1225 315.121 62.1462C315.121 63.1698 315.86 63.9112 316.809 63.9112C317.301 63.9112 317.653 63.7348 317.864 63.417V63.8406H318.602V62.1462ZM315.86 62.1462C315.86 61.546 316.246 61.0519 316.879 61.0519C317.477 61.0519 317.899 61.5108 317.899 62.1462C317.899 62.7463 317.477 63.2404 316.879 63.2404C316.246 63.2051 315.86 62.7463 315.86 62.1462Z" fill="white"/>
<path d="M321.941 34.7178H333.016V54.6978H321.941V34.7178Z" fill="#FF5F00"/>
<path d="M322.646 44.7082C322.646 40.6487 324.544 37.048 327.462 34.7181C325.318 33.0237 322.61 32 319.657 32C312.66 32 307 37.6833 307 44.7082C307 51.7329 312.66 57.4164 319.657 57.4164C322.61 57.4164 325.317 56.3927 327.462 54.6981C324.544 52.4036 322.646 48.7677 322.646 44.7082Z" fill="#EB001B"/>
<path d="M347.96 44.7082C347.96 51.7329 342.3 57.4164 335.303 57.4164C332.35 57.4164 329.643 56.3927 327.498 54.6981C330.451 52.3684 332.315 48.7677 332.315 44.7082C332.315 40.6487 330.416 37.048 327.498 34.7181C329.643 33.0237 332.35 32 335.303 32C342.3 32 347.96 37.7187 347.96 44.7082H347.96Z" fill="#F79E1B"/>
</g>
<path d="M38.846 113.2H40.561L37.215 118.576V123H35.759V118.576L32.42 113.2H34.135L36.487 116.987L38.846 113.2ZM43.7489 123.182C43.1049 123.182 42.5169 123.016 41.9849 122.685C41.4576 122.354 41.0352 121.91 40.7179 121.355C40.4052 120.795 40.2489 120.177 40.2489 119.5C40.2489 118.987 40.3399 118.508 40.5219 118.065C40.7039 117.617 40.9536 117.225 41.2709 116.889C41.5929 116.548 41.9662 116.282 42.3909 116.091C42.8156 115.9 43.2682 115.804 43.7489 115.804C44.3929 115.804 44.9786 115.97 45.5059 116.301C46.0379 116.632 46.4602 117.078 46.7729 117.638C47.0902 118.198 47.2489 118.819 47.2489 119.5C47.2489 120.009 47.1579 120.485 46.9759 120.928C46.7939 121.371 46.5419 121.763 46.2199 122.104C45.9026 122.44 45.5316 122.704 45.1069 122.895C44.6869 123.086 44.2342 123.182 43.7489 123.182ZM43.7489 121.726C44.1362 121.726 44.4839 121.623 44.7919 121.418C45.0999 121.213 45.3426 120.942 45.5199 120.606C45.7019 120.265 45.7929 119.897 45.7929 119.5C45.7929 119.094 45.6996 118.721 45.5129 118.38C45.3309 118.039 45.0859 117.769 44.7779 117.568C44.4699 117.363 44.1269 117.26 43.7489 117.26C43.3662 117.26 43.0186 117.363 42.7059 117.568C42.3979 117.773 42.1529 118.046 41.9709 118.387C41.7936 118.728 41.7049 119.099 41.7049 119.5C41.7049 119.915 41.7982 120.291 41.9849 120.627C42.1716 120.963 42.4189 121.231 42.7269 121.432C43.0396 121.628 43.3802 121.726 43.7489 121.726ZM48.4431 119.654V116H49.8991V119.626C49.8991 120.023 49.9808 120.384 50.1441 120.711C50.3121 121.033 50.5385 121.292 50.8231 121.488C51.1125 121.679 51.4415 121.775 51.8101 121.775C52.1695 121.775 52.4845 121.679 52.7551 121.488C53.0305 121.292 53.2428 121.033 53.3921 120.711C53.5461 120.384 53.6231 120.023 53.6231 119.626V116H55.0791V123H53.6231V122.048C53.3805 122.398 53.0865 122.676 52.7411 122.881C52.3958 123.086 52.0061 123.189 51.5721 123.189C50.9468 123.189 50.3985 123.03 49.9271 122.713C49.4605 122.391 49.0988 121.962 48.8421 121.425C48.5855 120.888 48.4525 120.298 48.4431 119.654ZM61.0926 117.463C60.9713 117.388 60.8383 117.33 60.6936 117.288C60.5536 117.241 60.3996 117.218 60.2316 117.218C59.8676 117.218 59.5503 117.314 59.2796 117.505C59.009 117.696 58.7966 117.955 58.6426 118.282C58.4933 118.609 58.4186 118.97 58.4186 119.367V123H56.9556V116H58.4116V116.945C58.6543 116.595 58.9483 116.32 59.2936 116.119C59.6436 115.914 60.0333 115.811 60.4626 115.811C60.6213 115.811 60.7706 115.818 60.9106 115.832C61.0553 115.846 61.193 115.874 61.3236 115.916L61.0926 117.463ZM69.773 115.804C70.4543 115.804 71.0726 115.97 71.628 116.301C72.188 116.632 72.6336 117.078 72.965 117.638C73.2963 118.193 73.462 118.812 73.462 119.493C73.462 120.002 73.3663 120.48 73.175 120.928C72.9836 121.371 72.7176 121.763 72.377 122.104C72.041 122.44 71.649 122.704 71.201 122.895C70.7576 123.086 70.2816 123.182 69.773 123.182C69.283 123.182 68.8536 123.07 68.485 122.846C68.121 122.617 67.8223 122.326 67.589 121.971V123H66.133V112.5H67.589V117.015C67.8223 116.656 68.121 116.364 68.485 116.14C68.8536 115.916 69.283 115.804 69.773 115.804ZM69.759 121.768C70.165 121.768 70.536 121.665 70.872 121.46C71.208 121.255 71.474 120.979 71.67 120.634C71.8706 120.289 71.971 119.908 71.971 119.493C71.971 119.068 71.8706 118.683 71.67 118.338C71.4693 117.993 71.201 117.72 70.865 117.519C70.529 117.314 70.1603 117.211 69.759 117.211C69.353 117.211 68.996 117.314 68.688 117.519C68.38 117.724 68.1396 118 67.967 118.345C67.7943 118.69 67.708 119.073 67.708 119.493C67.708 119.913 67.7943 120.296 67.967 120.641C68.1396 120.986 68.38 121.262 68.688 121.467C68.996 121.668 69.353 121.768 69.759 121.768ZM80.3052 116H81.7612V123H80.2982L80.2422 121.985C80.0369 122.344 79.7592 122.634 79.4092 122.853C79.0639 123.072 78.6532 123.182 78.1772 123.182C77.6592 123.182 77.1739 123.086 76.7212 122.895C76.2732 122.699 75.8765 122.428 75.5312 122.083C75.1905 121.738 74.9222 121.341 74.7262 120.893C74.5349 120.44 74.4392 119.955 74.4392 119.437C74.4392 118.938 74.5325 118.469 74.7192 118.03C74.9059 117.587 75.1649 117.199 75.4962 116.868C75.8275 116.537 76.2102 116.278 76.6442 116.091C77.0829 115.9 77.5519 115.804 78.0512 115.804C78.5599 115.804 79.0079 115.921 79.3952 116.154C79.7872 116.383 80.1092 116.677 80.3612 117.036L80.3052 116ZM78.2122 121.775C78.6322 121.775 78.9939 121.67 79.2972 121.46C79.6052 121.25 79.8362 120.968 79.9902 120.613C80.1489 120.258 80.2165 119.866 80.1932 119.437C80.1652 119.026 80.0555 118.653 79.8642 118.317C79.6775 117.981 79.4279 117.715 79.1152 117.519C78.8025 117.318 78.4479 117.218 78.0512 117.218C77.6359 117.218 77.2602 117.323 76.9242 117.533C76.5929 117.743 76.3362 118.025 76.1542 118.38C75.9722 118.735 75.8929 119.129 75.9162 119.563C75.9442 119.969 76.0655 120.34 76.2802 120.676C76.4995 121.012 76.7772 121.28 77.1132 121.481C77.4539 121.677 77.8202 121.775 78.2122 121.775ZM83.7205 123V112.5H85.1695V123H83.7205ZM92.6544 116H94.1104V123H92.6474L92.5914 121.985C92.3861 122.344 92.1084 122.634 91.7584 122.853C91.4131 123.072 91.0024 123.182 90.5264 123.182C90.0084 123.182 89.5231 123.086 89.0704 122.895C88.6224 122.699 88.2257 122.428 87.8804 122.083C87.5397 121.738 87.2714 121.341 87.0754 120.893C86.8841 120.44 86.7884 119.955 86.7884 119.437C86.7884 118.938 86.8817 118.469 87.0684 118.03C87.2551 117.587 87.5141 117.199 87.8454 116.868C88.1767 116.537 88.5594 116.278 88.9934 116.091C89.4321 115.9 89.9011 115.804 90.4004 115.804C90.9091 115.804 91.3571 115.921 91.7444 116.154C92.1364 116.383 92.4584 116.677 92.7104 117.036L92.6544 116ZM90.5614 121.775C90.9814 121.775 91.3431 121.67 91.6464 121.46C91.9544 121.25 92.1854 120.968 92.3394 120.613C92.4981 120.258 92.5657 119.866 92.5424 119.437C92.5144 119.026 92.4047 118.653 92.2134 118.317C92.0267 117.981 91.7771 117.715 91.4644 117.519C91.1517 117.318 90.7971 117.218 90.4004 117.218C89.9851 117.218 89.6094 117.323 89.2734 117.533C88.9421 117.743 88.6854 118.025 88.5034 118.38C88.3214 118.735 88.2421 119.129 88.2654 119.563C88.2934 119.969 88.4147 120.34 88.6294 120.676C88.8487 121.012 89.1264 121.28 89.4624 121.481C89.8031 121.677 90.1694 121.775 90.5614 121.775ZM102.482 119.332V123H101.026V119.36C101.026 118.963 100.942 118.604 100.774 118.282C100.61 117.955 100.384 117.696 100.095 117.505C99.81 117.309 99.4857 117.211 99.1217 117.211C98.7577 117.211 98.438 117.309 98.1627 117.505C97.892 117.696 97.6797 117.955 97.5257 118.282C97.3764 118.604 97.3017 118.963 97.3017 119.36V123H95.8457V116H97.3017V116.945C97.5444 116.59 97.8384 116.313 98.1837 116.112C98.529 115.907 98.9187 115.804 99.3527 115.804C99.9827 115.804 100.529 115.965 100.991 116.287C101.457 116.609 101.821 117.036 102.083 117.568C102.344 118.1 102.477 118.688 102.482 119.332ZM108.563 121.012L109.865 121.719C109.548 122.162 109.144 122.517 108.654 122.783C108.169 123.049 107.642 123.182 107.072 123.182C106.428 123.182 105.84 123.016 105.308 122.685C104.781 122.354 104.359 121.91 104.041 121.355C103.729 120.795 103.572 120.177 103.572 119.5C103.572 118.987 103.663 118.508 103.845 118.065C104.027 117.617 104.277 117.225 104.594 116.889C104.916 116.548 105.29 116.282 105.714 116.091C106.139 115.9 106.592 115.804 107.072 115.804C107.642 115.804 108.169 115.937 108.654 116.203C109.144 116.469 109.548 116.826 109.865 117.274L108.563 117.981C108.367 117.748 108.139 117.57 107.877 117.449C107.616 117.323 107.348 117.26 107.072 117.26C106.69 117.26 106.342 117.365 106.029 117.575C105.721 117.78 105.476 118.053 105.294 118.394C105.117 118.73 105.028 119.099 105.028 119.5C105.028 119.897 105.119 120.265 105.301 120.606C105.483 120.942 105.728 121.213 106.036 121.418C106.349 121.623 106.694 121.726 107.072 121.726C107.362 121.726 107.637 121.661 107.898 121.53C108.16 121.399 108.381 121.227 108.563 121.012ZM114.19 123.182C113.546 123.182 112.958 123.016 112.426 122.685C111.899 122.354 111.477 121.91 111.159 121.355C110.847 120.795 110.69 120.177 110.69 119.5C110.69 118.987 110.781 118.508 110.963 118.065C111.145 117.617 111.395 117.225 111.712 116.889C112.034 116.548 112.408 116.282 112.832 116.091C113.257 115.9 113.71 115.804 114.19 115.804C114.727 115.804 115.219 115.916 115.667 116.14C116.115 116.359 116.498 116.665 116.815 117.057C117.133 117.444 117.366 117.892 117.515 118.401C117.665 118.905 117.709 119.442 117.648 120.011H112.251C112.312 120.333 112.429 120.625 112.601 120.886C112.779 121.143 113.003 121.346 113.273 121.495C113.549 121.644 113.854 121.721 114.19 121.726C114.545 121.726 114.867 121.637 115.156 121.46C115.45 121.283 115.691 121.038 115.877 120.725L117.354 121.068C117.074 121.689 116.652 122.197 116.087 122.594C115.523 122.986 114.89 123.182 114.19 123.182ZM112.202 118.898H116.178C116.132 118.562 116.013 118.259 115.821 117.988C115.635 117.713 115.399 117.496 115.114 117.337C114.834 117.174 114.526 117.092 114.19 117.092C113.859 117.092 113.551 117.171 113.266 117.33C112.986 117.489 112.753 117.706 112.566 117.981C112.384 118.252 112.263 118.557 112.202 118.898Z" fill="white"/>
<path d="M46.496 153.704C45.36 153.688 44.28 153.872 43.256 154.256C42.248 154.624 41.424 155.128 40.784 155.768C40.144 156.408 39.824 157.144 39.824 157.976C39.824 159.048 40.12 159.856 40.712 160.4C41.32 160.944 42.128 161.344 43.136 161.6C44.144 161.84 45.264 162.064 46.496 162.272C48.736 162.624 50.808 163.216 52.712 164.048C54.616 164.88 56.144 165.992 57.296 167.384C58.448 168.76 59.024 170.448 59.024 172.448C59.024 174.272 58.552 175.896 57.608 177.32C56.664 178.728 55.392 179.88 53.792 180.776C52.208 181.672 50.448 182.24 48.512 182.48V187.376H44.504V182.48C42.888 182.288 41.368 181.88 39.944 181.256C38.52 180.632 37.28 179.816 36.224 178.808C35.184 177.8 34.416 176.624 33.92 175.28L39.416 173.264C39.64 173.904 40.096 174.488 40.784 175.016C41.472 175.544 42.312 175.968 43.304 176.288C44.296 176.608 45.36 176.768 46.496 176.768C47.664 176.768 48.752 176.592 49.76 176.24C50.784 175.872 51.608 175.368 52.232 174.728C52.856 174.072 53.168 173.312 53.168 172.448C53.168 171.568 52.84 170.848 52.184 170.288C51.528 169.712 50.688 169.256 49.664 168.92C48.64 168.584 47.584 168.328 46.496 168.152C44.112 167.784 41.976 167.216 40.088 166.448C38.2 165.68 36.704 164.616 35.6 163.256C34.512 161.896 33.968 160.136 33.968 157.976C33.968 156.152 34.44 154.528 35.384 153.104C36.344 151.68 37.616 150.528 39.2 149.648C40.8 148.752 42.568 148.184 44.504 147.944V143.024H48.512V147.944C50.096 148.136 51.6 148.544 53.024 149.168C54.448 149.792 55.688 150.616 56.744 151.64C57.816 152.648 58.6 153.832 59.096 155.192L53.576 157.184C53.352 156.544 52.896 155.96 52.208 155.432C51.52 154.904 50.68 154.488 49.688 154.184C48.696 153.864 47.632 153.704 46.496 153.704ZM67.9756 182L74.4316 170.84C72.8476 170.936 71.3356 170.72 69.8956 170.192C68.4716 169.664 67.1996 168.88 66.0796 167.84C64.9596 166.8 64.0716 165.568 63.4156 164.144C62.7756 162.72 62.4556 161.176 62.4556 159.512C62.4556 157.896 62.7596 156.384 63.3676 154.976C63.9756 153.552 64.8156 152.304 65.8876 151.232C66.9756 150.144 68.2236 149.296 69.6316 148.688C71.0556 148.08 72.5836 147.776 74.2156 147.776C76.3436 147.776 78.2876 148.304 80.0476 149.36C81.8236 150.416 83.2396 151.832 84.2956 153.608C85.3676 155.384 85.9036 157.352 85.9036 159.512C85.9036 160.584 85.7676 161.6 85.4956 162.56C85.2396 163.504 84.8316 164.464 84.2716 165.44L74.7436 182H67.9756ZM74.1676 165.392C75.3196 165.392 76.3356 165.112 77.2156 164.552C78.1116 163.992 78.8076 163.264 79.3036 162.368C79.7996 161.472 80.0476 160.512 80.0476 159.488C80.0476 158.368 79.7756 157.368 79.2316 156.488C78.6876 155.592 77.9676 154.896 77.0716 154.4C76.1756 153.888 75.2236 153.632 74.2156 153.632C73.0636 153.632 72.0396 153.912 71.1436 154.472C70.2636 155.016 69.5676 155.736 69.0556 156.632C68.5436 157.528 68.2876 158.48 68.2876 159.488C68.2876 160.56 68.5436 161.544 69.0556 162.44C69.5836 163.336 70.2876 164.056 71.1676 164.6C72.0636 165.128 73.0636 165.392 74.1676 165.392ZM100.559 182.624C98.3994 182.624 96.4474 182.104 94.7034 181.064C92.9594 180.008 91.5754 178.608 90.5514 176.864C89.5434 175.12 89.0394 173.208 89.0394 171.128H94.8954C94.8954 172.168 95.1514 173.12 95.6634 173.984C96.1754 174.832 96.8554 175.512 97.7034 176.024C98.5674 176.52 99.5194 176.768 100.559 176.768C101.599 176.768 102.543 176.52 103.391 176.024C104.239 175.512 104.919 174.832 105.431 173.984C105.943 173.12 106.199 172.168 106.199 171.128C106.199 170.088 105.975 169.136 105.527 168.272C105.095 167.392 104.383 166.696 103.391 166.184C102.415 165.656 101.119 165.392 99.5034 165.392H90.8634L94.4154 148.4H110.927V154.256H99.1674L98.0874 159.536L100.463 159.56C102.735 159.64 104.743 160.192 106.487 161.216C108.231 162.24 109.591 163.616 110.567 165.344C111.559 167.056 112.055 168.984 112.055 171.128C112.055 172.696 111.759 174.176 111.167 175.568C110.575 176.96 109.751 178.184 108.695 179.24C107.639 180.296 106.415 181.128 105.023 181.736C103.647 182.328 102.159 182.624 100.559 182.624ZM117.562 182L133.57 154.256H115.882V148.4H140.362V154.256L124.306 182H117.562ZM143.233 184.688L144.721 176.576H150.577L147.145 184.688H143.233ZM166.653 182.624C164.493 182.624 162.541 182.104 160.797 181.064C159.053 180.008 157.669 178.608 156.645 176.864C155.637 175.12 155.133 173.208 155.133 171.128H160.989C160.989 172.168 161.245 173.12 161.757 173.984C162.269 174.832 162.949 175.512 163.797 176.024C164.661 176.52 165.613 176.768 166.653 176.768C167.693 176.768 168.637 176.52 169.485 176.024C170.333 175.512 171.013 174.832 171.525 173.984C172.037 173.12 172.293 172.168 172.293 171.128C172.293 170.088 172.069 169.136 171.621 168.272C171.189 167.392 170.477 166.696 169.485 166.184C168.509 165.656 167.213 165.392 165.597 165.392H156.957L160.509 148.4H177.021V154.256H165.261L164.181 159.536L166.557 159.56C168.829 159.64 170.837 160.192 172.581 161.216C174.325 162.24 175.685 163.616 176.661 165.344C177.653 167.056 178.149 168.984 178.149 171.128C178.149 172.696 177.853 174.176 177.261 175.568C176.669 176.96 175.845 178.184 174.789 179.24C173.733 180.296 172.509 181.128 171.117 181.736C169.741 182.328 168.253 182.624 166.653 182.624Z" fill="white"/>

<defs>
<clipPath id="clip0_1248_39552">
<rect width="41" height="32" fill="white" transform="translate(307 32)"/>
</clipPath>
</defs>
</svg>
