<svg width="35" height="35" viewBox="0 0 35 35" fill="none" xmlns="http://www.w3.org/2000/svg">
<path fill-rule="evenodd" clip-rule="evenodd" d="M24.3049 2.93176C26.4027 2.80064 28.4714 3.52906 30.0302 4.95675C31.4579 6.51555 32.1863 8.58425 32.0698 10.6966V24.3034C32.2009 26.4158 31.4579 28.4845 30.0448 30.0433C28.486 31.471 26.4027 32.1994 24.3049 32.0683H10.698C8.58557 32.1994 6.51686 31.471 4.95805 30.0433C3.53034 28.4845 2.80193 26.4158 2.93304 24.3034V10.6966C2.80193 8.58425 3.53034 6.51555 4.95805 4.95675C6.51686 3.52906 8.58557 2.80064 10.698 2.93176H24.3049ZM16.0149 24.5656L25.8195 14.732C26.7081 13.8288 26.7081 12.372 25.8195 11.4833L23.9256 9.58944C23.0223 8.68621 21.5655 8.68621 20.6623 9.58944L19.6862 10.5801C19.5405 10.7258 19.5405 10.9734 19.6862 11.1191C19.6862 11.1191 22.0026 13.4209 22.0463 13.4792C22.2065 13.654 22.3085 13.8871 22.3085 14.1493C22.3085 14.6738 21.886 15.1108 21.347 15.1108C21.0993 15.1108 20.8662 15.0088 20.706 14.8486L18.273 12.4303C18.1565 12.3137 17.9525 12.3137 17.836 12.4303L10.8869 19.3793C10.4061 19.8601 10.1293 20.5011 10.1148 21.1858L10.0273 24.6385C10.0273 24.8278 10.0856 25.0027 10.2167 25.1338C10.3478 25.2649 10.5227 25.3377 10.7121 25.3377H14.1356C14.8349 25.3377 15.5051 25.0609 16.0149 24.5656Z" fill="#FEBB1B"/>
</svg>
