<svg width="20" height="21" viewBox="0 0 20 21" fill="currentColor" xmlns="http://www.w3.org/2000/svg">
    <path fill-rule="evenodd" clip-rule="evenodd" d="M8.16874 13.2106C8.68914 13.5633 9.32337 13.7766 9.99825 13.7766C11.7871 13.7766 13.2426 12.3081 13.2426 10.5032C13.2426 9.82221 13.0312 9.18228 12.6815 8.65721L11.7952 9.55147C11.9416 9.83041 12.0229 10.1586 12.0229 10.5032C12.0229 11.6271 11.1122 12.546 9.99825 12.546C9.65674 12.546 9.3315 12.464 9.05504 12.3163L8.16874 13.2106ZM15.3567 5.95801C16.5357 7.04097 17.5358 8.50132 18.2839 10.257C18.3489 10.4129 18.3489 10.5934 18.2839 10.7411C16.5438 14.8268 13.4459 17.2717 9.99825 17.2717H9.99012C8.42081 17.2717 6.91654 16.7548 5.59117 15.8113L4.01372 17.4029C3.89176 17.526 3.73726 17.5834 3.58277 17.5834C3.42828 17.5834 3.26566 17.526 3.15182 17.4029C2.94854 17.1978 2.91602 16.8696 3.07864 16.6317L3.10303 16.5989L15.129 4.46484L15.129 4.46483C15.1453 4.44843 15.1615 4.43202 15.1697 4.41561L15.1697 4.41561C15.1859 4.3992 15.2022 4.3828 15.2103 4.36639L15.9746 3.59519C16.2186 3.35727 16.6007 3.35727 16.8366 3.59519C17.0805 3.83311 17.0805 4.22692 16.8366 4.46484L15.3567 5.95801ZM6.74799 10.5064C6.74799 10.7197 6.77238 10.933 6.8049 11.1299L3.79638 14.1654C2.98326 13.2138 2.27585 12.0652 1.7148 10.7443C1.64975 10.5966 1.64975 10.4161 1.7148 10.2602C3.45487 6.17452 6.55284 3.73786 9.99232 3.73786H10.0004C11.1632 3.73786 12.2934 4.01681 13.3342 4.54188L10.6184 7.28209C10.4233 7.24928 10.2119 7.22466 10.0004 7.22466C8.20346 7.22466 6.74799 8.69322 6.74799 10.5064Z" fill="currentColor"/>
</svg>