<svg width="250" height="254" viewBox="0 0 250 254" fill="none" xmlns="http://www.w3.org/2000/svg">
<path fill-rule="evenodd" clip-rule="evenodd" d="M149.688 214.245C151.84 210.518 155.425 207.871 159.518 206.538C201.917 192.724 232.558 152.871 232.558 105.862C232.558 47.396 185.162 0 126.696 0C68.23 0 20.834 47.396 20.834 105.862C20.834 152.872 51.4754 192.725 93.8754 206.538C97.968 207.871 101.553 210.518 103.705 214.246L125.83 252.568C126.215 253.234 127.178 253.234 127.562 252.568L149.688 214.245Z" fill="url(#paint0_linear_1248_41843)"/>
<path d="M187.639 98.1382V97.7558L187.565 97.3795C187.301 96.043 186.489 92.7415 184.691 90.9778C183.177 89.4949 180.893 88.7382 177.905 88.7382C176.416 88.7382 175.102 88.9233 174.498 89.025C174.297 89.0348 174.096 89.0538 173.897 89.0819C172.532 82.9935 170.315 74.0735 168.167 69.6207C164.202 61.4065 158.885 59.7975 154.21 58.935C150.406 58.2382 146.564 57.762 142.705 57.509V46.5629C142.706 46.0857 142.519 45.6274 142.184 45.2881C141.848 44.9488 141.392 44.7562 140.915 44.7524H112.31C111.329 44.7524 110.522 45.5661 110.522 46.5629V57.509C106.662 57.7623 102.821 58.2384 99.0161 58.935C94.3436 59.7975 89.0241 61.4065 85.0615 69.6207C82.9113 74.0735 80.696 82.9935 79.3311 89.0819C79.1322 89.0528 78.9319 89.0338 78.731 89.025C78.1268 88.9233 76.8127 88.7382 75.3237 88.7382C72.3334 88.7382 70.051 89.4928 68.5355 90.9819C66.7393 92.7415 65.9277 96.043 65.6632 97.3815L65.5859 97.7558V98.1382C65.5902 100.095 66.3708 101.971 67.7562 103.353C69.1417 104.736 71.019 105.512 72.9762 105.512H74.4917C72.6507 108.437 70.0063 113.183 68.1572 118.84C66.955 122.53 67.3679 128.596 67.8927 134.492L67.9782 135.472C68.5823 142.449 72.665 144.852 76.5524 145.523V155.047C76.5524 157.039 78.1635 158.668 80.1265 158.668H94.429C96.3961 158.668 98.0051 157.039 98.0051 155.049V147.283C104.783 147.716 113.563 148.05 126.952 148.05C140.044 148.05 148.628 147.734 155.217 147.315V155.051C155.217 157.043 156.828 158.67 158.793 158.67H173.096C175.063 158.67 176.672 157.041 176.672 155.051V145.525C180.566 144.848 184.652 142.441 185.246 135.476L185.334 134.496C185.859 128.601 186.272 122.535 185.067 118.846C183.22 113.189 180.576 108.442 178.735 105.516H180.248C182.206 105.515 184.083 104.737 185.468 103.354C186.853 101.971 187.634 100.096 187.639 98.1382V98.1382ZM137.408 49.2786C137.408 48.7802 137.794 48.3733 138.27 48.3733C138.742 48.3733 139.129 48.7802 139.129 49.2786V54.7099C139.134 54.9434 139.047 55.1695 138.886 55.3388C138.725 55.5081 138.504 55.6067 138.27 55.6131C138.036 55.6067 137.815 55.5082 137.653 55.339C137.492 55.1699 137.403 54.9438 137.408 54.7099V49.2786ZM130.557 51.1744L129.358 49.1484C129.106 48.7232 129.301 48.3713 129.794 48.3713H129.975C130.467 48.3713 131.02 48.6683 131.201 49.0324C131.384 49.3986 131.712 50.0495 131.928 50.4869L132.107 50.8978C132.119 50.8978 132.278 50.5438 132.457 50.1126L132.648 49.6956L132.894 49.185C133.022 48.9509 133.209 48.7535 133.435 48.6111C133.66 48.4688 133.919 48.3862 134.186 48.3713H134.354C134.845 48.3713 135.04 48.7191 134.782 49.1463L133.577 51.1378C133.45 51.3749 133.384 51.6398 133.384 51.9088C133.384 52.1778 133.45 52.4427 133.577 52.6798L134.889 54.8442C135.148 55.2652 134.957 55.6131 134.464 55.6131H134.273C133.781 55.6131 133.225 55.3181 133.036 54.9581L132.275 53.5016L132.021 53.0052C132.009 53.0052 131.84 53.3633 131.647 53.8006L131.413 54.3051L131.175 54.7994C131.048 55.0336 130.863 55.2314 130.638 55.3738C130.413 55.5163 130.155 55.5986 129.889 55.6131H129.721C129.228 55.6131 129.033 55.2652 129.287 54.8401L130.555 52.7245C130.68 52.4854 130.745 52.2196 130.745 51.9497C130.746 51.6799 130.681 51.4139 130.557 51.1744V51.1744ZM120.876 54.7526L122.641 49.2318C122.731 48.9896 122.889 48.7789 123.097 48.626C123.305 48.473 123.553 48.3844 123.811 48.3713H124.273C124.765 48.3713 125.294 48.7598 125.445 49.2318L127.239 54.7526C127.391 55.2246 127.117 55.6131 126.624 55.6131H126.565C126.308 55.6006 126.059 55.5117 125.852 55.3577C125.645 55.2038 125.488 54.9918 125.402 54.7485L125.359 54.6184C125.273 54.3753 125.116 54.1634 124.909 54.0095C124.701 53.8556 124.453 53.7666 124.196 53.7538H123.813C123.557 53.7666 123.31 53.8563 123.106 54.0112C122.901 54.1661 122.748 54.3791 122.666 54.6224L122.629 54.7465C122.55 54.9899 122.398 55.2033 122.194 55.3585C121.99 55.5136 121.744 55.6031 121.488 55.6151C121 55.6131 120.723 55.2246 120.876 54.7526V54.7526ZM114.991 48.3713H119.027C119.519 48.3713 119.92 48.6805 119.92 49.0589C119.92 49.4413 119.519 49.7485 119.027 49.7485H118.746C118.254 49.7485 117.853 50.1553 117.853 50.6537V54.7079C117.853 55.2042 117.466 55.6111 116.992 55.6111C116.518 55.6111 116.13 55.2042 116.13 54.7079V50.6537C116.131 50.4154 116.038 50.1864 115.87 50.0167C115.703 49.8471 115.475 49.7506 115.237 49.7485H114.991C114.499 49.7485 114.098 49.4413 114.098 49.0589C114.098 48.6825 114.499 48.3713 114.991 48.3713V48.3713ZM174.721 101.633C174.327 102.307 173.988 103.013 173.708 103.742C171.324 100.842 167.785 98.9356 164.129 98.9356C158.289 98.9356 154.371 103.797 155.376 109.796C156.379 115.795 161.928 120.657 167.76 120.657C173.6 120.657 177.522 115.795 176.517 109.796C176.464 109.5 176.4 109.205 176.324 108.913C177.952 111.654 179.974 115.549 181.448 120.053C182.596 123.574 181.77 131.385 181.448 135.138C181.29 136.994 180.911 141.487 174.748 141.87C162.811 142.608 156.068 144.189 126.954 144.189C97.8444 144.189 90.5904 142.596 78.4788 141.87C72.3151 141.504 71.9388 136.996 71.7781 135.138C71.4567 131.385 70.6308 123.574 71.7781 120.053C73.2529 115.549 75.2749 111.654 76.9022 108.913C76.8275 109.205 76.763 109.5 76.709 109.796C75.7041 115.795 79.624 120.657 85.4642 120.657C91.2963 120.657 96.8477 115.795 97.8505 109.796C98.8554 103.797 94.9355 98.9356 89.0953 98.9356C85.4419 98.9356 81.9003 100.844 79.5182 103.742C79.2388 103.012 78.8992 102.307 78.5032 101.633C78.4503 101.637 78.3954 101.651 78.3404 101.651H72.9762C71.0112 101.651 69.4001 100.071 69.4001 98.1382C69.4001 98.1382 70.049 94.8693 71.1882 93.7545C72.1219 92.8371 73.8163 92.6011 75.3217 92.6011C76.9389 92.6011 78.3384 92.8757 78.3384 92.8757C80.0451 92.8757 81.4792 94.0678 81.8311 95.6443C83.5521 87.0579 86.2657 75.9206 88.485 71.3172C91.5404 64.9847 95.0799 63.5852 99.6996 62.7328C106.177 61.5367 113.154 60.9224 126.61 60.9224C140.066 60.9224 147.048 61.5367 153.523 62.7328C158.142 63.5852 161.682 64.9827 164.737 71.3172C166.957 75.9206 169.672 87.0579 171.391 95.6443C171.574 94.8559 172.019 94.1529 172.653 93.65C173.287 93.1471 174.073 92.8742 174.882 92.8757C174.882 92.8757 176.284 92.6011 177.901 92.6011C179.406 92.6011 181.101 92.8371 182.032 93.7545C183.173 94.8693 183.82 98.1382 183.82 98.1382C183.82 100.069 182.211 101.651 180.244 101.651H174.884C174.829 101.651 174.778 101.637 174.721 101.633V101.633ZM167.158 117.036C163.269 117.036 159.568 113.791 158.901 109.794C158.23 105.797 160.844 102.552 164.737 102.552C168.623 102.552 172.325 105.797 172.994 109.794C173.663 113.791 171.052 117.036 167.158 117.036ZM80.2322 109.796C80.8995 105.799 84.5997 102.555 88.4891 102.555C92.3826 102.555 94.9945 105.799 94.3253 109.796C93.6601 113.794 89.9578 117.038 86.0684 117.038C82.1749 117.036 79.563 113.791 80.2322 109.796Z" fill="#35383F"/>
<path d="M157.006 68.8744C155.151 67.5888 141.113 65.4468 126.613 65.4468C112.113 65.4468 98.0769 67.5888 96.2196 68.8744C89.1691 73.7586 87.2793 96.3139 87.2793 96.3139C87.2793 96.3139 90.9083 98.0287 96.2196 98.0287C100.467 98.0287 101.584 95.2663 126.613 95.2663C151.642 95.2663 152.761 98.0287 157.006 98.0287C162.317 98.0287 165.946 96.3139 165.946 96.3139C165.946 96.3139 164.059 73.7606 157.006 68.8744V68.8744ZM149.514 132.509C140.716 129.006 112.011 128.55 103.693 132.509C102.143 133.245 100.54 136.949 102.469 136.949H150.741C152.669 136.947 151.151 133.162 149.514 132.509Z" fill="#35383F"/>
<path d="M83.7031 135.139C85.6781 135.139 87.2792 133.518 87.2792 131.518C87.2792 129.518 85.6781 127.897 83.7031 127.897C81.728 127.897 80.127 129.518 80.127 131.518C80.127 133.518 81.728 135.139 83.7031 135.139Z" fill="#35383F"/>
<path d="M169.521 135.139C171.497 135.139 173.098 133.518 173.098 131.518C173.098 129.518 171.497 127.897 169.521 127.897C167.546 127.897 165.945 129.518 165.945 131.518C165.945 133.518 167.546 135.139 169.521 135.139Z" fill="#35383F"/>
<path d="M140.222 121.843C143.426 121.843 145.222 119.32 144.209 116.239L144.006 115.632C142.993 112.551 139.492 108.669 136.331 108.059C131.546 107.127 121.682 107.127 116.894 108.059C113.735 108.669 110.232 112.551 109.219 115.632L109.017 116.239C108.004 119.32 109.8 121.843 113.004 121.843H140.222ZM111.56 117.111L111.767 116.491C112.565 114.068 115.462 111.104 117.402 110.726C119.495 110.319 122.937 110.077 126.615 110.077C130.293 110.077 133.739 110.319 135.828 110.726C137.771 111.104 140.667 114.068 141.469 116.503L141.666 117.095C141.876 117.73 141.859 118.279 141.624 118.606C141.388 118.934 140.877 119.127 140.224 119.127H113.006C112.351 119.127 111.843 118.934 111.607 118.606C111.371 118.279 111.357 117.73 111.56 117.111" fill="#35383F"/>
<path d="M136.37 111.89H116.854C116.15 112.244 115.337 112.899 114.594 113.7H138.63C137.888 112.899 137.074 112.244 136.37 111.89ZM140.62 116.794C140.459 116.345 140.252 115.915 140.001 115.509H113.223C112.975 115.91 112.77 116.336 112.611 116.78L112.43 117.319H140.793L140.62 116.794V116.794ZM124.002 52.5316C124.464 52.5316 124.735 52.1857 124.606 51.7626C124.44 51.2172 124.279 50.6699 124.124 50.121C124.124 50.121 124.098 50.0274 123.988 49.5962C123.976 49.5962 123.872 49.9929 123.762 50.477C123.762 50.477 123.74 50.5746 123.62 50.9937L123.421 51.665C123.278 52.141 123.541 52.5316 124.002 52.5316" fill="#35383F"/>
<defs>
<linearGradient id="paint0_linear_1248_41843" x1="232.558" y1="253.068" x2="-25.3761" y2="190.5" gradientUnits="userSpaceOnUse">
<stop stop-color="#FEBB1B"/>
<stop offset="1" stop-color="#FFC740"/>
</linearGradient>
</defs>
</svg>
