<svg width="24" height="25" viewBox="0 0 24 25" fill="none" xmlns="http://www.w3.org/2000/svg">
<g clip-path="url(#clip0_2633_18792)">
<path d="M23.5088 12.9744C23.5088 11.9912 23.4304 11.2736 23.2608 10.5295H12.2305V14.9675H18.705C18.5745 16.0704 17.8696 17.7314 16.3032 18.8475L16.2812 18.996L19.7688 21.7462L20.0104 21.7708C22.2295 19.6846 23.5088 16.6152 23.5088 12.9744Z" fill="#4285F4"/>
<path d="M12.2296 24.6676C15.4016 24.6676 18.0645 23.6045 20.0095 21.7709L16.3023 18.8476C15.3102 19.5518 13.9787 20.0434 12.2296 20.0434C9.1228 20.0434 6.48598 17.9574 5.54603 15.074L5.40825 15.0859L1.7818 17.9427L1.73438 18.0769C3.6663 21.9834 7.63462 24.6676 12.2296 24.6676Z" fill="#34A853"/>
<path d="M5.54719 15.074C5.29917 14.33 5.15564 13.5326 5.15564 12.7089C5.15564 11.885 5.29917 11.0878 5.53414 10.3437L5.52757 10.1852L1.85568 7.28247L1.73554 7.34064C0.939305 8.96174 0.482422 10.7822 0.482422 12.7089C0.482422 14.6355 0.939305 16.4559 1.73554 18.077L5.54719 15.074Z" fill="#FBBC05"/>
<path d="M12.2295 5.37403C14.4356 5.37403 15.9237 6.34401 16.7722 7.15461L20.0878 3.85928C18.0515 1.9326 15.4015 0.75 12.2295 0.75C7.63462 0.75 3.6663 3.43406 1.73438 7.34056L5.53297 10.3436C6.48597 7.4602 9.12279 5.37403 12.2295 5.37403Z" fill="#EB4335"/>
</g>
<defs>
<clipPath id="clip0_2633_18792">
<rect width="23.04" height="24" fill="white" transform="translate(0.480469 0.75)"/>
</clipPath>
</defs>
</svg>
