<svg width="20" height="21" viewBox="0 0 20 21" fill="currentColor" xmlns="http://www.w3.org/2000/svg">
    <path fill-rule="evenodd" clip-rule="evenodd" d="M14.6016 6.66342V7.9412C16.0369 8.38921 17.0827 9.68853 17.0827 11.2404V15.3545C17.0827 17.2757 15.4899 18.8334 13.5262 18.8334H6.47335C4.50881 18.8334 2.91602 17.2757 2.91602 15.3545V11.2404C2.91602 9.68853 3.96264 8.38921 5.39709 7.9412V6.66342C5.40556 4.17907 7.46324 2.16675 9.98665 2.16675C12.5439 2.16675 14.6016 4.17907 14.6016 6.66342ZM10.0036 3.61595C11.7226 3.61595 13.1197 4.98234 13.1197 6.66342V7.7615H6.87896V6.64686C6.88742 4.97406 8.28462 3.61595 10.0036 3.61595ZM10.7403 14.2125C10.7403 14.6183 10.41 14.9413 9.99511 14.9413C9.58866 14.9413 9.25841 14.6183 9.25841 14.2125V12.3741C9.25841 11.9766 9.58866 11.6536 9.99511 11.6536C10.41 11.6536 10.7403 11.9766 10.7403 12.3741V14.2125Z" fill="currentColor"/>
</svg>