<svg width="42" height="32" viewBox="0 0 42 32" fill="none" xmlns="http://www.w3.org/2000/svg">
<g clip-path="url(#clip0_1135_36590)">
<path d="M7.4836 31.8411V29.7231C7.4836 28.911 6.98929 28.3817 6.14202 28.3817C5.71846 28.3817 5.25952 28.5229 4.94178 28.9818C4.69478 28.5935 4.34182 28.3817 3.81229 28.3817C3.45916 28.3817 3.10636 28.4875 2.82383 28.8758V28.4523H2.08252V31.8411H2.82383V29.9701C2.82383 29.3701 3.14157 29.0876 3.63589 29.0876C4.12988 29.0876 4.37719 29.4054 4.37719 29.9701V31.8411H5.1185V29.9701C5.1185 29.3701 5.4713 29.0876 5.93024 29.0876C6.42455 29.0876 6.67155 29.4054 6.67155 29.9701V31.8411H7.4836ZM18.4619 28.4523H17.2618V27.4286H16.5205V28.4523H15.8498V29.1228H16.5203V30.6762C16.5203 31.4529 16.8381 31.9116 17.6853 31.9116C18.0031 31.9116 18.3559 31.8058 18.6032 31.6646L18.3913 31.0292C18.1795 31.1703 17.9325 31.2057 17.7559 31.2057C17.403 31.2057 17.2618 30.9939 17.2618 30.6408V29.1228H18.4619V28.4523ZM24.7454 28.3815C24.3219 28.3815 24.0395 28.5935 23.8629 28.8758V28.4523H23.1216V31.8411H23.8629V29.9349C23.8629 29.3701 24.1099 29.0524 24.5689 29.0524C24.7101 29.0524 24.8866 29.0878 25.0278 29.123L25.2396 28.4171C25.0984 28.3817 24.8866 28.3817 24.7454 28.3817V28.3815ZM15.2496 28.7346C14.8965 28.4875 14.4024 28.3817 13.8728 28.3817C13.0257 28.3817 12.461 28.8052 12.461 29.4759C12.461 30.0408 12.8845 30.3584 13.6258 30.4644L13.9788 30.4998C14.3671 30.5702 14.5789 30.6762 14.5789 30.8528C14.5789 31.0997 14.2965 31.2763 13.8022 31.2763C13.3081 31.2763 12.9197 31.0997 12.6726 30.9233L12.3196 31.4881C12.708 31.7705 13.2375 31.9116 13.7669 31.9116C14.7553 31.9116 15.3202 31.4529 15.3202 30.8174C15.3202 30.2173 14.8613 29.8995 14.1552 29.7937L13.8022 29.7583C13.4845 29.7229 13.2375 29.6525 13.2375 29.4407C13.2375 29.1936 13.4845 29.0524 13.8728 29.0524C14.2965 29.0524 14.7201 29.2288 14.9319 29.3348L15.2496 28.7346ZM34.9473 28.3817C34.5236 28.3817 34.2412 28.5935 34.0647 28.8758V28.4523H33.3234V31.8411H34.0647V29.9349C34.0647 29.3701 34.3118 29.0524 34.7706 29.0524C34.9119 29.0524 35.0885 29.0878 35.2297 29.123L35.4415 28.4171C35.3003 28.3817 35.0885 28.3817 34.9473 28.3817ZM25.4867 30.1467C25.4867 31.1703 26.1927 31.9116 27.2871 31.9116C27.7813 31.9116 28.1342 31.8058 28.4872 31.5235L28.1342 30.9233C27.8518 31.1351 27.5695 31.2409 27.2517 31.2409C26.6516 31.2409 26.228 30.8174 26.228 30.1467C26.228 29.5113 26.6516 29.0876 27.2517 29.0524C27.5695 29.0524 27.8518 29.1582 28.1342 29.3701L28.4872 28.77C28.1342 28.4875 27.7813 28.3817 27.2871 28.3817C26.1927 28.3817 25.4867 29.123 25.4867 30.1467ZM32.3351 30.1467V28.4523H31.5938V28.8758C31.3466 28.5582 30.9936 28.3817 30.5347 28.3817C29.5816 28.3817 28.8403 29.123 28.8403 30.1467C28.8403 31.1703 29.5816 31.9116 30.5347 31.9116C31.0289 31.9116 31.382 31.7352 31.5938 31.4175V31.8411H32.3351V30.1467ZM29.6168 30.1467C29.6168 29.5465 30.0052 29.0524 30.6405 29.0524C31.2406 29.0524 31.6643 29.5113 31.6643 30.1467C31.6643 30.7468 31.2406 31.2409 30.6405 31.2409C30.0052 31.2056 29.6168 30.7468 29.6168 30.1467ZM20.7565 28.3817C19.7681 28.3817 19.062 29.0876 19.062 30.1467C19.062 31.2057 19.7679 31.9116 20.7917 31.9116C21.2859 31.9116 21.7802 31.7705 22.1686 31.4529L21.8154 30.9233C21.5331 31.1351 21.1801 31.2763 20.8271 31.2763C20.3682 31.2763 19.9093 31.0645 19.8033 30.4642H22.3097V30.182C22.3451 29.0876 21.7096 28.3817 20.7564 28.3817H20.7565ZM20.7565 29.017C21.2153 29.017 21.5332 29.2995 21.6036 29.8291H19.8387C19.9093 29.3701 20.227 29.017 20.7565 29.017ZM39.148 30.1467V27.1108H38.4067V28.8758C38.1595 28.5582 37.8066 28.3817 37.3476 28.3817C36.3946 28.3817 35.6533 29.123 35.6533 30.1467C35.6533 31.1703 36.3946 31.9116 37.3476 31.9116C37.842 31.9116 38.1949 31.7352 38.4067 31.4175V31.8411H39.148V30.1467ZM36.4299 30.1467C36.4299 29.5465 36.8181 29.0524 37.4536 29.0524C38.0537 29.0524 38.4773 29.5113 38.4773 30.1467C38.4773 30.7468 38.0537 31.2409 37.4536 31.2409C36.8181 31.2056 36.4299 30.7468 36.4299 30.1467ZM11.6489 30.1467V28.4523H10.9076V28.8758C10.6604 28.5582 10.3075 28.3817 9.84855 28.3817C8.89546 28.3817 8.15416 29.123 8.15416 30.1467C8.15416 31.1703 8.89546 31.9116 9.84855 31.9116C10.3429 31.9116 10.6958 31.7352 10.9076 31.4175V31.8411H11.6489V30.1467ZM8.89546 30.1467C8.89546 29.5465 9.28381 29.0524 9.91914 29.0524C10.5193 29.0524 10.943 29.5113 10.943 30.1467C10.943 30.7468 10.5193 31.2409 9.91914 31.2409C9.28381 31.2056 8.89546 30.7468 8.89546 30.1467Z" fill="white"/>
<path d="M15.0029 2.71826H26.1225V22.6983H15.0029V2.71826Z" fill="#FF5F00"/>
<path d="M15.7088 12.7082C15.7088 8.64868 17.615 5.04796 20.5448 2.71807C18.3916 1.02368 15.6736 0 12.7083 0C5.6833 0 0 5.6833 0 12.7082C0 19.7329 5.6833 25.4164 12.7082 25.4164C15.6734 25.4164 18.3915 24.3927 20.5448 22.6981C17.615 20.4036 15.7088 16.7677 15.7088 12.7082Z" fill="#EB001B"/>
<path d="M41.1249 12.7082C41.1249 19.7329 35.4416 25.4164 28.4167 25.4164C25.4515 25.4164 22.7334 24.3927 20.5801 22.6981C23.5453 20.3684 25.4163 16.7677 25.4163 12.7082C25.4163 8.64868 23.5099 5.04796 20.5801 2.71807C22.7332 1.02368 25.4515 0 28.4167 0C35.4416 0 41.125 5.71867 41.125 12.7082H41.1249Z" fill="#F79E1B"/>
</g>
<defs>
<clipPath id="clip0_1135_36590">
<rect width="41.1658" height="32" fill="white"/>
</clipPath>
</defs>
</svg>
