<svg width="20" height="20" viewBox="0 0 20 20" fill="none" xmlns="http://www.w3.org/2000/svg">
<path opacity="0.4" d="M10.8129 2.59435L12.6683 6.32292C12.805 6.59305 13.0659 6.78065 13.3668 6.82234L17.5344 7.42931C17.7778 7.4635 17.9986 7.59189 18.1478 7.78783C18.2954 7.98126 18.3587 8.22638 18.3229 8.46734C18.2937 8.66744 18.1995 8.85253 18.0553 8.99427L15.0355 11.9216C14.8146 12.1259 14.7146 12.4285 14.768 12.7245L15.5114 16.8399C15.5906 17.3368 15.2614 17.8054 14.768 17.8996C14.5646 17.9322 14.3562 17.898 14.1728 17.8046L10.4554 15.8678C10.1795 15.7285 9.85356 15.7285 9.57767 15.8678L5.8602 17.8046C5.40344 18.0472 4.83748 17.8821 4.58326 17.4319C4.48908 17.2526 4.45574 17.0484 4.48658 16.8491L5.23007 12.7328C5.28341 12.4377 5.18256 12.1334 4.96251 11.9291L1.9427 9.00344C1.58345 8.6566 1.57262 8.08548 1.91852 7.72613C1.92603 7.71863 1.93436 7.71029 1.9427 7.70195C2.08606 7.55604 2.27443 7.4635 2.47781 7.43932L6.64537 6.83151C6.94544 6.78899 7.20633 6.60306 7.34386 6.33125L9.13257 2.59435C9.29177 2.27419 9.62184 2.07492 9.98026 2.08326H10.0919C10.4028 2.12078 10.6737 2.31338 10.8129 2.59435Z" fill="url(#paint0_linear_2983_8522)"/>
<path d="M9.99269 15.7639C9.83127 15.7689 9.67402 15.8123 9.53257 15.8899L5.83328 17.8223C5.38065 18.0383 4.83898 17.8707 4.58521 17.4378C4.49119 17.261 4.45707 17.0583 4.48869 16.8598L5.22755 12.7523C5.27747 12.4537 5.17763 12.1501 4.96046 11.94L1.9393 9.01507C1.58068 8.66395 1.57403 8.08764 1.92515 7.72818C1.93014 7.72318 1.9343 7.71901 1.9393 7.71484C2.08241 7.57306 2.26712 7.47965 2.46598 7.45046L6.63704 6.83662C6.93907 6.79825 7.20117 6.60977 7.3343 6.33621L9.14733 2.55227C9.31957 2.24702 9.64989 2.06521 9.99935 2.08439C9.99269 2.33209 9.99269 15.5955 9.99269 15.7639Z" fill="url(#paint1_linear_2983_8522)"/>
<defs>
<linearGradient id="paint0_linear_2983_8522" x1="18.3327" y1="17.9163" x2="-1.33439" y2="11.9139" gradientUnits="userSpaceOnUse">
<stop stop-color="#FEBB1B"/>
<stop offset="1" stop-color="#FFC740"/>
</linearGradient>
<linearGradient id="paint1_linear_2983_8522" x1="9.99935" y1="17.9163" x2="-0.505532" y2="16.3133" gradientUnits="userSpaceOnUse">
<stop stop-color="#FEBB1B"/>
<stop offset="1" stop-color="#FFC740"/>
</linearGradient>
</defs>
</svg>
