<svg width="367" height="419" viewBox="0 0 367 419" fill="none" xmlns="http://www.w3.org/2000/svg">
<circle cx="156" cy="413" r="6" fill="#FED676"/>
<circle cx="57" cy="395" r="3" fill="#FED676"/>
<circle cx="227" cy="385" r="10" fill="#FED676"/>
<circle cx="93" cy="353" r="7" fill="#FED676"/>
<circle cx="312" cy="353" r="20" fill="#FED676"/>
<circle cx="10" cy="310" r="10" fill="#FED676"/>
<circle cx="361" cy="285" r="6" fill="#FED676"/>
<circle cx="16" cy="205" r="6" fill="#FED676"/>
<circle cx="356" cy="200" r="3" fill="#FED676"/>
<circle cx="54" cy="134" r="3" fill="#FED676"/>
<circle cx="346" cy="103" r="14" fill="#FED676"/>
<path fill-rule="evenodd" clip-rule="evenodd" d="M208.687 298.245C210.839 294.518 214.424 291.871 218.517 290.538C260.916 276.724 291.557 236.871 291.557 189.862C291.557 131.396 244.161 84 185.695 84C127.229 84 79.833 131.396 79.833 189.862C79.833 236.872 110.474 276.725 152.874 290.538C156.967 291.871 160.552 294.518 162.704 298.246L184.829 336.568C185.214 337.234 186.177 337.234 186.561 336.568L208.687 298.245Z" fill="url(#paint0_linear_1228_31816)"/>
<path d="M246.639 182.138V181.756L246.565 181.379C246.301 180.043 245.489 176.741 243.691 174.978C242.177 173.495 239.893 172.738 236.905 172.738C235.416 172.738 234.102 172.923 233.498 173.025C233.297 173.035 233.096 173.054 232.897 173.082C231.532 166.994 229.315 158.074 227.167 153.621C223.202 145.407 217.885 143.797 213.21 142.935C209.406 142.238 205.564 141.762 201.705 141.509V130.563C201.706 130.086 201.519 129.627 201.184 129.288C200.848 128.949 200.392 128.756 199.915 128.752H171.31C170.329 128.752 169.522 129.566 169.522 130.563V141.509C165.662 141.762 161.821 142.238 158.016 142.935C153.344 143.797 148.024 145.407 144.061 153.621C141.911 158.074 139.696 166.994 138.331 173.082C138.132 173.053 137.932 173.034 137.731 173.025C137.127 172.923 135.813 172.738 134.324 172.738C131.333 172.738 129.051 173.493 127.536 174.982C125.739 176.741 124.928 180.043 124.663 181.382L124.586 181.756V182.138C124.59 184.095 125.371 185.971 126.756 187.353C128.142 188.736 130.019 189.512 131.976 189.512H133.492C131.651 192.437 129.006 197.183 127.157 202.84C125.955 206.53 126.368 212.596 126.893 218.492L126.978 219.472C127.582 226.449 131.665 228.852 135.552 229.523V239.047C135.552 241.039 137.163 242.668 139.126 242.668H153.429C155.396 242.668 157.005 241.039 157.005 239.049V231.283C163.783 231.716 172.563 232.05 185.952 232.05C199.044 232.05 207.628 231.734 214.217 231.315V239.051C214.217 241.043 215.828 242.67 217.793 242.67H232.096C234.063 242.67 235.672 241.041 235.672 239.051V229.525C239.566 228.848 243.652 226.441 244.246 219.476L244.334 218.496C244.859 212.601 245.272 206.535 244.067 202.846C242.22 197.189 239.576 192.442 237.735 189.516H239.248C241.206 189.515 243.083 188.737 244.468 187.354C245.853 185.971 246.634 184.096 246.639 182.138V182.138ZM196.408 133.279C196.408 132.78 196.794 132.373 197.27 132.373C197.742 132.373 198.129 132.78 198.129 133.279V138.71C198.134 138.943 198.047 139.17 197.886 139.339C197.725 139.508 197.504 139.607 197.27 139.613C197.036 139.607 196.815 139.508 196.653 139.339C196.492 139.17 196.403 138.944 196.408 138.71V133.279ZM189.557 135.174L188.358 133.148C188.106 132.723 188.301 132.371 188.794 132.371H188.975C189.467 132.371 190.02 132.668 190.201 133.032C190.384 133.399 190.712 134.05 190.928 134.487L191.107 134.898C191.119 134.898 191.278 134.544 191.457 134.113L191.648 133.696L191.894 133.185C192.022 132.951 192.209 132.753 192.435 132.611C192.66 132.469 192.919 132.386 193.186 132.371H193.354C193.845 132.371 194.04 132.719 193.782 133.146L192.577 135.138C192.45 135.375 192.384 135.64 192.384 135.909C192.384 136.178 192.45 136.443 192.577 136.68L193.889 138.844C194.148 139.265 193.957 139.613 193.464 139.613H193.273C192.781 139.613 192.225 139.318 192.036 138.958L191.275 137.502L191.021 137.005C191.009 137.005 190.84 137.363 190.647 137.801L190.413 138.305L190.175 138.799C190.048 139.034 189.863 139.231 189.638 139.374C189.413 139.516 189.155 139.599 188.889 139.613H188.721C188.228 139.613 188.033 139.265 188.287 138.84L189.555 136.725C189.68 136.485 189.745 136.22 189.745 135.95C189.746 135.68 189.681 135.414 189.557 135.174V135.174ZM179.876 138.753L181.641 133.232C181.731 132.99 181.889 132.779 182.097 132.626C182.305 132.473 182.553 132.384 182.811 132.371H183.273C183.765 132.371 184.294 132.76 184.445 133.232L186.239 138.753C186.391 139.225 186.117 139.613 185.624 139.613H185.565C185.308 139.601 185.059 139.512 184.852 139.358C184.645 139.204 184.488 138.992 184.402 138.749L184.359 138.618C184.273 138.375 184.116 138.163 183.909 138.009C183.701 137.856 183.453 137.767 183.196 137.754H182.813C182.557 137.767 182.31 137.856 182.106 138.011C181.901 138.166 181.748 138.379 181.666 138.622L181.629 138.747C181.55 138.99 181.398 139.203 181.194 139.358C180.99 139.514 180.744 139.603 180.488 139.615C180 139.613 179.723 139.225 179.876 138.753V138.753ZM173.991 132.371H178.027C178.519 132.371 178.92 132.68 178.92 133.059C178.92 133.441 178.519 133.748 178.027 133.748H177.746C177.254 133.748 176.853 134.155 176.853 134.654V138.708C176.853 139.204 176.466 139.611 175.992 139.611C175.518 139.611 175.13 139.204 175.13 138.708V134.654C175.131 134.415 175.038 134.186 174.87 134.017C174.703 133.847 174.475 133.751 174.237 133.748H173.991C173.499 133.748 173.098 133.441 173.098 133.059C173.098 132.683 173.499 132.371 173.991 132.371V132.371ZM233.721 185.633C233.327 186.307 232.988 187.013 232.708 187.742C230.324 184.842 226.785 182.936 223.129 182.936C217.289 182.936 213.371 187.797 214.376 193.796C215.379 199.795 220.928 204.657 226.76 204.657C232.6 204.657 236.522 199.795 235.517 193.796C235.464 193.5 235.4 193.205 235.324 192.913C236.952 195.654 238.974 199.549 240.448 204.053C241.596 207.574 240.77 215.385 240.448 219.138C240.29 220.994 239.911 225.487 233.748 225.87C221.811 226.608 215.068 228.189 185.954 228.189C156.844 228.189 149.59 226.596 137.479 225.87C131.315 225.504 130.939 220.996 130.778 219.138C130.457 215.385 129.631 207.574 130.778 204.053C132.253 199.549 134.275 195.654 135.902 192.913C135.828 193.205 135.763 193.5 135.709 193.796C134.704 199.795 138.624 204.657 144.464 204.657C150.296 204.657 155.848 199.795 156.851 193.796C157.855 187.797 153.936 182.936 148.095 182.936C144.442 182.936 140.9 184.844 138.518 187.742C138.239 187.012 137.899 186.307 137.503 185.633C137.45 185.637 137.395 185.651 137.34 185.651H131.976C130.011 185.651 128.4 184.071 128.4 182.138C128.4 182.138 129.049 178.869 130.188 177.755C131.122 176.837 132.816 176.601 134.322 176.601C135.939 176.601 137.338 176.876 137.338 176.876C139.045 176.876 140.479 178.068 140.831 179.644C142.552 171.058 145.266 159.921 147.485 155.317C150.54 148.985 154.08 147.585 158.7 146.733C165.177 145.537 172.154 144.922 185.61 144.922C199.066 144.922 206.048 145.537 212.523 146.733C217.142 147.585 220.682 148.983 223.737 155.317C225.957 159.921 228.672 171.058 230.391 179.644C230.574 178.856 231.019 178.153 231.653 177.65C232.287 177.147 233.073 176.874 233.882 176.876C233.882 176.876 235.284 176.601 236.901 176.601C238.406 176.601 240.101 176.837 241.032 177.755C242.173 178.869 242.82 182.138 242.82 182.138C242.82 184.069 241.211 185.651 239.244 185.651H233.884C233.829 185.651 233.778 185.637 233.721 185.633V185.633ZM226.158 201.036C222.269 201.036 218.568 197.791 217.901 193.794C217.23 189.797 219.844 186.552 223.737 186.552C227.623 186.552 231.325 189.797 231.994 193.794C232.663 197.791 230.052 201.036 226.158 201.036ZM139.232 193.796C139.899 189.799 143.6 186.555 147.489 186.555C151.383 186.555 153.995 189.799 153.325 193.796C152.66 197.794 148.958 201.038 145.068 201.038C141.175 201.036 138.563 197.791 139.232 193.796Z" fill="#35383F"/>
<path d="M216.006 152.874C214.151 151.589 200.113 149.447 185.613 149.447C171.113 149.447 157.077 151.589 155.22 152.874C148.169 157.759 146.279 180.314 146.279 180.314C146.279 180.314 149.908 182.029 155.22 182.029C159.467 182.029 160.584 179.266 185.613 179.266C210.642 179.266 211.761 182.029 216.006 182.029C221.317 182.029 224.946 180.314 224.946 180.314C224.946 180.314 223.059 157.761 216.006 152.874V152.874ZM208.514 216.509C199.716 213.006 171.011 212.55 162.693 216.509C161.143 217.245 159.54 220.949 161.469 220.949H209.741C211.669 220.947 210.151 217.162 208.514 216.509Z" fill="#35383F"/>
<path d="M142.703 219.139C144.678 219.139 146.279 217.518 146.279 215.518C146.279 213.518 144.678 211.897 142.703 211.897C140.728 211.897 139.127 213.518 139.127 215.518C139.127 217.518 140.728 219.139 142.703 219.139Z" fill="#35383F"/>
<path d="M228.521 219.139C230.497 219.139 232.098 217.518 232.098 215.518C232.098 213.518 230.497 211.897 228.521 211.897C226.546 211.897 224.945 213.518 224.945 215.518C224.945 217.518 226.546 219.139 228.521 219.139Z" fill="#35383F"/>
<path d="M199.221 205.843C202.425 205.843 204.221 203.32 203.208 200.239L203.005 199.632C201.992 196.551 198.491 192.669 195.33 192.059C190.545 191.127 180.681 191.127 175.893 192.059C172.734 192.669 169.231 196.551 168.218 199.632L168.016 200.239C167.003 203.32 168.799 205.843 172.003 205.843H199.221ZM170.559 201.111L170.766 200.491C171.564 198.068 174.461 195.104 176.401 194.726C178.494 194.319 181.936 194.077 185.614 194.077C189.292 194.077 192.738 194.319 194.827 194.726C196.77 195.104 199.666 198.068 200.468 200.503L200.665 201.095C200.875 201.73 200.859 202.279 200.623 202.606C200.387 202.934 199.876 203.127 199.223 203.127H172.005C171.35 203.127 170.842 202.934 170.606 202.606C170.37 202.279 170.356 201.73 170.559 201.111" fill="#35383F"/>
<path d="M195.37 195.89H175.854C175.15 196.244 174.337 196.899 173.594 197.7H197.63C196.888 196.899 196.074 196.244 195.37 195.89ZM199.62 200.794C199.459 200.345 199.252 199.915 199.001 199.509H172.223C171.975 199.91 171.77 200.336 171.611 200.78L171.43 201.319H199.793L199.62 200.794V200.794ZM183.002 136.532C183.464 136.532 183.735 136.186 183.606 135.763C183.44 135.217 183.279 134.67 183.124 134.121C183.124 134.121 183.098 134.027 182.988 133.596C182.976 133.596 182.872 133.993 182.762 134.477C182.762 134.477 182.74 134.575 182.62 134.994L182.421 135.665C182.278 136.141 182.541 136.532 183.002 136.532" fill="#35383F"/>
<circle cx="30" cy="68" r="20" fill="#FED676"/>
<circle cx="276" cy="33" r="7" fill="#FED676"/>
<circle cx="135" cy="6" r="6" fill="#FED676"/>
<defs>
<linearGradient id="paint0_linear_1228_31816" x1="291.557" y1="337.068" x2="33.6229" y2="274.5" gradientUnits="userSpaceOnUse">
<stop stop-color="#FEBB1B"/>
<stop offset="1" stop-color="#FFC740"/>
</linearGradient>
</defs>
</svg>
